<?xml version="1.0" encoding="utf-8"?>
<!-- Generator: Adobe Illustrator 24.0.3, SVG Export Plug-In . SVG Version: 6.00 Build 0)  -->
<svg version="1.1" id="layer_1" xmlns="http://www.w3.org/2000/svg" xmlns:xlink="http://www.w3.org/1999/xlink" x="0px" y="0px"
	 viewBox="0 0 128 128" style="enable-background:new 0 0 128 128;" xml:space="preserve">
<style type="text/css">
	.st0{opacity:0.2;}
	.st1{fill:#FFFFFF;}
	.st2{opacity:0.2;fill:#0090D5;}
	.st3{fill:#21365F;}
	.st4{fill:#0090D5;}
</style>
<g class="st0">
	<circle class="st1" cx="72.6" cy="96.8" r="19.7"/>
</g>
<g class="st0">
	<circle class="st1" cx="78.2" cy="28.4" r="16.9"/>
</g>
<g class="st0">
	<circle class="st1" cx="44.3" cy="67.7" r="28.1"/>
</g>
<g>
	<path class="st1" d="M102.3,98.6H48.9c-4.7,0-8.4,3.8-8.4,8.4l0,0h70.2l0,0C110.7,102.4,107,98.6,102.3,98.6z"/>
</g>
<g>
	<path class="st1" d="M96.7,56.4H54.5l0,0c0,4.7,3.8,8.4,8.4,8.4h25.3C92.9,64.9,96.7,61.1,96.7,56.4L96.7,56.4z"/>
</g>
<g>
	<polygon class="st1" points="88.3,64.9 63,64.9 51.7,98.6 99.5,98.6 	"/>
</g>
<g>
	<path class="st2" d="M102.3,98.6H91.1l0,0c4.7,0,8.4,3.8,8.4,8.4h11.2l0,0C110.7,102.4,107,98.6,102.3,98.6z"/>
</g>
<g>
	<path class="st2" d="M96.7,56.4h-14c0,4.7-3.8,8.4-8.4,8.4l0,0h14C92.9,64.9,96.7,61.1,96.7,56.4L96.7,56.4z"/>
</g>
<g>
	<polygon class="st2" points="88.3,64.9 82.6,64.9 91.1,98.6 99.5,98.6 	"/>
</g>
<g>
	<path class="st3" d="M110.7,108.1H40.5c-0.6,0-1.1-0.5-1.1-1.1c0-5.2,4.3-9.5,9.5-9.5h53.4c5.2,0,9.5,4.3,9.5,9.5
		C111.8,107.6,111.3,108.1,110.7,108.1z M41.6,106h68c-0.5-3.6-3.6-6.3-7.3-6.3H48.9C45.2,99.6,42.1,102.4,41.6,106z"/>
</g>
<g>
	<path class="st3" d="M88.3,65.9H63c-5.2,0-9.5-4.3-9.5-9.5c0-0.6,0.5-1.1,1.1-1.1h42.1c0.6,0,1.1,0.5,1.1,1.1
		C97.7,61.7,93.5,65.9,88.3,65.9z M55.7,57.5c0.5,3.6,3.6,6.3,7.3,6.3h25.3c3.7,0,6.8-2.8,7.3-6.3H55.7z"/>
</g>
<g>
	<path class="st3" d="M99.5,99.6H51.7c-0.3,0-0.7-0.2-0.9-0.4c-0.2-0.3-0.3-0.6-0.1-0.9L62,64.5c0.1-0.4,0.5-0.7,1-0.7h25.3
		c0.5,0,0.9,0.3,1,0.7l11.2,33.7c0.1,0.3,0.1,0.7-0.1,0.9C100.1,99.5,99.8,99.6,99.5,99.6z M53.2,97.5H98L87.5,65.9H63.7L53.2,97.5z
		"/>
</g>
<g>
	<circle class="st1" cx="75.6" cy="42.4" r="14"/>
</g>
<g>
	<path class="st2" d="M81.2,34c0-1.7-0.3-3.3-0.8-4.8c-1.5-0.5-3.1-0.8-4.8-0.8c-7.8,0-14,6.3-14,14c0,1.7,0.3,3.3,0.8,4.8
		c1.5,0.5,3.1,0.9,4.8,0.9C74.9,48,81.2,41.7,81.2,34z"/>
</g>
<g>
	<path class="st3" d="M75.6,57.5c-8.3,0-15.1-6.8-15.1-15.1c0-8.3,6.8-15.1,15.1-15.1c8.3,0,15.1,6.8,15.1,15.1
		C90.7,50.7,83.9,57.5,75.6,57.5z M75.6,29.4c-7.2,0-13,5.8-13,13c0,7.2,5.8,13,13,13c7.2,0,13-5.8,13-13
		C88.6,35.2,82.8,29.4,75.6,29.4z"/>
</g>
<g>
	<path class="st1" d="M96.7,43.5c-0.6,0-1.1-0.5-1.1-1.1c0-6-2.7-11.7-7.4-15.5c-0.5-0.4-0.5-1-0.1-1.5c0.4-0.4,1-0.5,1.5-0.1
		c5.2,4.2,8.1,10.5,8.1,17.1C97.7,43,97.3,43.5,96.7,43.5z"/>
</g>
<g>
	<path class="st1" d="M84.4,24.3c-0.1,0-0.3,0-0.4-0.1c-0.6-0.3-1.1-0.5-1.7-0.7c-0.5-0.2-0.8-0.8-0.6-1.3c0.2-0.5,0.8-0.8,1.3-0.6
		c0.6,0.2,1.3,0.5,1.9,0.8c0.5,0.2,0.8,0.9,0.5,1.4C85.2,24.1,84.8,24.3,84.4,24.3z"/>
</g>
<g>
	<path class="st1" d="M79.8,95.8H32.1c-6.2,0-11.2,5-11.2,11.2l0,0h70.2l0,0C91.1,100.8,86,95.8,79.8,95.8z"/>
</g>
<g>
	<path class="st2" d="M79.8,95.8H51.7c-6.2,0-11.2,5-11.2,11.2l0,0h50.6l0,0C91.1,100.8,86,95.8,79.8,95.8z"/>
</g>
<g>
	<path class="st1" d="M79.8,48H32.1l0,0c0,6.2,5,11.2,11.2,11.2h25.3C74.8,59.3,79.8,54.2,79.8,48L79.8,48z"/>
</g>
<g>
	<path class="st2" d="M79.8,48H46.1l0,0c0,6.2,5,11.2,11.2,11.2h11.2C74.8,59.3,79.8,54.2,79.8,48L79.8,48z"/>
</g>
<g>
	<polygon class="st1" points="68.6,59.3 43.3,59.3 32.1,95.8 79.8,95.8 	"/>
</g>
<g>
	<polygon class="st2" points="68.6,59.3 57.4,59.3 60.2,95.8 79.8,95.8 	"/>
</g>
<g>
	<path class="st3" d="M41.8,90.3c-0.1,0-0.1,0-0.2,0c-0.6-0.1-0.9-0.7-0.8-1.2l0.6-2.9c0.1-0.6,0.7-0.9,1.2-0.8
		c0.6,0.1,0.9,0.7,0.8,1.2l-0.6,2.9C42.7,90,42.3,90.3,41.8,90.3z"/>
</g>
<g>
	<path class="st3" d="M43.4,82.4c-0.1,0-0.1,0-0.2,0c-0.6-0.1-0.9-0.7-0.8-1.2l2.9-14.7c0.1-0.6,0.7-0.9,1.2-0.8
		c0.6,0.1,0.9,0.7,0.8,1.2l-2.9,14.7C44.3,82,43.9,82.4,43.4,82.4z"/>
</g>
<g>
	<path class="st3" d="M91.1,108.1H20.8c-0.6,0-1.1-0.5-1.1-1.1c0-6.8,5.5-12.3,12.3-12.3h47.8c6.8,0,12.3,5.5,12.3,12.3
		C92.1,107.6,91.6,108.1,91.1,108.1z M21.9,106h68c-0.5-5.1-4.9-9.1-10.1-9.1H32.1C26.8,96.8,22.5,100.8,21.9,106z"/>
</g>
<g>
	<path class="st3" d="M68.6,60.3H43.3C36.5,60.3,31,54.8,31,48c0-0.6,0.5-1.1,1.1-1.1h47.8c0.6,0,1.1,0.5,1.1,1.1
		C80.9,54.8,75.4,60.3,68.6,60.3z M33.2,49.1c0.5,5.1,4.9,9.1,10.1,9.1h25.3c5.3,0,9.6-4,10.1-9.1H33.2z"/>
</g>
<g>
	<path class="st3" d="M79.8,96.8H32.1c-0.3,0-0.6-0.2-0.8-0.4c-0.2-0.3-0.3-0.6-0.2-0.9l11.2-36.5c0.1-0.4,0.5-0.7,1-0.7h25.3
		c0.5,0,0.9,0.3,1,0.7l11.2,36.5c0.1,0.3,0,0.7-0.2,0.9C80.5,96.7,80.2,96.8,79.8,96.8z M33.5,94.7h44.9L67.8,60.3H44.1L33.5,94.7z"
		/>
</g>
<g>
	<circle class="st1" cx="55.9" cy="32.6" r="15.5"/>
</g>
<g class="st0">
	<path class="st4" d="M63,24.1c0-2.1-0.4-4.1-1.2-5.9c-1.8-0.7-3.8-1.2-5.9-1.2c-8.5,0-15.5,6.9-15.5,15.5c0,2.1,0.4,4.1,1.2,5.9
		c1.8,0.7,3.8,1.2,5.9,1.2C56,39.6,63,32.7,63,24.1z"/>
</g>
<g>
	<path class="st3" d="M55.9,49.1c-9.1,0-16.5-7.4-16.5-16.5s7.4-16.5,16.5-16.5s16.5,7.4,16.5,16.5S65,49.1,55.9,49.1z M55.9,18.2
		c-7.9,0-14.4,6.5-14.4,14.4C41.5,40.5,48,47,55.9,47s14.4-6.5,14.4-14.4C70.3,24.6,63.9,18.2,55.9,18.2z"/>
</g>
<g>
	<path class="st3" d="M66.9,32.6c0,0.7-0.6,1.3-1.3,1.3c-0.7,0-1.3-0.6-1.3-1.3c0-0.7,0.6-1.3,1.3-1.3
		C66.3,31.3,66.9,31.9,66.9,32.6z"/>
</g>
<g>
	<path class="st3" d="M47.6,32.6c0,0.7-0.6,1.3-1.3,1.3c-0.7,0-1.3-0.6-1.3-1.3c0-0.7,0.6-1.3,1.3-1.3C47,31.3,47.6,31.9,47.6,32.6z
		"/>
</g>
<g>
	<path class="st1" d="M102.1,92.4c-0.4,0-0.8-0.3-1-0.7c-0.2-0.5,0.1-1.1,0.6-1.3l5.3-1.9c0.5-0.2,1.2,0.1,1.3,0.6
		c0.2,0.5-0.1,1.1-0.6,1.3l-5.3,1.9C102.3,92.3,102.2,92.4,102.1,92.4z"/>
</g>
<g>
	<path class="st1" d="M105.7,94c-0.4,0-0.8-0.3-1-0.7l-1.9-5.3c-0.2-0.5,0.1-1.1,0.6-1.3c0.5-0.2,1.2,0.1,1.3,0.6l1.9,5.3
		c0.2,0.5-0.1,1.1-0.6,1.3C105.9,94,105.8,94,105.7,94z"/>
</g>
<g>
	<path class="st1" d="M102.8,82.1c0.2,0.5-0.1,1.2-0.6,1.3c-0.5,0.2-1.2-0.1-1.4-0.6c-0.2-0.5,0.1-1.1,0.6-1.3
		C102,81.2,102.6,81.5,102.8,82.1z"/>
</g>
<g>
	<path class="st1" d="M101.4,78.1c0.2,0.5-0.1,1.2-0.6,1.3c-0.5,0.2-1.2-0.1-1.4-0.6c-0.2-0.5,0.1-1.2,0.6-1.3
		C100.6,77.3,101.2,77.6,101.4,78.1z"/>
</g>
<g>
	<path class="st1" d="M99,71.5c0.2,0.5-0.1,1.1-0.6,1.3c-0.5,0.2-1.2-0.1-1.4-0.6c-0.2-0.5,0.1-1.2,0.6-1.3
		C98.2,70.7,98.8,71,99,71.5z"/>
</g>
<g>
	<path class="st1" d="M31,83.9c-0.1,0-0.2,0-0.4-0.1l-5.3-1.9c-0.5-0.2-0.8-0.8-0.6-1.3c0.2-0.5,0.8-0.8,1.3-0.6l5.3,1.9
		c0.5,0.2,0.8,0.8,0.6,1.3C31.8,83.7,31.4,83.9,31,83.9z"/>
</g>
<g>
	<path class="st1" d="M27.4,85.6c-0.1,0-0.2,0-0.4-0.1c-0.5-0.2-0.8-0.8-0.6-1.3l1.9-5.3c0.2-0.5,0.8-0.8,1.3-0.6
		c0.5,0.2,0.8,0.8,0.6,1.3l-1.9,5.3C28.2,85.3,27.8,85.6,27.4,85.6z"/>
</g>
<g>
	<path class="st1" d="M30.2,73.6c-0.2,0.5,0.1,1.1,0.6,1.3c0.5,0.2,1.2-0.1,1.3-0.6c0.2-0.5-0.1-1.2-0.6-1.3
		C31,72.8,30.4,73.1,30.2,73.6z"/>
</g>
<g>
	<path class="st1" d="M31.7,69.7c-0.2,0.5,0.1,1.1,0.6,1.3c0.5,0.2,1.2-0.1,1.4-0.6c0.2-0.5-0.1-1.2-0.6-1.4
		C32.5,68.8,31.9,69.1,31.7,69.7z"/>
</g>
<g>
	<path class="st1" d="M34.1,63.1c-0.2,0.5,0.1,1.2,0.6,1.4c0.5,0.2,1.2-0.1,1.4-0.6c0.2-0.5-0.1-1.2-0.6-1.4
		C34.9,62.2,34.3,62.5,34.1,63.1z"/>
</g>
<g>
	<path class="st3" d="M57.8,38.9h-2.3v-9.2l-2.3,0.9v-1.9l4.4-1.8h0.2V38.9z"/>
</g>
</svg>
