<?xml version="1.0" encoding="utf-8"?>
<!-- Generator: Adobe Illustrator 24.0.3, SVG Export Plug-In . SVG Version: 6.00 Build 0)  -->
<svg version="1.1" id="layer_1" xmlns="http://www.w3.org/2000/svg" xmlns:xlink="http://www.w3.org/1999/xlink" x="0px" y="0px"
	 viewBox="0 0 128 128" style="enable-background:new 0 0 128 128;" xml:space="preserve">
<style type="text/css">
	.st0{opacity:0.2;fill:#FFFFFF;}
	.st1{opacity:0.2;fill:#0090D5;}
	.st2{fill:#21365F;}
	.st3{fill:#FFFFFF;}
</style>
<g>
	<path class="st0" d="M99.4,115.3H24.9c-5.5,0-10-4.5-10-10v-59c0-5.5,4.5-10,10-10h77.5c3.9,0,7,3.1,7,7v62
		C109.4,110.9,104.9,115.3,99.4,115.3z"/>
	<g>
		<path class="st1" d="M98.6,28.6H30.4c-8.6,0-15.5,6.9-15.5,15.5v7.8c0-8.6,6.9-15.5,15.5-15.5h68.2c6,0,10.8,4.9,10.8,10.8v52.7
			c0,8.6-6.9,15.5-15.5,15.5h4.6c8.6,0,15.5-6.9,15.5-15.5V44.1C114.1,35.5,107.1,28.6,98.6,28.6z"/>
		<path class="st1" d="M14.9,99.8c0,8,6.1,14.6,13.9,15.4C21,114.5,14.9,107.9,14.9,99.8z"/>
	</g>
	<path class="st2" d="M98.6,116.5H30.4c-9.2,0-16.7-7.5-16.7-16.7V44.1c0-9.2,7.5-16.7,16.7-16.7h68.2c9.2,0,16.7,7.5,16.7,16.7
		v55.8C115.2,109,107.8,116.5,98.6,116.5z M30.4,29.7c-7.9,0-14.3,6.4-14.3,14.3v55.8c0,7.9,6.4,14.3,14.3,14.3h68.2
		c7.9,0,14.3-6.4,14.3-14.3V44.1c0-7.9-6.4-14.3-14.3-14.3H30.4z"/>
	<path class="st3" d="M92.4,115.3V61.9c0-4.5-3.3-8.4-7.7-9.2l-7.7-1.3c-2.4-0.4-4.4-2.2-5-4.6l-0.8-3.1H57.8L57,46.8
		c-0.6,2.4-2.5,4.2-5,4.6l-7.7,1.3c-4.5,0.8-7.7,4.6-7.7,9.2v53.5H92.4z"/>
	<path class="st1" d="M92.4,61.9c0-4.5-3.3-8.4-7.7-9.2l-7.7-1.3c-2.4-0.4-4.4-2.2-5-4.6l-0.8-3.1H57.8L57,46.8
		c-0.6,2.4-2.5,4.2-5,4.6l-7.7,1.3c-3.7,0.6-6.6,3.5-7.4,7l30,4.4c7.5,1.1,13.3,7.1,14.3,14.6l4.6,36.6h6.6V61.9z"/>
	<path class="st2" d="M92.4,116.5H36.6c-0.6,0-1.2-0.5-1.2-1.2V61.9c0-5.1,3.7-9.4,8.7-10.3l7.7-1.3c2-0.3,3.6-1.8,4-3.7l0.8-3.1
		c0.1-0.5,0.6-0.9,1.1-0.9h13.4c0.5,0,1,0.4,1.1,0.9l0.8,3.1c0.5,1.9,2.1,3.4,4,3.7l7.7,1.3c5,0.9,8.7,5.2,8.7,10.3v53.5
		C93.5,116,93,116.5,92.4,116.5z M37.7,114.2h53.5V61.9c0-4-2.8-7.3-6.8-8l-7.7-1.3c-2.9-0.5-5.2-2.6-5.9-5.5l-0.6-2.2H58.7
		l-0.6,2.2c-0.7,2.8-3,5-5.9,5.5l-7.7,1.3c-3.9,0.7-6.8,4-6.8,8V114.2z"/>
	<path class="st3" d="M57.8,43.7L57,46.8c-0.5,1.9-1.8,3.4-3.5,4.2l11,15.6l11-15.6c-1.7-0.8-3-2.3-3.5-4.2l-0.8-3.1H57.8z"/>
	<path class="st2" d="M64.5,67.7c-0.4,0-0.7-0.2-1-0.5l-11-15.6c-0.2-0.3-0.3-0.6-0.2-1c0.1-0.3,0.3-0.6,0.6-0.8
		c1.4-0.6,2.5-1.9,2.8-3.4l0.8-3.1c0.1-0.5,0.6-0.9,1.1-0.9h13.4c0.5,0,1,0.4,1.1,0.9l0.8,3.1c0.4,1.5,1.4,2.7,2.8,3.4
		c0.3,0.1,0.6,0.4,0.6,0.8c0.1,0.3,0,0.7-0.2,1l-11,15.6C65.2,67.5,64.9,67.7,64.5,67.7z M55.2,51.3l9.3,13.2l9.3-13.2
		c-1.5-1-2.5-2.5-2.9-4.3l-0.6-2.2H58.7l-0.6,2.2C57.7,48.8,56.7,50.3,55.2,51.3z"/>
	<path class="st3" d="M77.7,29.8c0,8.9-5.9,16.1-13.2,16.1s-13.2-7.2-13.2-16.1c0-8.9,5.9-13.6,13.2-13.6S77.7,20.9,77.7,29.8z"/>
	<path class="st2" d="M64.5,47.1c-7.9,0-14.4-7.8-14.4-17.3c0-8.8,5.8-14.8,14.4-14.8c8.6,0,14.4,5.9,14.4,14.8
		C78.9,39.3,72.4,47.1,64.5,47.1z M64.5,17.3c-7.3,0-12.1,4.9-12.1,12.4c0,8.3,5.4,15,12.1,15s12.1-6.7,12.1-15
		C76.6,22.2,71.8,17.3,64.5,17.3z"/>
	<path class="st3" d="M52.9,22.5c-1.1,2-1.7,4.4-1.7,7.2c0,8.9,5.9,16.1,13.2,16.1c7.3,0,13.2-7.2,13.2-16.1c0-2.1-0.3-3.9-0.9-5.5
		C64.2,26.3,56.9,24.5,52.9,22.5z"/>
	<path class="st1" d="M76.8,24.3c-2.1,0.3-4.1,0.6-6,0.7c0.4,1.4,0.7,3,0.7,4.8c0,7.6-4.3,14-10.1,15.7c1,0.3,2,0.5,3.1,0.5
		c7.3,0,13.2-7.2,13.2-16.1C77.7,27.7,77.4,25.9,76.8,24.3z"/>
	<path class="st2" d="M64.5,47.1c-7.9,0-14.4-7.8-14.4-17.3c0-2.9,0.6-5.6,1.8-7.8c0.3-0.6,1-0.8,1.5-0.5c3.7,1.9,10.8,3.6,23.2,1.7
		c0.6-0.1,1.1,0.2,1.3,0.8c0.6,1.8,1,3.8,1,5.9C78.9,39.3,72.4,47.1,64.5,47.1z M53.5,24c-0.7,1.7-1.1,3.6-1.1,5.7
		c0,8.3,5.4,15,12.1,15s12.1-6.7,12.1-15c0-1.5-0.2-2.9-0.5-4.2C64.6,27.3,57.6,25.8,53.5,24z"/>
	<path class="st3" d="M114.1,99.8V84.1c-0.5-0.2-1-0.3-1.5-0.4l-7.7-1.3c-2.4-0.4-4.4-2.2-5-4.6l-0.8-3.1H85.7l-0.8,3.1
		c-0.6,2.4-2.5,4.2-5,4.6l-7.7,1.3c-4.5,0.8-7.7,4.6-7.7,9.2v22.5h34.1C107.1,115.3,114.1,108.4,114.1,99.8z"/>
	<path class="st1" d="M114.1,84.1c-0.5-0.2-1-0.3-1.5-0.4l-7.7-1.3c-2.4-0.4-4.4-2.2-5-4.6l-0.8-3.1H85.7l-0.8,3.1
		c-0.6,2.4-2.5,4.2-5,4.6l-7.7,1.3c-2.1,0.4-4,1.5-5.4,3l34,3.2c4.1,0.4,7.5,3.6,8,7.7l1.7,12c2.2-2.7,3.5-6.1,3.5-9.8V84.1z"/>
	<path class="st2" d="M98.6,116.5H64.5c-0.6,0-1.2-0.5-1.2-1.2V92.9c0-5.1,3.7-9.4,8.7-10.3l7.7-1.3c2-0.3,3.6-1.8,4-3.7l0.8-3.1
		c0.1-0.5,0.6-0.9,1.1-0.9h13.4c0.5,0,1,0.4,1.1,0.9l0.8,3.1c0.5,1.9,2.1,3.4,4,3.7l7.7,1.3c0.6,0.1,1.1,0.2,1.7,0.5
		c0.5,0.2,0.8,0.6,0.8,1.1v15.7C115.2,109,107.8,116.5,98.6,116.5z M65.6,114.2h32.9c7.9,0,14.3-6.4,14.3-14.3V85
		c-0.2,0-0.4-0.1-0.5-0.1l-7.7-1.3c-2.9-0.5-5.2-2.6-5.9-5.5l-0.6-2.2H86.6L86,78.1c-0.7,2.8-3,5-5.9,5.5l-7.7,1.3
		c-3.9,0.7-6.8,4-6.8,8V114.2z"/>
	<path class="st3" d="M85.7,74.7l-0.8,3.1c-0.5,1.9-1.8,3.4-3.5,4.2l11,7.9l11-7.9c-1.7-0.8-3-2.3-3.5-4.2l-0.8-3.1H85.7z"/>
	<path class="st2" d="M92.4,91c-0.2,0-0.5-0.1-0.7-0.2l-11-7.9c-0.3-0.2-0.5-0.6-0.5-1.1c0-0.4,0.3-0.8,0.7-0.9
		c1.4-0.6,2.5-1.9,2.8-3.4l0.8-3.1c0.1-0.5,0.6-0.9,1.1-0.9h13.4c0.5,0,1,0.4,1.1,0.9l0.8,3.1c0.4,1.5,1.4,2.7,2.8,3.4
		c0.4,0.2,0.6,0.5,0.7,0.9c0,0.4-0.1,0.8-0.5,1.1l-11,7.9C92.9,90.9,92.6,91,92.4,91z M83.5,82l8.9,6.4l8.9-6.4
		c-1.2-1-2.1-2.4-2.5-3.9l-0.6-2.2H86.6L86,78.1C85.6,79.6,84.7,81,83.5,82z"/>
	<path class="st3" d="M105.6,60.8c0,8.9-5.9,16.1-13.2,16.1c-7.3,0-13.2-7.2-13.2-16.1c0-8.9,5.9-13.6,13.2-13.6
		C99.7,47.1,105.6,51.9,105.6,60.8z"/>
	<path class="st2" d="M92.4,78.1c-7.9,0-14.4-7.8-14.4-17.3C78,51.9,83.8,46,92.4,46c8.6,0,14.4,5.9,14.4,14.8
		C106.8,70.3,100.3,78.1,92.4,78.1z M92.4,48.3c-7.3,0-12.1,4.9-12.1,12.4c0,8.3,5.4,15,12.1,15c6.7,0,12.1-6.7,12.1-15
		C104.5,53.2,99.7,48.3,92.4,48.3z"/>
	<path class="st3" d="M103.6,52.9L103.6,52.9c-1.2,1-3.7,1.9-3.7,1.9l-3.8-2.3V56c-10,3.2-15.6-2.1-15.6-2.1l0,0
		c-0.9,1.9-1.5,4.2-1.5,6.8c0,8.9,5.9,16.1,13.2,16.1c7.3,0,13.2-7.2,13.2-16.1C105.6,57.6,104.9,55,103.6,52.9z"/>
	<path class="st1" d="M103.6,52.9L103.6,52.9c-1.2,1-3.7,1.9-3.7,1.9l-2.2-1.4c1.1,2,1.8,4.4,1.8,7.3c0,7.6-4.3,14-10.1,15.7
		c1,0.3,2,0.5,3.1,0.5c7.3,0,13.2-7.2,13.2-16.1C105.6,57.6,104.9,55,103.6,52.9z"/>
	<path class="st2" d="M92.4,78.1c-7.9,0-14.4-7.8-14.4-17.3c0-2.7,0.5-5.2,1.6-7.3c0.3-0.6,1-0.8,1.6-0.5c0.1,0,0.2,0.1,0.3,0.2
		c0,0,0,0,0,0c0.2,0.2,5,4.5,13.6,2.1v-2.6c0-0.4,0.2-0.8,0.6-1c0.4-0.2,0.8-0.2,1.2,0l3.3,2c0.8-0.3,2.1-0.9,2.8-1.5
		c0.3-0.2,0.6-0.3,0.9-0.3c0.3,0,0.6,0.2,0.8,0.5c1.5,2.4,2.2,5.2,2.2,8.5C106.8,70.3,100.3,78.1,92.4,78.1z M81.1,55.8
		c-0.5,1.5-0.8,3.2-0.8,5c0,8.3,5.4,15,12.1,15c6.7,0,12.1-6.7,12.1-15c0-2.3-0.4-4.4-1.3-6.2c-1.2,0.7-2.7,1.2-2.9,1.3
		c-0.3,0.1-0.7,0.1-1-0.1l-2-1.2V56c0,0.5-0.3,1-0.8,1.1C88.7,59.6,83.4,57.2,81.1,55.8z"/>
	<path class="st2" d="M92.4,116.5c-0.6,0-1.2-0.5-1.2-1.2V89.8c0-0.6,0.5-1.2,1.2-1.2c0.6,0,1.2,0.5,1.2,1.2v25.5
		C93.5,116,93,116.5,92.4,116.5z"/>
	<path class="st3" d="M70.7,109.9c0-4.5-3.3-8.4-7.7-9.2l-7.7-1.3c-2.4-0.4-4.4-2.2-5-4.6l-0.8-3.1H36.1l-0.8,3.1
		c-0.6,2.4-2.5,4.2-5,4.6l-7.7,1.3c-2.9,0.5-5.3,2.3-6.6,4.8c2.3,5.7,7.9,9.8,14.4,9.8h40.3V109.9z"/>
	<path class="st1" d="M70.7,109.9c0-4.5-3.3-8.4-7.7-9.2l-7.7-1.3c-2.4-0.4-4.4-2.2-5-4.6l-0.8-3.1H36.1l-0.8,3.1
		c-0.6,2.4-2.5,4.2-5,4.6l-7.7,1.3c-2.2,0.4-4.1,1.6-5.5,3.2l34.8,4.8c4.6,0.6,8.6,3,11.3,6.5h7.5V109.9z"/>
	<path class="st2" d="M70.7,116.5H30.4c-6.8,0-12.9-4.1-15.5-10.5c-0.1-0.3-0.1-0.7,0.1-1c1.5-2.9,4.2-4.9,7.4-5.4l7.7-1.3
		c2-0.3,3.6-1.8,4-3.7l0.8-3.1c0.1-0.5,0.6-0.9,1.1-0.9h13.4c0.5,0,1,0.4,1.1,0.9l0.8,3.1c0.5,1.9,2.1,3.4,4,3.7l7.7,1.3
		c5,0.9,8.7,5.2,8.7,10.3v5.4C71.8,116,71.3,116.5,70.7,116.5z M17.3,105.7c2.3,5.2,7.4,8.5,13.1,8.5h39.1v-4.2c0-4-2.8-7.3-6.8-8
		l-7.7-1.3c-2.9-0.5-5.2-2.6-5.9-5.5l-0.6-2.2H37l-0.6,2.2c-0.7,2.8-3,5-5.9,5.5l-7.7,1.3C20.5,102.3,18.5,103.7,17.3,105.7z"/>
	<path class="st3" d="M36.1,91.7l-0.8,3.1c-0.5,1.9-1.8,3.4-3.5,4.2c0,0,7.6,4.8,11,4.8c3.4,0,11-4.8,11-4.8c-1.7-0.8-3-2.3-3.5-4.2
		l-0.8-3.1H36.1z"/>
	<path class="st2" d="M42.8,104.9c-3.6,0-10.8-4.4-11.6-4.9c-0.4-0.2-0.6-0.6-0.5-1.1c0-0.4,0.3-0.8,0.7-1c1.4-0.6,2.5-1.9,2.8-3.4
		l0.8-3.1c0.1-0.5,0.6-0.9,1.1-0.9h13.4c0.5,0,1,0.4,1.1,0.9l0.8,3.1c0.4,1.5,1.4,2.7,2.8,3.4c0.4,0.2,0.7,0.6,0.7,1
		c0,0.4-0.2,0.8-0.5,1.1C53.6,100.5,46.4,104.9,42.8,104.9L42.8,104.9z M34,99c2.6,1.5,6.8,3.6,8.8,3.6h0c2,0,6.1-2.1,8.7-3.6
		c-1.2-1-2-2.3-2.4-3.8l-0.6-2.2H37l-0.6,2.2C36.1,96.6,35.2,98,34,99z"/>
	<path class="st3" d="M56,77.8c0,8.9-5.9,16.1-13.2,16.1c-7.3,0-13.2-7.2-13.2-16.1c0-8.9,5.9-13.6,13.2-13.6
		C50.1,64.2,56,68.9,56,77.8z"/>
	<path class="st2" d="M42.8,95.1c-7.9,0-14.4-7.8-14.4-17.3C28.4,69,34.2,63,42.8,63c8.6,0,14.4,5.9,14.4,14.8
		C57.2,87.3,50.7,95.1,42.8,95.1z M42.8,65.4c-7.3,0-12.1,4.9-12.1,12.4c0,8.3,5.4,15,12.1,15c6.7,0,12.1-6.7,12.1-15
		C54.9,70.2,50.1,65.4,42.8,65.4z"/>
	<path class="st3" d="M30.4,72.6c-0.5,1.5-0.8,3.3-0.8,5.2c0,8.9,5.9,16.1,13.2,16.1c7.3,0,13.2-7.2,13.2-16.1
		c0-2.3-0.4-4.4-1.1-6.1c-2.7,0.6-5.6,1.7-9.5,2.7C39.1,76,33.2,73.9,30.4,72.6z"/>
	<path class="st1" d="M54.9,71.7c-1.7,0.4-3.5,1-5.7,1.6c0.4,1.4,0.6,2.8,0.6,4.5c0,7.6-4.3,14-10.1,15.7c1,0.3,2,0.5,3.1,0.5
		c7.3,0,13.2-7.2,13.2-16.1C56,75.5,55.6,73.4,54.9,71.7z"/>
	<path class="st2" d="M42.8,95.1c-7.9,0-14.4-7.8-14.4-17.3c0-2,0.3-3.9,0.9-5.6c0.1-0.3,0.3-0.6,0.6-0.7c0.3-0.1,0.6-0.1,0.9,0
		c2.8,1.3,8.4,3.2,14.3,1.7c1.9-0.5,3.6-1,5-1.4c1.6-0.5,3.1-1,4.5-1.3c0.5-0.1,1.1,0.2,1.3,0.7c0.8,2,1.2,4.2,1.2,6.6
		C57.2,87.3,50.7,95.1,42.8,95.1z M31.1,74.2c-0.3,1.1-0.4,2.4-0.4,3.6c0,8.3,5.4,15,12.1,15c6.7,0,12.1-6.7,12.1-15
		c0-1.7-0.2-3.3-0.7-4.7c-1,0.3-2.1,0.6-3.4,1c-1.5,0.5-3.2,1-5.2,1.5C39.9,77,34.4,75.5,31.1,74.2z"/>
	<path class="st3" d="M16.1,20.4h-2.1c-0.6,0-1.2-0.5-1.2-1.2s0.5-1.2,1.2-1.2h2.1c0.6,0,1.2,0.5,1.2,1.2S16.7,20.4,16.1,20.4z"/>
	<path class="st3" d="M23.2,20.4h-2.1c-0.6,0-1.2-0.5-1.2-1.2s0.5-1.2,1.2-1.2h2.1c0.6,0,1.2,0.5,1.2,1.2S23.9,20.4,23.2,20.4z"/>
	<path class="st3" d="M18.6,25.1c-0.6,0-1.2-0.5-1.2-1.2v-2.1c0-0.6,0.5-1.2,1.2-1.2c0.6,0,1.2,0.5,1.2,1.2v2.1
		C19.7,24.5,19.2,25.1,18.6,25.1z"/>
	<path class="st3" d="M18.6,17.9c-0.6,0-1.2-0.5-1.2-1.2v-2.1c0-0.6,0.5-1.2,1.2-1.2c0.6,0,1.2,0.5,1.2,1.2v2.1
		C19.7,17.4,19.2,17.9,18.6,17.9z"/>
	<path class="st3" d="M83.6,18.5h-2.1c-0.6,0-1.2-0.5-1.2-1.2c0-0.6,0.5-1.2,1.2-1.2h2.1c0.6,0,1.2,0.5,1.2,1.2
		C84.8,18,84.2,18.5,83.6,18.5z"/>
	<path class="st3" d="M90.8,18.5h-2.1c-0.6,0-1.2-0.5-1.2-1.2c0-0.6,0.5-1.2,1.2-1.2h2.1c0.6,0,1.2,0.5,1.2,1.2
		C91.9,18,91.4,18.5,90.8,18.5z"/>
	<path class="st3" d="M86.1,23.1c-0.6,0-1.2-0.5-1.2-1.2v-2.1c0-0.6,0.5-1.2,1.2-1.2c0.6,0,1.2,0.5,1.2,1.2V22
		C87.3,22.6,86.7,23.1,86.1,23.1z"/>
	<path class="st3" d="M86.1,16c-0.6,0-1.2-0.5-1.2-1.2v-2.1c0-0.6,0.5-1.2,1.2-1.2c0.6,0,1.2,0.5,1.2,1.2v2.1
		C87.3,15.4,86.7,16,86.1,16z"/>
</g>
</svg>
