<?xml version="1.0" encoding="utf-8"?>
<!-- Generator: Adobe Illustrator 24.0.3, SVG Export Plug-In . SVG Version: 6.00 Build 0)  -->
<svg version="1.1" id="layer_1" xmlns="http://www.w3.org/2000/svg" xmlns:xlink="http://www.w3.org/1999/xlink" x="0px" y="0px"
	 viewBox="0 0 128 128" style="enable-background:new 0 0 128 128;" xml:space="preserve">
<style type="text/css">
	.st0{opacity:0.2;}
	.st1{fill:#FFFFFF;}
	.st2{opacity:0.2;fill:#0090D5;}
	.st3{fill:#21365F;}
	.st4{fill:#0090D5;}
</style>
<g class="st0">
	<circle class="st1" cx="95.6" cy="40.1" r="19.3"/>
</g>
<g class="st0">
	<circle class="st1" cx="34.8" cy="99.9" r="16.6"/>
</g>
<g class="st0">
	<circle class="st1" cx="40.7" cy="39.1" r="27.6"/>
</g>
<g>
	<circle class="st1" cx="64.6" cy="47.7" r="27.6"/>
</g>
<g>
	<path class="st2" d="M92.2,47.7c0-5-1.4-9.8-3.7-13.8c-4.1-2.4-8.8-3.7-13.8-3.7C59.4,30.2,47,42.5,47,57.8c0,5,1.4,9.8,3.7,13.8
		c4.1,2.4,8.8,3.7,13.8,3.7C79.8,75.3,92.2,63,92.2,47.7z"/>
</g>
<g>
	<path class="st3" d="M64.6,76.4c-15.8,0-28.6-12.8-28.6-28.6s12.8-28.6,28.6-28.6c15.8,0,28.6,12.8,28.6,28.6S80.3,76.4,64.6,76.4z
		 M64.6,21.2C49.9,21.2,38,33.1,38,47.7c0,14.7,11.9,26.6,26.6,26.6c14.6,0,26.6-11.9,26.6-26.6C91.1,33.1,79.2,21.2,64.6,21.2z"/>
</g>
<g>
	<path class="st1" d="M84.6,47.7c0,11.1-9,20.1-20.1,20.1c-11.1,0-20.1-9-20.1-20.1s9-20.1,20.1-20.1C75.6,27.7,84.6,36.6,84.6,47.7
		z"/>
</g>
<g class="st0">
	<path class="st4" d="M84.6,47.7c0-2.9-0.6-5.7-1.8-8.2c-2.5-1.1-5.3-1.8-8.2-1.8c-11.1,0-20.1,9-20.1,20.1c0,2.9,0.6,5.7,1.8,8.3
		c2.5,1.1,5.3,1.8,8.3,1.8C75.6,67.8,84.6,58.8,84.6,47.7z"/>
</g>
<g>
	<path class="st3" d="M64.6,68.8c-11.6,0-21.1-9.5-21.1-21.1c0-11.6,9.5-21.1,21.1-21.1c11.6,0,21.1,9.5,21.1,21.1
		C85.7,59.4,76.2,68.8,64.6,68.8z M64.6,28.7c-10.5,0-19,8.5-19,19c0,10.5,8.5,19,19,19c10.5,0,19-8.5,19-19
		C83.6,37.2,75.1,28.7,64.6,28.7z"/>
</g>
<g>
	<path class="st3" d="M78.1,55.4c-0.2,0-0.3,0-0.5-0.1c-0.5-0.3-0.7-0.9-0.5-1.4c0.9-1.9,1.4-4,1.4-6.1c0-2.2-0.5-4.2-1.4-6.1
		c-0.3-0.5,0-1.1,0.5-1.4c0.5-0.3,1.1,0,1.4,0.5c1.1,2.2,1.6,4.6,1.6,7c0,2.5-0.5,4.8-1.6,7C78.8,55.1,78.5,55.4,78.1,55.4z"/>
</g>
<g>
	<path class="st3" d="M51,55.4c-0.4,0-0.8-0.2-0.9-0.6c-1.1-2.2-1.6-4.6-1.6-7s0.5-4.8,1.6-7c0.3-0.5,0.9-0.7,1.4-0.5
		c0.5,0.3,0.7,0.9,0.5,1.4c-0.9,1.9-1.4,4-1.4,6.1s0.5,4.2,1.4,6.1c0.2,0.5,0,1.1-0.5,1.4C51.3,55.3,51.2,55.4,51,55.4z"/>
</g>
<g>
	<circle class="st3" cx="64.6" cy="71.6" r="1"/>
</g>
<g>
	<circle class="st3" cx="64.6" cy="23.9" r="1"/>
</g>
<g>
	<circle class="st3" cx="88.4" cy="47.7" r="1"/>
</g>
<g>
	<circle class="st3" cx="40.7" cy="47.7" r="1"/>
</g>
<g>
	<path class="st3" d="M80.7,63.9c0.4-0.4,1.1-0.4,1.5,0c0.4,0.4,0.4,1.1,0,1.5s-1.1,0.4-1.5,0C80.3,64.9,80.3,64.3,80.7,63.9z"/>
</g>
<g>
	<path class="st3" d="M47,30.1c0.4-0.4,1.1-0.4,1.5,0c0.4,0.4,0.4,1.1,0,1.5C48,32,47.4,32,47,31.6C46.6,31.2,46.6,30.5,47,30.1z"/>
</g>
<g>
	<path class="st3" d="M80.7,31.6c-0.4-0.4-0.4-1.1,0-1.5c0.4-0.4,1.1-0.4,1.5,0c0.4,0.4,0.4,1.1,0,1.5S81.1,32,80.7,31.6z"/>
</g>
<g>
	<path class="st3" d="M47,65.3c-0.4-0.4-0.4-1.1,0-1.5c0.4-0.4,1.1-0.4,1.5,0c0.4,0.4,0.4,1.1,0,1.5C48,65.7,47.4,65.7,47,65.3z"/>
</g>
<g>
	<path class="st3" d="M85.6,56.5c0.2-0.5,0.8-0.8,1.4-0.6c0.5,0.2,0.8,0.8,0.6,1.4c-0.2,0.5-0.8,0.8-1.4,0.6
		C85.7,57.6,85.4,57,85.6,56.5z"/>
</g>
<g>
	<path class="st3" d="M41.6,38.2c0.2-0.5,0.8-0.8,1.4-0.6c0.5,0.2,0.8,0.8,0.6,1.4c-0.2,0.5-0.8,0.8-1.4,0.6
		C41.6,39.3,41.4,38.7,41.6,38.2z"/>
</g>
<g>
	<path class="st3" d="M73.3,26.7c-0.5-0.2-0.8-0.8-0.6-1.4c0.2-0.5,0.8-0.8,1.4-0.6c0.5,0.2,0.8,0.8,0.6,1.4
		C74.4,26.6,73.8,26.9,73.3,26.7z"/>
</g>
<g>
	<path class="st3" d="M55,70.7c-0.5-0.2-0.8-0.8-0.6-1.4c0.2-0.5,0.8-0.8,1.4-0.6c0.5,0.2,0.8,0.8,0.6,1.4
		C56.2,70.7,55.6,70.9,55,70.7z"/>
</g>
<g>
	<path class="st3" d="M85.6,39c-0.2-0.5,0-1.1,0.6-1.4c0.5-0.2,1.1,0,1.4,0.6c0.2,0.5,0,1.1-0.6,1.4C86.5,39.8,85.8,39.5,85.6,39z"
		/>
</g>
<g>
	<path class="st3" d="M41.6,57.2c-0.2-0.5,0-1.1,0.6-1.4c0.5-0.2,1.1,0,1.4,0.6c0.2,0.5,0,1.1-0.6,1.4C42.4,58,41.8,57.8,41.6,57.2z
		"/>
</g>
<g>
	<path class="st3" d="M55.8,26.7c-0.5,0.2-1.1,0-1.4-0.6c-0.2-0.5,0-1.1,0.6-1.4c0.5-0.2,1.1,0,1.4,0.6
		C56.6,25.8,56.4,26.4,55.8,26.7z"/>
</g>
<g>
	<path class="st3" d="M74.1,70.7c-0.5,0.2-1.1,0-1.4-0.6c-0.2-0.5,0-1.1,0.6-1.4c0.5-0.2,1.1,0,1.4,0.6
		C74.9,69.9,74.6,70.5,74.1,70.7z"/>
</g>
<g>
	<path class="st1" d="M102.2,47L102.2,47c1.5,1,2.4,2.7,2.3,4.4l-1.1,19.7l-9.1-1.3l0.7-6.5c1.6-7.5,0.8-12.7,1.9-15.2
		C98,45.7,100.5,45.7,102.2,47z"/>
</g>
<g>
	<path class="st2" d="M104.5,51.5c0-0.8-0.1-1.5-0.4-2.2c-1.6-0.7-3.5-0.4-4.3,1.6c-1.1,2.6-0.4,7.7-1.9,15.2l-0.5,4.2l6.1,0.9
		L104.5,51.5z"/>
</g>
<g>
	<path class="st3" d="M103.4,72.2c0,0-0.1,0-0.2,0l-9.1-1.3c-0.6-0.1-0.9-0.6-0.9-1.1l0.7-6.5c0.8-3.9,1-7.2,1.2-9.8
		c0.1-2.4,0.3-4.4,0.9-5.8c0.5-1.3,1.5-2.1,2.7-2.4c1.3-0.3,2.8,0,4,0.9c1.8,1.2,2.8,3.2,2.7,5.3l-1.1,19.7c0,0.3-0.2,0.6-0.4,0.7
		C103.9,72.1,103.7,72.2,103.4,72.2z M95.5,69l7,1l1-18.6c0.1-1.4-0.6-2.7-1.8-3.5c0,0,0,0-0.1,0c-0.7-0.6-1.6-0.8-2.3-0.6
		c-0.6,0.2-1,0.6-1.3,1.3c-0.5,1.1-0.6,2.8-0.7,5.1c-0.2,2.7-0.3,6-1.2,10L95.5,69z"/>
</g>
<g>
	<path class="st1" d="M103.3,44.3c-2.4,1.2,0.1,8.6-3.4,23.3c0.1-2.1-0.6-3.2-1.6-3.7c-4.4-2.3-5.9,1.7-5.9,1.7
		c-8.7,20.2-6.7,2.8-19,30l17.6,7.8c0,0,23.6-25.5,16.2-56C107.3,47.4,106.5,42.8,103.3,44.3z"/>
</g>
<g>
	<path class="st2" d="M108,51c-0.5-0.2-1.1-0.2-1.9,0.2c-2.4,1.2,0.1,8.6-3.4,23.3c0.1-2.1-0.6-3.2-1.6-3.7
		c-4.4-2.3-5.9,1.7-5.9,1.7c-8.2,18.9-6.9,4.9-16.8,25.3l12.6,5.6C91.1,103.5,112.8,80,108,51z"/>
</g>
<g>
	<path class="st3" d="M91.1,104.5c-0.1,0-0.3,0-0.4-0.1l-17.6-7.8c-0.3-0.1-0.4-0.3-0.5-0.6c-0.1-0.3-0.1-0.5,0-0.8
		c6.7-14.8,9.3-16.7,11.6-18.4c1.8-1.3,3.4-2.5,7.4-11.6c0,0,0.8-2,2.8-2.8c1.4-0.5,2.9-0.3,4.6,0.6c0.3,0.2,0.6,0.4,0.9,0.6
		c1.1-5.9,1.2-10.4,1.3-13.5c0.1-3.8,0.2-5.9,1.9-6.8l0,0c1.3-0.7,2.4-0.4,3-0.1c1.9,1,2.4,3.7,2.4,4c7.4,30.7-16.3,56.7-16.5,56.9
		C91.6,104.4,91.3,104.5,91.1,104.5z M74.8,95.1l15.9,7.1c3.3-3.9,22.1-27.3,15.5-54.5c-0.1-0.7-0.6-2.2-1.4-2.5
		c-0.1-0.1-0.4-0.2-1.1,0.1l0,0c-0.6,0.3-0.6,2.6-0.7,5c-0.1,3.9-0.3,9.7-2.2,17.7c-0.1,0.5-0.6,0.9-1.2,0.8
		c-0.5-0.1-0.9-0.5-0.9-1.1c0.1-2.1-0.7-2.6-1-2.7c-1.1-0.6-2.1-0.7-2.9-0.5c-1.1,0.4-1.6,1.6-1.6,1.6c-4.2,9.7-6,11-8.1,12.5
		C83.3,80,81,81.7,74.8,95.1z M103.3,44.3L103.3,44.3L103.3,44.3z"/>
</g>
<g>
	<path class="st3" d="M93.4,83.8c-0.2,0-0.4,0-0.5-0.2c-0.5-0.3-0.6-0.9-0.3-1.4c5.1-8.3,6.3-12.6,6.4-14.8c0-0.6,0.5-1,1.1-1
		c0.6,0,1,0.5,1,1.1c-0.2,3.5-2.4,8.8-6.7,15.8C94.1,83.6,93.7,83.8,93.4,83.8z"/>
</g>
<g>
	<path class="st1" d="M26.9,46.9L26.9,46.9c-1.5,1-2.4,2.7-2.3,4.4l1.1,19.7l9.1-1.3L34,63.2c-1.6-7.5-0.8-12.7-1.9-15.2
		C31.1,45.6,28.6,45.6,26.9,46.9z"/>
</g>
<g>
	<path class="st2" d="M34,63.2c-1.5-7.1-0.9-12.1-1.8-14.8c-1.4,1-2.2,2.6-2.1,4.3l0.9,17.6l3.7-0.5L34,63.2z"/>
</g>
<g>
	<path class="st3" d="M25.7,72.2c-0.2,0-0.5-0.1-0.7-0.2c-0.2-0.2-0.4-0.5-0.4-0.7l-1.1-19.7c-0.1-2.1,0.9-4.2,2.7-5.3
		c1.2-0.9,2.7-1.3,4-0.9c1.2,0.3,2.2,1.2,2.7,2.4c0.6,1.4,0.7,3.3,0.9,5.8c0.2,2.6,0.3,5.8,1.2,9.7l0.7,6.6c0.1,0.6-0.3,1.1-0.9,1.1
		l-9.1,1.3C25.8,72.2,25.7,72.2,25.7,72.2z M29.3,47.2c-0.6,0-1.2,0.2-1.8,0.7c0,0,0,0-0.1,0c-1.2,0.8-1.9,2.1-1.8,3.5l1,18.6l7-1
		L33,63.4c-0.8-3.9-1-7.2-1.2-9.9c-0.1-2.2-0.2-4-0.7-5.1c-0.3-0.7-0.7-1.1-1.3-1.3C29.7,47.2,29.5,47.2,29.3,47.2z M26.9,47
		L26.9,47L26.9,47z"/>
</g>
<g>
	<path class="st1" d="M25.8,44.3c2.4,1.2-0.1,8.6,3.4,23.3c-0.1-2.1,0.6-3.2,1.6-3.7c4.4-2.3,5.9,1.7,5.9,1.7
		c8.7,20.2,6.7,2.8,19,30l-17.6,7.8c0,0-23.6-25.5-16.2-56C21.8,47.4,22.6,42.8,25.8,44.3z"/>
</g>
<g>
	<path class="st2" d="M36.7,65.6c0,0-0.9-2.3-3.3-2.4C36,81,46.5,94.6,49.6,98.3l6-2.7C43.3,68.4,45.4,85.8,36.7,65.6z"/>
</g>
<g>
	<path class="st3" d="M38.1,104.5c-0.3,0-0.6-0.1-0.8-0.3c-0.2-0.3-23.9-26.3-16.5-57c0-0.2,0.6-3,2.4-3.9c0.6-0.3,1.7-0.6,3,0.1
		c1.7,0.8,1.8,2.9,1.9,6.8c0.1,3.1,0.2,7.6,1.3,13.5c0.3-0.3,0.6-0.5,0.9-0.6c1.7-0.9,3.2-1.1,4.6-0.6c2,0.7,2.8,2.7,2.8,2.8
		c3.9,9.1,5.5,10.2,7.3,11.6c2.3,1.7,4.9,3.6,11.6,18.4c0.1,0.3,0.1,0.5,0,0.8c-0.1,0.3-0.3,0.5-0.5,0.6l-17.6,7.8
		C38.3,104.5,38.2,104.5,38.1,104.5z M24.6,45c-0.2,0-0.3,0-0.4,0.1c-0.8,0.4-1.2,1.8-1.3,2.5C16.3,74.9,35,98.4,38.3,102.2
		l15.9-7.1C48.1,81.7,45.8,80,43.8,78.5c-2.1-1.5-3.9-2.8-8-12.5c0,0-0.5-1.2-1.6-1.6c-0.8-0.3-1.7-0.1-2.9,0.5
		c-0.3,0.1-1.1,0.6-1,2.7c0,0.5-0.4,1-0.9,1.1c-0.5,0.1-1-0.3-1.2-0.8c-1.9-7.9-2.1-13.8-2.2-17.7c-0.1-2.4-0.1-4.7-0.7-5l0,0
		C25,45.1,24.8,45,24.6,45z"/>
</g>
<g>
	<path class="st3" d="M35.7,83.8c-0.3,0-0.7-0.2-0.9-0.5c-4.3-7-6.5-12.3-6.7-15.8c0-0.6,0.4-1.1,1-1.1c0.6-0.1,1.1,0.4,1.1,1
		c0.1,2.2,1.3,6.5,6.4,14.8c0.3,0.5,0.1,1.1-0.3,1.4C36.1,83.7,35.9,83.8,35.7,83.8z"/>
</g>
<g>
	<path class="st1" d="M96.8,32.2h-1.9c-0.6,0-1-0.5-1-1c0-0.6,0.5-1,1-1h1.9c0.6,0,1,0.5,1,1C97.9,31.7,97.4,32.2,96.8,32.2z"/>
</g>
<g>
	<path class="st1" d="M103.2,32.2h-1.9c-0.6,0-1-0.5-1-1c0-0.6,0.5-1,1-1h1.9c0.6,0,1,0.5,1,1C104.2,31.7,103.8,32.2,103.2,32.2z"/>
</g>
<g>
	<path class="st1" d="M99.1,36.3c-0.6,0-1-0.5-1-1v-1.9c0-0.6,0.5-1,1-1c0.6,0,1,0.5,1,1v1.9C100.1,35.9,99.6,36.3,99.1,36.3z"/>
</g>
<g>
	<path class="st1" d="M99.1,30c-0.6,0-1-0.5-1-1V27c0-0.6,0.5-1,1-1c0.6,0,1,0.5,1,1v1.9C100.1,29.5,99.6,30,99.1,30z"/>
</g>
<g>
	<path class="st1" d="M34.7,25.3h-1.9c-0.6,0-1-0.5-1-1s0.5-1,1-1h1.9c0.6,0,1,0.5,1,1S35.3,25.3,34.7,25.3z"/>
</g>
<g>
	<path class="st1" d="M41.1,25.3h-1.9c-0.6,0-1-0.5-1-1s0.5-1,1-1h1.9c0.6,0,1,0.5,1,1S41.7,25.3,41.1,25.3z"/>
</g>
<g>
	<path class="st1" d="M37,29.4c-0.6,0-1-0.5-1-1v-1.9c0-0.6,0.5-1,1-1c0.6,0,1,0.5,1,1v1.9C38,29,37.5,29.4,37,29.4z"/>
</g>
<g>
	<path class="st1" d="M37,23.1c-0.6,0-1-0.5-1-1v-1.9c0-0.6,0.5-1,1-1c0.6,0,1,0.5,1,1V22C38,22.6,37.5,23.1,37,23.1z"/>
</g>
<g>
	<path class="st1" d="M22.3,35h-1.9c-0.6,0-1-0.5-1-1c0-0.6,0.5-1,1-1h1.9c0.6,0,1,0.5,1,1C23.3,34.5,22.9,35,22.3,35z"/>
</g>
<g>
	<path class="st1" d="M28.7,35h-1.9c-0.6,0-1-0.5-1-1c0-0.6,0.5-1,1-1h1.9c0.6,0,1,0.5,1,1C29.7,34.5,29.2,35,28.7,35z"/>
</g>
<g>
	<path class="st1" d="M24.5,39.1c-0.6,0-1-0.5-1-1v-1.9c0-0.6,0.5-1,1-1c0.6,0,1,0.5,1,1v1.9C25.6,38.6,25.1,39.1,24.5,39.1z"/>
</g>
<g>
	<path class="st1" d="M24.5,32.7c-0.6,0-1-0.5-1-1v-1.9c0-0.6,0.5-1,1-1c0.6,0,1,0.5,1,1v1.9C25.6,32.3,25.1,32.7,24.5,32.7z"/>
</g>
<g>
	<polygon class="st1" points="73,91.4 70.7,108.5 95.2,108.5 97.5,98.5 	"/>
</g>
<g>
	<path class="st2" d="M96.6,102.2l-15-4.4c-1.6-0.5-3.3,0.6-3.5,2.3l-1.1,8.3h18.2L96.6,102.2z"/>
</g>
<g>
	<path class="st3" d="M95.2,109.5H70.7c-0.3,0-0.6-0.1-0.8-0.4c-0.2-0.2-0.3-0.5-0.2-0.8l2.3-17c0-0.3,0.2-0.6,0.5-0.7
		c0.3-0.2,0.6-0.2,0.9-0.1l24.4,7.1c0.5,0.2,0.8,0.7,0.7,1.2l-2.3,9.9C96.1,109.2,95.7,109.5,95.2,109.5z M71.9,107.4h22.5l1.9-8.2
		l-22.3-6.5L71.9,107.4z"/>
</g>
<g>
	<path class="st3" d="M89.9,102c0.7,0.2,1.1,1,0.9,1.7s-1,1.1-1.7,0.9c-0.7-0.2-1.1-1-0.9-1.7C88.4,102.2,89.2,101.8,89.9,102z"/>
</g>
<g>
	<polygon class="st1" points="56.1,91.4 58.4,108.5 33.9,108.5 31.6,98.5 	"/>
</g>
<g>
	<path class="st2" d="M56.8,97l-17.2,5c-1.4,0.4-2.2,1.8-1.9,3.3l0.7,3.2h19.9L56.8,97z"/>
</g>
<g>
	<path class="st3" d="M58.4,109.5H33.9c-0.5,0-0.9-0.3-1-0.8l-2.3-9.9c-0.1-0.5,0.2-1.1,0.7-1.2l24.4-7.1c0.3-0.1,0.6,0,0.9,0.1
		c0.3,0.2,0.4,0.4,0.5,0.7l2.3,17c0,0.3,0,0.6-0.2,0.8C59,109.4,58.7,109.5,58.4,109.5z M34.7,107.4h22.5l-2-14.7l-22.3,6.5
		L34.7,107.4z"/>
</g>
<g>
	<path class="st3" d="M51.6,102c-0.7,0.2-1.1,1-0.9,1.7c0.2,0.7,1,1.1,1.7,0.9c0.7-0.2,1.1-1,0.9-1.7
		C53.1,102.2,52.3,101.8,51.6,102z"/>
</g>
<g>
	<path class="st3" d="M62.1,57.4h1.8v1h-3.3v-0.8l1.8-2.9h-1.7v-1h3.2v0.7L62.1,57.4z"/>
	<path class="st3" d="M66.1,54.5l0.5-0.2V55l-0.5,0.2v3.2h-1.2v-2.7l-0.4,0.2v-0.7l0.4-0.2v-3.1h1.2V54.5z"/>
</g>
<g>
	<path class="st3" d="M68.3,48.9h-8.1V47l3.7-4.7c0.5-0.7,0.8-1.2,1-1.7c0.2-0.5,0.3-1,0.3-1.4c0-0.6-0.1-1.1-0.3-1.4
		c-0.2-0.3-0.5-0.5-0.9-0.5c-0.4,0-0.8,0.2-1,0.6c-0.3,0.4-0.4,1-0.4,1.7H60c0-0.8,0.2-1.6,0.5-2.3c0.4-0.7,0.8-1.2,1.5-1.6
		c0.6-0.4,1.4-0.6,2.2-0.6c1.2,0,2.2,0.3,2.9,1c0.7,0.7,1,1.6,1,2.9c0,0.8-0.2,1.6-0.6,2.4c-0.4,0.8-1.1,1.8-2,2.9l-1.8,2.5h4.7
		V48.9z"/>
</g>
</svg>
