<?xml version="1.0" encoding="utf-8"?>
<!-- Generator: Adobe Illustrator 24.0.3, SVG Export Plug-In . SVG Version: 6.00 Build 0)  -->
<svg version="1.1" id="layer_1" xmlns="http://www.w3.org/2000/svg" xmlns:xlink="http://www.w3.org/1999/xlink" x="0px" y="0px"
	 viewBox="0 0 128 128" style="enable-background:new 0 0 128 128;" xml:space="preserve">
<style type="text/css">
	.st0{opacity:0.2;}
	.st1{fill:#FFFFFF;}
	.st2{fill:#0090D5;}
	.st3{opacity:0.2;fill:#0090D5;}
	.st4{fill:#21365F;}
</style>
<g class="st0">
	<circle class="st1" cx="67.4" cy="31.8" r="20.3"/>
</g>
<g class="st0">
	<circle class="st1" cx="27.2" cy="73.3" r="17.4"/>
</g>
<g class="st0">
	<circle class="st1" cx="89.1" cy="85.8" r="29"/>
</g>
<g>
	<path class="st1" d="M94.3,54.4c0-18.2-15.3-32.9-33.7-31.9C44.2,23.4,31,37,30.4,53.4c-0.3,9.5,3.5,18,9.8,24.1
		c3.5,3.4,5.4,8.1,5.4,12.9v1.8h33.5V90c0-4.9,2.1-9.4,5.6-12.8C90.6,71.4,94.3,63.4,94.3,54.4z"/>
</g>
<g class="st0">
	<path class="st2" d="M79.1,90c0-4.9,2.1-9.4,5.6-12.8c5.9-5.8,9.6-13.9,9.6-22.8c0-0.2,0-0.4,0-0.6c-2.7-12.5-14.1-21.7-27.5-21
		C53.1,33.6,42,45,41.6,58.6c-0.3,7.9,2.9,15.1,8.2,20.1c2.9,2.8,4.5,6.7,4.5,10.8v2.7h24.8V90z"/>
</g>
<g>
	<path class="st1" d="M74,103.8H50.7c-1.6,0-2.9-1.3-2.9-2.9l0,0c0-1.6,1.3-2.9,2.9-2.9H74c1.6,0,2.9,1.3,2.9,2.9l0,0
		C76.9,102.5,75.6,103.8,74,103.8z"/>
</g>
<g>
	<path class="st1" d="M74,109.6H50.7c-1.6,0-2.9-1.3-2.9-2.9l0,0c0-1.6,1.3-2.9,2.9-2.9H74c1.6,0,2.9,1.3,2.9,2.9l0,0
		C76.9,108.3,75.6,109.6,74,109.6z"/>
</g>
<g>
	<path class="st1" d="M74.9,98h-25c-1.1,0-2-0.9-2-2v-3.8h29V96C76.9,97.1,76,98,74.9,98z"/>
</g>
<g>
	<path class="st3" d="M73.9,103.8h-7.2c-1.6,0-2.9-1.3-2.9-2.9l0,0c0-1.6,1.3-2.9,2.9-2.9h7.2c1.6,0,2.9,1.3,2.9,2.9l0,0
		C76.8,102.5,75.5,103.8,73.9,103.8z"/>
</g>
<g>
	<path class="st3" d="M73.9,109.6H62.4c-1.6,0-2.9-1.3-2.9-2.9l0,0c0-1.6,1.3-2.9,2.9-2.9h11.5c1.6,0,2.9,1.3,2.9,2.9l0,0
		C76.8,108.3,75.5,109.6,73.9,109.6z"/>
</g>
<g>
	<path class="st3" d="M74.9,98H57.1c-1.1,0-2-0.9-2-2v-3.8h21.8V96C76.9,97.1,76,98,74.9,98z"/>
</g>
<g>
	<path class="st4" d="M79.1,93.3H45.6c-0.6,0-1.1-0.5-1.1-1.1v-1.8c0-4.6-1.8-9.1-5-12.1C32.7,71.8,29,62.7,29.3,53.3
		c0.5-17,14.3-31,31.2-31.9c9.2-0.5,17.9,2.7,24.5,9c6.7,6.3,10.3,14.8,10.3,24c0,8.9-3.5,17.3-9.9,23.6c-3.4,3.3-5.3,7.6-5.3,12
		v2.2C80.2,92.8,79.7,93.3,79.1,93.3z M46.7,91.1H78V90c0-5,2.1-9.8,5.9-13.6c6-5.8,9.3-13.7,9.3-22c0-8.6-3.4-16.5-9.6-22.4
		c-6.2-5.9-14.4-8.9-22.9-8.4C44.8,24.5,32,37.5,31.5,53.4c-0.3,8.7,3.2,17.2,9.5,23.2c3.6,3.5,5.7,8.5,5.7,13.7V91.1z"/>
</g>
<g>
	<path class="st4" d="M74,104.9H50.7c-2.2,0-4-1.8-4-4c0-2.2,1.8-4,4-4H74c2.2,0,4,1.8,4,4C78,103.1,76.2,104.9,74,104.9z
		 M50.7,99.1c-1,0-1.8,0.8-1.8,1.8c0,1,0.8,1.8,1.8,1.8H74c1,0,1.8-0.8,1.8-1.8c0-1-0.8-1.8-1.8-1.8H50.7z"/>
</g>
<g>
	<path class="st4" d="M74,110.7H50.7c-2.2,0-4-1.8-4-4s1.8-4,4-4H74c2.2,0,4,1.8,4,4S76.2,110.7,74,110.7z M50.7,104.9
		c-1,0-1.8,0.8-1.8,1.8c0,1,0.8,1.8,1.8,1.8H74c1,0,1.8-0.8,1.8-1.8c0-1-0.8-1.8-1.8-1.8H50.7z"/>
</g>
<g>
	<path class="st4" d="M74,99.1H50.7c-2.2,0-4-1.8-4-4v-2.9c0-0.6,0.5-1.1,1.1-1.1h29c0.6,0,1.1,0.5,1.1,1.1v2.9
		C78,97.3,76.2,99.1,74,99.1z M48.9,93.3v1.8c0,1,0.8,1.8,1.8,1.8H74c1,0,1.8-0.8,1.8-1.8v-1.8H48.9z"/>
</g>
<g>
	<path class="st4" d="M68.8,93.3h-13c-0.5,0-0.9-0.3-1-0.8l-9.4-32.3c-0.1-0.4,0-0.9,0.4-1.2c0.4-0.3,0.9-0.3,1.2,0l8,5.4l6.6-5.3
		c0.4-0.3,1-0.3,1.4,0l6.6,5.3l8-5.4c0.4-0.3,0.9-0.2,1.2,0c0.4,0.3,0.5,0.7,0.4,1.2l-9.5,32.3C69.7,92.9,69.3,93.3,68.8,93.3z
		 M56.6,91.1H68l8.5-28.7l-6.2,4.1c-0.4,0.3-0.9,0.2-1.3-0.1l-6.6-5.3l-6.6,5.3c-0.4,0.3-0.9,0.3-1.3,0.1l-6.2-4.2L56.6,91.1z"/>
</g>
<g>
	<path class="st4" d="M71.1,116.5H53.6c-0.6,0-1.1-0.5-1.1-1.1c0-0.6,0.5-1.1,1.1-1.1h17.4c0.6,0,1.1,0.5,1.1,1.1
		C72.2,116,71.7,116.5,71.1,116.5z"/>
</g>
<g>
	<path class="st1" d="M93.1,104.9c-0.6,0-1.1-0.5-1.1-1.1c0-2.6-2.1-4.7-4.7-4.7c-0.6,0-1.1-0.5-1.1-1.1c0-0.6,0.5-1.1,1.1-1.1
		c2.6,0,4.7-2.1,4.7-4.7c0-0.6,0.5-1.1,1.1-1.1c0.6,0,1.1,0.5,1.1,1.1c0,2.6,2.1,4.7,4.7,4.7c0.6,0,1.1,0.5,1.1,1.1
		c0,0.6-0.5,1.1-1.1,1.1c-2.6,0-4.7,2.1-4.7,4.7C94.2,104.4,93.7,104.9,93.1,104.9z M91,98c0.8,0.5,1.6,1.3,2.1,2.1
		c0.5-0.8,1.3-1.6,2.1-2.1c-0.8-0.5-1.6-1.3-2.1-2.1C92.6,96.7,91.9,97.4,91,98z"/>
</g>
<g>
	<path class="st1" d="M103.3,81.6c-0.6,0-1.1-0.5-1.1-1.1c0-2.6-2.1-4.7-4.7-4.7c-0.6,0-1.1-0.5-1.1-1.1c0-0.6,0.5-1.1,1.1-1.1
		c2.6,0,4.7-2.1,4.7-4.7c0-0.6,0.5-1.1,1.1-1.1c0.6,0,1.1,0.5,1.1,1.1c0,2.6,2.1,4.7,4.7,4.7c0.6,0,1.1,0.5,1.1,1.1
		c0,0.6-0.5,1.1-1.1,1.1c-2.6,0-4.7,2.1-4.7,4.7C104.4,81.2,103.9,81.6,103.3,81.6z M101.2,74.7c0.8,0.5,1.6,1.3,2.1,2.1
		c0.5-0.8,1.3-1.6,2.1-2.1c-0.8-0.5-1.6-1.3-2.1-2.1C102.8,73.5,102.1,74.2,101.2,74.7z"/>
</g>
<g>
	<path class="st1" d="M96,35.2L96,35.2c-0.6,0-1.1-0.5-1.1-1.1c0-2.6-2.1-4.7-4.7-4.7c-0.6,0-1.1-0.5-1.1-1.1c0-0.6,0.5-1.1,1.1-1.1
		c2.6,0,4.7-2.1,4.7-4.7c0-0.6,0.5-1.1,1.1-1.1l0,0c0.6,0,1.1,0.5,1.1,1.1c0,2.6,2.1,4.7,4.7,4.7c0.6,0,1.1,0.5,1.1,1.1
		c0,0.6-0.5,1.1-1.1,1.1c-2.6,0-4.7,2.1-4.7,4.7C97.1,34.7,96.6,35.2,96,35.2z M94,28.3c0.8,0.5,1.6,1.3,2.1,2.1
		c0.5-0.8,1.3-1.6,2.1-2.1c-0.8-0.5-1.6-1.3-2.1-2.1C95.5,27,94.8,27.7,94,28.3z"/>
</g>
<g>
	<path class="st1" d="M22,77.3c-0.6,0-1.1-0.5-1.1-1.1c0-2.6-2.1-4.7-4.7-4.7c-0.6,0-1.1-0.5-1.1-1.1c0-0.6,0.5-1.1,1.1-1.1
		c2.6,0,4.7-2.1,4.7-4.7c0-0.6,0.5-1.1,1.1-1.1c0.6,0,1.1,0.5,1.1,1.1c0,2.6,2.1,4.7,4.7,4.7c0.6,0,1.1,0.5,1.1,1.1
		c0,0.6-0.5,1.1-1.1,1.1c-2.6,0-4.7,2.1-4.7,4.7C23.1,76.8,22.6,77.3,22,77.3z M19.9,70.4c0.8,0.5,1.6,1.3,2.1,2.1
		c0.5-0.8,1.3-1.6,2.1-2.1c-0.8-0.5-1.6-1.3-2.1-2.1C21.4,69.1,20.7,69.9,19.9,70.4z"/>
</g>
<g>
	<path class="st1" d="M33.6,116.5L33.6,116.5c-0.6,0-1.1-0.5-1.1-1.1c0-2.6-2.1-4.7-4.7-4.7c-0.6,0-1.1-0.5-1.1-1.1
		c0-0.6,0.5-1.1,1.1-1.1c2.6,0,4.7-2.1,4.7-4.7c0-0.6,0.5-1.1,1.1-1.1l0,0c0.6,0,1.1,0.5,1.1,1.1c0,2.6,2.1,4.7,4.7,4.7
		c0.6,0,1.1,0.5,1.1,1.1c0,0.6-0.5,1.1-1.1,1.1c-2.6,0-4.7,2.1-4.7,4.7C34.7,116,34.2,116.5,33.6,116.5z M31.5,109.6
		c0.8,0.5,1.6,1.3,2.1,2.1c0.5-0.8,1.3-1.6,2.1-2.1c-0.8-0.5-1.6-1.3-2.1-2.1C33.1,108.3,32.4,109.1,31.5,109.6z"/>
</g>
<g>
	<path class="st4" d="M87,55.5c-0.6,0-1.1-0.5-1.1-1.1c0-2.1-0.3-4.3-0.9-6.3c-0.2-0.6,0.2-1.2,0.8-1.3c0.6-0.2,1.2,0.2,1.3,0.8
		c0.6,2.2,0.9,4.6,0.9,6.9C88.1,55,87.6,55.5,87,55.5z"/>
</g>
<g>
	<path class="st4" d="M83.8,43.3c-0.4,0-0.7-0.2-0.9-0.5c-2.9-5-7.5-8.8-12.9-10.7c-0.6-0.2-0.9-0.8-0.7-1.4
		c0.2-0.6,0.8-0.9,1.4-0.7c6,2,11,6.2,14.1,11.6c0.3,0.5,0.1,1.2-0.4,1.5C84.2,43.2,84,43.3,83.8,43.3z"/>
</g>
<g>
	<path class="st1" d="M35.7,26.8c-0.3,0-0.6-0.1-0.8-0.3c-0.4-0.4-0.4-1.1,0.1-1.5c1.3-1.2,2.6-2.3,4.1-3.3c0.5-0.4,1.2-0.2,1.5,0.3
		c0.4,0.5,0.2,1.2-0.3,1.5c-1.3,1-2.6,2-3.8,3.1C36.2,26.7,35.9,26.8,35.7,26.8z"/>
</g>
<g>
	<path class="st1" d="M23.2,53.9C23.2,53.9,23.2,53.9,23.2,53.9c-0.6,0-1.1-0.5-1.1-1.1c0.3-8.4,3.2-16.3,8.3-23
		c0.4-0.5,1-0.6,1.5-0.2c0.5,0.4,0.6,1.1,0.2,1.5c-4.8,6.3-7.6,13.8-7.9,21.7C24.2,53.5,23.8,53.9,23.2,53.9z"/>
</g>
</svg>
