<?xml version="1.0" encoding="utf-8"?>
<!-- Generator: Adobe Illustrator 24.0.3, SVG Export Plug-In . SVG Version: 6.00 Build 0)  -->
<svg version="1.1" id="layer_1" xmlns="http://www.w3.org/2000/svg" xmlns:xlink="http://www.w3.org/1999/xlink" x="0px" y="0px"
	 viewBox="0 0 128 128" style="enable-background:new 0 0 128 128;" xml:space="preserve">
<style type="text/css">
	.st0{opacity:0.2;fill:#FFFFFF;}
	.st1{opacity:0.2;}
	.st2{fill:#FFFFFF;}
	.st3{opacity:0.2;fill:#0090D5;}
	.st4{fill:#21365F;}
	.st5{fill:#0090D5;}
</style>
<g>
	<g>
		<circle class="st0" cx="68.7" cy="97.3" r="19.2"/>
	</g>
	<g>
		<circle class="st0" cx="33.2" cy="78.2" r="16.4"/>
	</g>
	<g class="st1">
		<circle class="st2" cx="83.8" cy="38.9" r="27.4"/>
	</g>
	<g>
		<path class="st2" d="M33.7,92.1h-8.8c-2.6,0-4.8,2.1-4.8,4.8v4.4c0,2.6,2.1,4.8,4.8,4.8h8.8V92.1z"/>
	</g>
	<g>
		<path class="st2" d="M43.3,77H33c-1.8,0-3.3,1.5-3.3,3.3v7.4c0,1.8,1.5,3.3,3.3,3.3h10.3V77z"/>
	</g>
	<g>
		<path class="st2" d="M105.7,76.5H33.2c1.8,4.2,1.8,10.9,0,15h72.5C102.1,87.4,102.1,80.6,105.7,76.5z"/>
	</g>
	<g>
		<path class="st3" d="M103,84H46.2c-4.2,0-7.5,3.4-7.5,7.5l0,0h67C103.9,89.5,103,86.7,103,84z"/>
	</g>
	<g>
		<path class="st2" d="M96.1,91.5H25c1.8,4.2,1.8,10.9,0,15h71.1C92.5,102.4,92.5,95.7,96.1,91.5z"/>
	</g>
	<g>
		<path class="st3" d="M93.4,99.1H51.7c-4.2,0-7.5,3.4-7.5,7.5l0,0h52C94.3,104.5,93.4,101.8,93.4,99.1z"/>
	</g>
	<g>
		<path class="st4" d="M105.7,92.6H33.2c-0.3,0-0.7-0.2-0.9-0.5s-0.2-0.7-0.1-1c1.7-3.9,1.7-10.3,0-14.2c-0.1-0.3-0.1-0.7,0.1-1
			c0.2-0.3,0.5-0.5,0.9-0.5h72.5c0.4,0,0.8,0.2,0.9,0.6c0.2,0.4,0.1,0.8-0.2,1.1c-3.3,3.8-3.3,9.9,0,13.7c0.3,0.3,0.3,0.7,0.2,1.1
			C106.5,92.3,106.1,92.6,105.7,92.6z M34.7,90.5h69c-2.3-3.9-2.3-9.1,0-13h-69C35.9,81.4,35.9,86.6,34.7,90.5z"/>
	</g>
	<g>
		<path class="st4" d="M96.1,107.6H25c-0.3,0-0.7-0.2-0.9-0.5s-0.2-0.7-0.1-1c1.7-3.9,1.7-10.3,0-14.2c-0.1-0.3-0.1-0.7,0.1-1
			c0.2-0.3,0.5-0.5,0.9-0.5h71.1c0.4,0,0.8,0.2,0.9,0.6c0.2,0.4,0.1,0.8-0.2,1.1c-3.3,3.8-3.3,9.9,0,13.7c0.3,0.3,0.3,0.7,0.2,1.1
			C96.9,107.4,96.6,107.6,96.1,107.6z M26.5,105.6h67.7c-2.3-3.9-2.3-9.1,0-13H26.5C27.7,96.5,27.7,101.6,26.5,105.6z"/>
	</g>
	<g>
		<path class="st4" d="M97.5,107.6H25c-3.6,0-6.5-2.9-6.5-6.5V97c0-3.6,2.9-6.5,6.5-6.5h72.5c0.6,0,1,0.5,1,1c0,0.6-0.5,1-1,1H25
			c-2.5,0-4.4,2-4.4,4.4v4.1c0,2.5,2,4.4,4.4,4.4h72.5c0.6,0,1,0.5,1,1C98.5,107.1,98.1,107.6,97.5,107.6z"/>
	</g>
	<g>
		<path class="st4" d="M107.1,92.6H33.2c-2.8,0-5.1-2.3-5.1-5.1v-6.8c0-2.8,2.3-5.1,5.1-5.1h73.9c0.6,0,1,0.5,1,1c0,0.6-0.5,1-1,1
			H33.2c-1.7,0-3.1,1.4-3.1,3.1v6.8c0,1.7,1.4,3.1,3.1,3.1h73.9c0.6,0,1,0.5,1,1C108.1,92.1,107.7,92.6,107.1,92.6z"/>
	</g>
	<g>
		<path class="st4" d="M95,87.4h-5c-0.6,0-1-0.5-1-1c0-0.6,0.5-1,1-1h5c0.6,0,1,0.5,1,1C96,87,95.6,87.4,95,87.4z"/>
	</g>
	<g>
		<path class="st4" d="M84.6,87.4H60c-0.6,0-1-0.5-1-1c0-0.6,0.5-1,1-1h24.6c0.6,0,1,0.5,1,1C85.6,87,85.1,87.4,84.6,87.4z"/>
	</g>
	<g>
		<path class="st4" d="M70.4,82.6H46.3c-0.6,0-1-0.5-1-1c0-0.6,0.5-1,1-1h24.1c0.6,0,1,0.5,1,1C71.4,82.2,70.9,82.6,70.4,82.6z"/>
	</g>
	<g>
		<path class="st4" d="M85.4,102.1H55.8c-0.6,0-1-0.5-1-1c0-0.6,0.5-1,1-1h29.6c0.6,0,1,0.5,1,1C86.5,101.7,86,102.1,85.4,102.1z"/>
	</g>
	<g>
		<path class="st4" d="M67.6,97.3H64c-0.6,0-1-0.5-1-1c0-0.6,0.5-1,1-1h3.6c0.6,0,1,0.5,1,1C68.7,96.9,68.2,97.3,67.6,97.3z"/>
	</g>
	<g>
		<path class="st4" d="M58.5,97.3H40.8c-0.6,0-1-0.5-1-1c0-0.6,0.5-1,1-1h17.7c0.6,0,1,0.5,1,1C59.6,96.9,59.1,97.3,58.5,97.3z"/>
	</g>
	<g>
		<path class="st2" d="M68.8,19L68.8,19c-12.8,0-23.3,10.4-23.3,23.3v0c0,18.9,15.3,34.2,34.2,34.2H92V42.3C92,29.4,81.6,19,68.8,19
			z"/>
	</g>
	<g class="st1">
		<path class="st5" d="M83.9,24.6c-2-0.6-4.1-0.9-6.2-0.9c-11.7,0-21.2,9.5-21.2,21.2l0,0c0,17.2,14,31.2,31.2,31.2H92V42.3
			C92,35.2,88.9,28.9,83.9,24.6z"/>
	</g>
	<g>
		<path class="st4" d="M92,77.5H79.7c-19.4,0-35.2-15.8-35.2-35.2C44.5,28.9,55.4,18,68.8,18s24.3,10.9,24.3,24.3v34.2
			C93.1,77.1,92.6,77.5,92,77.5z M68.8,20.1c-12.3,0-22.2,10-22.2,22.2c0,18.3,14.9,33.2,33.2,33.2H91V42.3C91,30,81,20.1,68.8,20.1
			z"/>
	</g>
	<g>
		<path class="st2" d="M92,43.7H72.9v13.7c0,10.6,8.6,19.2,19.2,19.2l0,0V43.7z"/>
	</g>
	<g>
		<path class="st3" d="M82.5,43.7v13.7c0,10.6,4.3,19.2,9.6,19.2V43.7H82.5z"/>
	</g>
	<g>
		<path class="st4" d="M92,77.5c-11.1,0-20.2-9.1-20.2-20.2V43.7c0-0.6,0.5-1,1-1H92c0.6,0,1,0.5,1,1v32.8
			C93.1,77.1,92.6,77.5,92,77.5z M73.9,44.7v12.7c0,9.7,7.6,17.6,17.1,18.1V44.7H73.9z"/>
	</g>
	<g>
		<polygon class="st2" points="75.1,48.5 68.8,53.9 62.5,48.5 62.5,38.2 75.1,38.2 		"/>
	</g>
	<g>
		<path class="st4" d="M68.8,54.9c-0.2,0-0.5-0.1-0.7-0.2l-6.3-5.4c-0.2-0.2-0.4-0.5-0.4-0.8V38.2c0-0.6,0.5-1,1-1h12.6
			c0.6,0,1,0.5,1,1v10.3c0,0.3-0.1,0.6-0.4,0.8l-6.3,5.4C69.3,54.9,69,54.9,68.8,54.9z M63.5,48l5.3,4.5l5.3-4.5v-8.8H63.5V48z
			 M75.1,48.5L75.1,48.5L75.1,48.5z"/>
	</g>
	<g>
		<circle class="st2" cx="55.8" cy="38.2" r="13"/>
	</g>
	<g>
		<circle class="st2" cx="81.8" cy="38.2" r="13"/>
	</g>
	<g>
		<path class="st3" d="M68.8,38.2c0-1.5-0.3-2.9-0.7-4.2c-2-1.2-4.3-1.9-6.8-1.9c-7.2,0-13,5.8-13,13c0,1.5,0.3,2.9,0.7,4.2
			c2,1.2,4.3,1.9,6.8,1.9C63,51.2,68.8,45.4,68.8,38.2z"/>
	</g>
	<g>
		<path class="st3" d="M94.8,38.2c0-1.5-0.3-2.9-0.7-4.2c-2-1.2-4.3-1.9-6.8-1.9c-7.2,0-13,5.8-13,13c0,1.5,0.3,2.9,0.7,4.2
			c2,1.2,4.3,1.9,6.8,1.9C89,51.2,94.8,45.4,94.8,38.2z"/>
	</g>
	<g>
		<path class="st4" d="M55.8,52.2c-7.7,0-14-6.3-14-14c0-7.7,6.3-14,14-14c7.7,0,14,6.3,14,14C69.8,45.9,63.5,52.2,55.8,52.2z
			 M55.8,26.2c-6.6,0-12,5.4-12,12s5.4,12,12,12s12-5.4,12-12S62.4,26.2,55.8,26.2z"/>
	</g>
	<g>
		<path class="st4" d="M81.8,52.2c-7.7,0-14-6.3-14-14c0-7.7,6.3-14,14-14c7.7,0,14,6.3,14,14C95.8,45.9,89.5,52.2,81.8,52.2z
			 M81.8,26.2c-6.6,0-12,5.4-12,12s5.4,12,12,12c6.6,0,12-5.4,12-12S88.4,26.2,81.8,26.2z"/>
	</g>
	<g>
		<path class="st4" d="M55.8,52.2c-7.7,0-14-6.3-14-14c0-7.7,6.3-14,14-14c7.7,0,14,6.3,14,14C69.8,45.9,63.5,52.2,55.8,52.2z
			 M55.8,26.2c-6.6,0-12,5.4-12,12s5.4,12,12,12s12-5.4,12-12S62.4,26.2,55.8,26.2z"/>
	</g>
	<g>
		<circle class="st2" cx="55.8" cy="38.2" r="4.8"/>
	</g>
	<g>
		<circle class="st2" cx="81.8" cy="38.2" r="4.8"/>
	</g>
	<g>
		<path class="st3" d="M60.6,38.2c0-0.7-0.2-1.4-0.5-2c-0.1,0-0.1,0-0.2,0c-2.6,0-4.8,2.1-4.8,4.8c0,0.7,0.2,1.4,0.5,2
			c0.1,0,0.1,0,0.2,0C58.4,43,60.6,40.8,60.6,38.2z"/>
	</g>
	<g>
		<path class="st3" d="M86.6,38.2c0-0.7-0.2-1.4-0.5-2c-0.1,0-0.1,0-0.2,0c-2.6,0-4.8,2.1-4.8,4.8c0,0.7,0.2,1.4,0.5,2
			c0.1,0,0.1,0,0.2,0C84.4,43,86.6,40.8,86.6,38.2z"/>
	</g>
	<g>
		<path class="st4" d="M55.8,44c-3.2,0-5.8-2.6-5.8-5.8c0-3.2,2.6-5.8,5.8-5.8c3.2,0,5.8,2.6,5.8,5.8C61.6,41.4,59,44,55.8,44z
			 M55.8,34.4c-2.1,0-3.8,1.7-3.8,3.8s1.7,3.8,3.8,3.8s3.8-1.7,3.8-3.8S57.9,34.4,55.8,34.4z"/>
	</g>
	<g>
		<path class="st4" d="M81.8,44c-3.2,0-5.8-2.6-5.8-5.8c0-3.2,2.6-5.8,5.8-5.8c3.2,0,5.8,2.6,5.8,5.8C87.6,41.4,85,44,81.8,44z
			 M81.8,34.4c-2.1,0-3.8,1.7-3.8,3.8s1.7,3.8,3.8,3.8c2.1,0,3.8-1.7,3.8-3.8S83.9,34.4,81.8,34.4z"/>
	</g>
	<g>
		<path class="st4" d="M53.1,26.2c-0.6,0-1-0.5-1-1c0-2.8-2.3-5.1-5.1-5.1c-0.6,0-1-0.5-1-1c0-0.6,0.5-1,1-1c4,0,7.2,3.2,7.2,7.2
			C54.1,25.7,53.6,26.2,53.1,26.2z"/>
	</g>
	<g>
		<path class="st4" d="M85.2,26.2c-0.6,0-1-0.5-1-1c0-4,3.2-7.2,7.2-7.2c0.6,0,1,0.5,1,1c0,0.6-0.5,1-1,1c-2.8,0-5.1,2.3-5.1,5.1
			C86.2,25.7,85.8,26.2,85.2,26.2z"/>
	</g>
	<g>
		<path class="st2" d="M38.7,67.9h-5.5c-0.6,0-1-0.5-1-1c0-0.6,0.5-1,1-1h5.5c0.6,0,1,0.5,1,1C39.7,67.5,39.3,67.9,38.7,67.9z"/>
	</g>
	<g>
		<path class="st2" d="M36,70.7c-0.6,0-1-0.5-1-1v-5.5c0-0.6,0.5-1,1-1c0.6,0,1,0.5,1,1v5.5C37,70.2,36.5,70.7,36,70.7z"/>
	</g>
	<g>
		<circle class="st2" cx="36" cy="58.7" r="1"/>
	</g>
	<g>
		<circle class="st2" cx="36" cy="54.6" r="1"/>
	</g>
	<g>
		<circle class="st2" cx="36" cy="49.1" r="1"/>
	</g>
	<g>
		<circle class="st2" cx="36" cy="40.9" r="1"/>
	</g>
	<g>
		<path class="st2" d="M107.1,43.6h-5.5c-0.6,0-1-0.5-1-1c0-0.6,0.5-1,1-1h5.5c0.6,0,1,0.5,1,1C108.1,43.2,107.7,43.6,107.1,43.6z"
			/>
	</g>
	<g>
		<path class="st2" d="M104.4,46.4c-0.6,0-1-0.5-1-1v-5.5c0-0.6,0.5-1,1-1c0.6,0,1,0.5,1,1v5.5C105.4,45.9,104.9,46.4,104.4,46.4z"
			/>
	</g>
	<g>
		<circle class="st2" cx="104.4" cy="50.8" r="1"/>
	</g>
	<g>
		<circle class="st2" cx="104.4" cy="54.9" r="1"/>
	</g>
	<g>
		<circle class="st2" cx="104.4" cy="60.4" r="1"/>
	</g>
	<g>
		<circle class="st2" cx="104.4" cy="68.6" r="1"/>
	</g>
	<g>
		<path class="st2" d="M25,54.3h-5.5c-0.6,0-1-0.5-1-1c0-0.6,0.5-1,1-1H25c0.6,0,1,0.5,1,1C26,53.8,25.6,54.3,25,54.3z"/>
	</g>
	<g>
		<path class="st2" d="M22.3,57c-0.6,0-1-0.5-1-1v-5.5c0-0.6,0.5-1,1-1c0.6,0,1,0.5,1,1V56C23.3,56.5,22.8,57,22.3,57z"/>
	</g>
	<g>
		<path class="st2" d="M31.9,26.9h-5.5c-0.6,0-1-0.5-1-1c0-0.6,0.5-1,1-1h5.5c0.6,0,1,0.5,1,1C32.9,26.4,32.4,26.9,31.9,26.9z"/>
	</g>
	<g>
		<path class="st2" d="M29.1,29.6c-0.6,0-1-0.5-1-1v-5.5c0-0.6,0.5-1,1-1c0.6,0,1,0.5,1,1v5.5C30.1,29.2,29.7,29.6,29.1,29.6z"/>
	</g>
	<g>
		<path class="st2" d="M101.6,26.9h-5.5c-0.6,0-1-0.5-1-1c0-0.6,0.5-1,1-1h5.5c0.6,0,1,0.5,1,1C102.7,26.4,102.2,26.9,101.6,26.9z"
			/>
	</g>
	<g>
		<path class="st2" d="M98.9,29.6c-0.6,0-1-0.5-1-1v-5.5c0-0.6,0.5-1,1-1s1,0.5,1,1v5.5C99.9,29.2,99.5,29.6,98.9,29.6z"/>
	</g>
</g>
</svg>
