<?xml version="1.0" encoding="utf-8"?>
<!-- Generator: Adobe Illustrator 24.0.3, SVG Export Plug-In . SVG Version: 6.00 Build 0)  -->
<svg version="1.1" id="layer_1" xmlns="http://www.w3.org/2000/svg" xmlns:xlink="http://www.w3.org/1999/xlink" x="0px" y="0px"
	 viewBox="0 0 128 128" style="enable-background:new 0 0 128 128;" xml:space="preserve">
<style type="text/css">
	.st0{opacity:0.2;}
	.st1{fill:#FFFFFF;}
	.st2{fill:#21365F;}
	.st3{opacity:0.2;fill:#0090D5;}
	.st4{fill:#FFFFFF;stroke:#21365F;stroke-width:1.4;stroke-miterlimit:10;}
</style>
<g class="st0">
	<circle class="st1" cx="90.1" cy="54" r="17.2"/>
</g>
<g class="st0">
	<circle class="st1" cx="53" cy="101.7" r="14.8"/>
</g>
<g class="st0">
	<circle class="st1" cx="39.2" cy="52.5" r="24.6"/>
</g>
<g>
	<circle class="st1" cx="60.4" cy="68.8" r="39.4"/>
</g>
<g>
	<path class="st2" d="M27.4,65.8c0,0-0.1,0-0.1,0c-0.5-0.1-0.9-0.5-0.8-1c0.1-1.2,0.4-2.5,0.6-3.7c0.1-0.5,0.6-0.8,1.1-0.7
		c0.5,0.1,0.8,0.6,0.7,1.1c-0.3,1.1-0.5,2.3-0.6,3.5C28.2,65.4,27.8,65.8,27.4,65.8z"/>
</g>
<g>
	<path class="st2" d="M29.5,57.4c-0.1,0-0.2,0-0.3-0.1c-0.5-0.2-0.7-0.7-0.5-1.2c2.5-6.3,6.8-11.6,12.4-15.5c0.4-0.3,1-0.2,1.3,0.2
		c0.3,0.4,0.2,1-0.2,1.3c-5.3,3.6-9.3,8.7-11.7,14.7C30.2,57.1,29.9,57.4,29.5,57.4z"/>
</g>
<g>
	<path class="st1" d="M63.5,67.5h-6.2c-4.4,0-8-3.6-8-8V45.3h22.2v14.2C71.5,63.9,67.9,67.5,63.5,67.5z"/>
</g>
<g>
	<path class="st1" d="M38.2,73.7h-9.9l0,0c0,12.2,9.9,22.2,22.2,22.2h9.9l0,0C60.4,83.6,50.5,73.7,38.2,73.7z"/>
</g>
<g>
	<path class="st1" d="M92.4,67.5h-9.9c-12.2,0-22.2,9.9-22.2,22.2l0,0h9.9C82.5,89.7,92.4,79.8,92.4,67.5L92.4,67.5z"/>
</g>
<g>
	<path class="st2" d="M85.2,45h-4.9c-0.5,0-0.9-0.4-0.9-0.9c0-0.5,0.4-0.9,0.9-0.9h4.9c0.5,0,0.9,0.4,0.9,0.9
		C86.1,44.6,85.7,45,85.2,45z"/>
</g>
<g>
	<path class="st2" d="M82.7,47.5c-0.5,0-0.9-0.4-0.9-0.9v-4.9c0-0.5,0.4-0.9,0.9-0.9c0.5,0,0.9,0.4,0.9,0.9v4.9
		C83.6,47.1,83.2,47.5,82.7,47.5z"/>
</g>
<g>
	<g>
		<path class="st1" d="M47.9,24.3H41c-0.7,0-1.3-0.6-1.3-1.3c0-0.7,0.6-1.3,1.3-1.3h6.9c0.7,0,1.3,0.6,1.3,1.3
			C49.2,23.8,48.6,24.3,47.9,24.3z"/>
	</g>
	<g>
		<path class="st1" d="M44.5,27.8c-0.7,0-1.3-0.6-1.3-1.3v-6.9c0-0.7,0.6-1.3,1.3-1.3c0.7,0,1.3,0.6,1.3,1.3v6.9
			C45.8,27.2,45.2,27.8,44.5,27.8z"/>
	</g>
</g>
<g>
	<g>
		<path class="st1" d="M85.2,19.1h-6.9c-0.7,0-1.3-0.6-1.3-1.3c0-0.7,0.6-1.3,1.3-1.3h6.9c0.7,0,1.3,0.6,1.3,1.3
			C86.6,18.5,86,19.1,85.2,19.1z"/>
	</g>
	<g>
		<path class="st1" d="M81.8,22.6c-0.7,0-1.3-0.6-1.3-1.3v-6.9c0-0.7,0.6-1.3,1.3-1.3c0.7,0,1.3,0.6,1.3,1.3v6.9
			C83.1,22,82.5,22.6,81.8,22.6z"/>
	</g>
</g>
<g>
	<g>
		<path class="st1" d="M91.3,112.2h-6.9c-0.7,0-1.3-0.6-1.3-1.3c0-0.7,0.6-1.3,1.3-1.3h6.9c0.7,0,1.3,0.6,1.3,1.3
			C92.6,111.6,92,112.2,91.3,112.2z"/>
	</g>
	<g>
		<path class="st1" d="M87.9,115.6c-0.7,0-1.3-0.6-1.3-1.3v-6.9c0-0.7,0.6-1.3,1.3-1.3c0.7,0,1.3,0.6,1.3,1.3v6.9
			C89.2,115,88.6,115.6,87.9,115.6z"/>
	</g>
</g>
<g>
	<g>
		<path class="st2" d="M33.5,76.7h-4.9c-0.5,0-0.9-0.4-0.9-0.9c0-0.5,0.4-0.9,0.9-0.9h4.9c0.5,0,0.9,0.4,0.9,0.9
			C34.5,76.3,34,76.7,33.5,76.7z"/>
	</g>
	<g>
		<path class="st2" d="M31.1,79.1c-0.5,0-0.9-0.4-0.9-0.9v-4.9c0-0.5,0.4-0.9,0.9-0.9c0.5,0,0.9,0.4,0.9,0.9v4.9
			C32,78.7,31.6,79.1,31.1,79.1z"/>
	</g>
</g>
<g>
	<path class="st2" d="M72.8,99.3h-4.9c-0.5,0-0.9-0.4-0.9-0.9c0-0.5,0.4-0.9,0.9-0.9h4.9c0.5,0,0.9,0.4,0.9,0.9
		C73.8,98.8,73.4,99.3,72.8,99.3z"/>
</g>
<g>
	<path class="st2" d="M70.4,101.7c-0.5,0-0.9-0.4-0.9-0.9v-4.9c0-0.5,0.4-0.9,0.9-0.9c0.5,0,0.9,0.4,0.9,0.9v4.9
		C71.3,101.3,70.9,101.7,70.4,101.7z"/>
</g>
<path class="st3" d="M98.5,58.7c-6-5.2-13.7-8.7-22.1-9.5c-4.4,15.9-19,20.1-21.1,31.5c-3.8-8.3,9.1-19.7,9.2-30.8
	c-1.7,0.4-3.3,0.8-4.9,1.4c-0.1,4.3-1.5,9.2-5.1,14.6c-8.3,12.6,2.5,25.8,2.5,25.8s-16.8-7.9-16.3-23.1c0-1.4,0.2-2.6,0.5-3.7
	c-5,6.6-8,14.8-8,23.8c0,3.5,0.5,6.9,1.3,10.1c6.9,6,15.9,9.6,25.8,9.6c21.8,0,39.4-17.7,39.4-39.4C99.8,65.3,99.4,61.9,98.5,58.7z
	 M74.7,80.1c-9.1,6-10.8,9.2-9.9,13.3c-2.3-0.6-10.2-12.7-2.7-19.9c7.5-7.2,13.6-11.4,15.4-19.2C80,57.6,82.7,74.8,74.7,80.1z"/>
<path class="st2" d="M70.2,29.6c0.6,0.8,1.2,1.6,1.7,2.4c15.6,4.9,27,19.5,27,36.7c0,21.2-17.3,38.5-38.5,38.5
	c-21.2,0-38.5-17.3-38.5-38.5c0-19.9,15.2-36.4,34.6-38.3c-0.2-0.6-0.4-1.2-0.6-1.8C35.8,30.9,20.1,48,20.1,68.8
	c0,22.3,18.1,40.4,40.4,40.4s40.4-18.1,40.4-40.4C100.8,49.9,87.7,34,70.2,29.6z"/>
<g>
	<path class="st4" d="M64.8,93.4c-0.9-4.1,0.8-7.3,9.9-13.3c8-5.3,5.3-22.4,2.8-25.8c-1.8,7.8-7.9,12-15.4,19.2
		C54.6,80.7,62.5,92.9,64.8,93.4z"/>
	<path class="st4" d="M55.4,80.7c2.1-11.5,16.9-15.6,21.2-32c3.9-15.1-17.5-24.8-13.4-37.2C49.3,23.1,56.9,31,63.3,44.3
		C69.4,56.9,50.9,70.9,55.4,80.7z"/>
	<path class="st4" d="M53.8,38.5c6.1,4.1,9.1,14.7,0.8,27.3c-8.3,12.6,2.5,25.8,2.5,25.8s-16.8-7.9-16.3-23.1
		C41.4,53.1,56.1,54.5,53.8,38.5z"/>
</g>
<g>
	<g>
		<path class="st1" d="M106.9,66.5h-1.7c-0.5,0-0.9-0.4-0.9-0.9c0-0.5,0.4-0.9,0.9-0.9h1.7c0.5,0,0.9,0.4,0.9,0.9
			C107.8,66.1,107.4,66.5,106.9,66.5z"/>
	</g>
	<g>
		<path class="st1" d="M112.6,66.5h-1.7c-0.5,0-0.9-0.4-0.9-0.9c0-0.5,0.4-0.9,0.9-0.9h1.7c0.5,0,0.9,0.4,0.9,0.9
			C113.5,66.1,113.1,66.5,112.6,66.5z"/>
	</g>
	<g>
		<path class="st1" d="M108.9,70.2c-0.5,0-0.9-0.4-0.9-0.9v-1.7c0-0.5,0.4-0.9,0.9-0.9c0.5,0,0.9,0.4,0.9,0.9v1.7
			C109.8,69.8,109.4,70.2,108.9,70.2z"/>
	</g>
	<g>
		<path class="st1" d="M108.9,64.6c-0.5,0-0.9-0.4-0.9-0.9v-1.7c0-0.5,0.4-0.9,0.9-0.9c0.5,0,0.9,0.4,0.9,0.9v1.7
			C109.8,64.1,109.4,64.6,108.9,64.6z"/>
	</g>
</g>
<g>
	<g>
		<path class="st1" d="M19,101.4h-1.7c-0.5,0-0.9-0.4-0.9-0.9c0-0.5,0.4-0.9,0.9-0.9H19c0.5,0,0.9,0.4,0.9,0.9
			C19.9,101,19.5,101.4,19,101.4z"/>
	</g>
	<g>
		<path class="st1" d="M24.7,101.4H23c-0.5,0-0.9-0.4-0.9-0.9c0-0.5,0.4-0.9,0.9-0.9h1.7c0.5,0,0.9,0.4,0.9,0.9
			C25.6,101,25.2,101.4,24.7,101.4z"/>
	</g>
	<g>
		<path class="st1" d="M21,105.1c-0.5,0-0.9-0.4-0.9-0.9v-1.7c0-0.5,0.4-0.9,0.9-0.9c0.5,0,0.9,0.4,0.9,0.9v1.7
			C21.9,104.7,21.5,105.1,21,105.1z"/>
	</g>
	<g>
		<path class="st1" d="M21,99.4c-0.5,0-0.9-0.4-0.9-0.9v-1.7c0-0.5,0.4-0.9,0.9-0.9c0.5,0,0.9,0.4,0.9,0.9v1.7
			C21.9,99,21.5,99.4,21,99.4z"/>
	</g>
</g>
</svg>
