<?xml version="1.0" encoding="utf-8"?>
<!-- Generator: Adobe Illustrator 24.0.3, SVG Export Plug-In . SVG Version: 6.00 Build 0)  -->
<svg version="1.1" id="layer_1" xmlns="http://www.w3.org/2000/svg" xmlns:xlink="http://www.w3.org/1999/xlink" x="0px" y="0px"
	 viewBox="0 0 128 128" style="enable-background:new 0 0 128 128;" xml:space="preserve">
<style type="text/css">
	.st0{opacity:0.2;}
	.st1{fill:#FFFFFF;}
	.st2{opacity:0.2;fill:#0090D5;}
	.st3{fill:#21365F;}
	.st4{fill:#0090D5;}
</style>
<g class="st0">
	<circle class="st1" cx="97.1" cy="31.1" r="19.6"/>
</g>
<g class="st0">
	<circle class="st1" cx="33.4" cy="29" r="16.8"/>
</g>
<g class="st0">
	<circle class="st1" cx="39.3" cy="88.5" r="28"/>
</g>
<g>
	<path class="st1" d="M108.5,56h-6c-0.4-2.7-1.1-5.3-2.1-7.8l5.2-3c1.1-0.6,1.4-2,0.8-3.1l-3.4-5.8c-0.6-1.1-2-1.4-3.1-0.8l-5.2,3
		c-1.7-2.1-3.6-4-5.7-5.7l3-5.2c0.6-1.1,0.3-2.4-0.8-3.1l-5.8-3.4c-1.1-0.6-2.4-0.3-3.1,0.8l-3,5.2c-2.5-1-5.1-1.7-7.8-2.1v-6
		c0-1.2-1-2.2-2.2-2.2h-6.7c-1.2,0-2.2,1-2.2,2.2v6c-2.7,0.4-5.3,1.1-7.8,2.1l-3-5.2c-0.6-1.1-2-1.4-3.1-0.8l-5.8,3.4
		c-1.1,0.6-1.4,2-0.8,3.1l3,5.2c-2.1,1.7-4,3.6-5.7,5.7l-5.2-3c-1.1-0.6-2.4-0.3-3.1,0.8l-3.4,5.8c-0.6,1.1-0.3,2.4,0.8,3.1l5.2,3
		c-1,2.5-1.7,5.1-2.1,7.8h-6c-1.2,0-2.2,1-2.2,2.2v6.7c0,1.2,1,2.2,2.2,2.2h6c0.4,2.7,1.1,5.3,2.1,7.8l-5.2,3
		c-1.1,0.6-1.4,2-0.8,3.1l3.4,5.8c0.6,1.1,2,1.4,3.1,0.8l5.2-3c1.7,2.1,3.6,4,5.7,5.7l-3,5.2c-0.6,1.1-0.3,2.4,0.8,3.1l5.8,3.4
		c1.1,0.6,2.4,0.3,3.1-0.8l3-5.2c2.5,1,5.1,1.7,7.8,2.1v6c0,1.2,1,2.2,2.2,2.2h6.7c1.2,0,2.2-1,2.2-2.2v-6c2.7-0.4,5.3-1.1,7.8-2.1
		l3,5.2c0.6,1.1,2,1.4,3.1,0.8l5.8-3.4c1.1-0.6,1.4-2,0.8-3.1l-3-5.2c2.1-1.7,4-3.6,5.7-5.7l5.2,3c1.1,0.6,2.4,0.3,3.1-0.8l3.4-5.8
		c0.6-1.1,0.3-2.4-0.8-3.1l-5.2-3c1-2.5,1.7-5.1,2.1-7.8h6c1.2,0,2.2-1,2.2-2.2v-6.7C110.7,57,109.7,56,108.5,56z"/>
</g>
<g>
	<path class="st2" d="M108.5,56h-6c-0.4-2.7-1.1-5.3-2.1-7.8l5.2-3c1.1-0.6,1.4-2,0.8-3.1l-1-1.7l-2.4-4.1c-0.6-1.1-2-1.4-3.1-0.8
		l-2.6,1.5l-2.6,1.5c-0.8-0.9-1.6-1.9-2.4-2.7c-2.7-0.5-5.4-0.8-8.2-0.8C59.4,35,39.3,55,39.3,79.8c0,2.8,0.3,5.5,0.8,8.2
		c0.9,0.9,1.8,1.7,2.7,2.4L41.3,93l-1.5,2.6c-0.6,1.1-0.3,2.4,0.8,3.1l4.1,2.4l1.7,1c1.1,0.6,2.4,0.3,3.1-0.8l3-5.2
		c2.5,1,5.1,1.7,7.8,2.1v6c0,1.2,1,2.2,2.2,2.2h6.7c1.2,0,2.2-1,2.2-2.2v-6c2.7-0.4,5.3-1.1,7.8-2.1l3,5.2c0.6,1.1,2,1.4,3.1,0.8
		l5.8-3.4c1.1-0.6,1.4-2,0.8-3.1l-3-5.2c2.1-1.7,4-3.6,5.7-5.7l5.2,3c1.1,0.6,2.4,0.3,3.1-0.8l3.4-5.8c0.6-1.1,0.3-2.4-0.8-3.1
		l-5.2-3c1-2.5,1.7-5.1,2.1-7.8h6c1.2,0,2.2-1,2.2-2.2v-6.7C110.7,57,109.7,56,108.5,56z"/>
</g>
<g>
	<path class="st3" d="M69.3,107.4h-6.7c-1.8,0-3.3-1.5-3.3-3.3V99c-2.1-0.4-4.2-0.9-6.3-1.7l-2.6,4.4c-0.9,1.6-2.9,2.1-4.5,1.2
		l-5.8-3.4c-0.8-0.4-1.3-1.1-1.5-2c-0.2-0.8-0.1-1.7,0.3-2.5l2.6-4.5c-1.7-1.4-3.2-2.9-4.6-4.6l-4.5,2.6c-1.6,0.9-3.6,0.4-4.5-1.2
		l-3.4-5.8c-0.9-1.6-0.4-3.6,1.2-4.5l4.4-2.6c-0.7-2.1-1.3-4.2-1.7-6.3h-5.1c-1.8,0-3.3-1.5-3.3-3.3v-6.7c0-1.8,1.5-3.3,3.3-3.3h5.1
		c0.4-2.1,0.9-4.2,1.7-6.3L25.7,46c-0.8-0.4-1.3-1.1-1.5-2c-0.2-0.9-0.1-1.7,0.3-2.5l3.4-5.8c0.4-0.8,1.1-1.3,2-1.5
		c0.8-0.2,1.7-0.1,2.5,0.3l4.5,2.6c1.4-1.7,2.9-3.2,4.6-4.6L38.9,28c-0.4-0.8-0.6-1.6-0.3-2.5c0.2-0.8,0.8-1.6,1.5-2l5.8-3.4
		c1.6-0.9,3.6-0.4,4.5,1.2l2.6,4.4c2.1-0.7,4.2-1.3,6.3-1.7V19c0-1.8,1.5-3.3,3.3-3.3h6.7c1.8,0,3.3,1.5,3.3,3.3v5.1
		c2.1,0.4,4.2,0.9,6.3,1.7l2.6-4.4c0.9-1.6,2.9-2.1,4.5-1.2l5.8,3.4c0.8,0.4,1.3,1.1,1.5,2c0.2,0.9,0.1,1.7-0.3,2.5l-2.6,4.5
		c1.7,1.4,3.2,2.9,4.6,4.6l4.5-2.6c0.8-0.4,1.6-0.6,2.5-0.3c0.8,0.2,1.6,0.8,2,1.5l3.4,5.8c0.4,0.8,0.6,1.6,0.3,2.5
		c-0.2,0.8-0.8,1.6-1.5,2l-4.4,2.6c0.7,2.1,1.3,4.2,1.7,6.3h5.1c1.8,0,3.3,1.5,3.3,3.3v6.7c0,1.8-1.5,3.3-3.3,3.3h-5.1
		c-0.4,2.1-0.9,4.2-1.7,6.3l4.4,2.6c1.6,0.9,2.1,2.9,1.2,4.5l-3.4,5.8c-0.9,1.6-2.9,2.1-4.5,1.2L95,86c-1.4,1.7-2.9,3.2-4.6,4.6
		l2.6,4.5c0.4,0.8,0.6,1.6,0.3,2.5c-0.2,0.9-0.8,1.6-1.5,2l-5.8,3.4c-1.6,0.9-3.6,0.4-4.5-1.2l-2.6-4.4c-2.1,0.7-4.2,1.3-6.3,1.7
		v5.1C72.6,105.9,71.1,107.4,69.3,107.4z M52.5,95c0.1,0,0.3,0,0.4,0.1c2.5,1,5,1.7,7.6,2c0.5,0.1,0.9,0.5,0.9,1v6
		c0,0.7,0.5,1.2,1.2,1.2h6.7c0.7,0,1.2-0.5,1.2-1.2v-6c0-0.5,0.4-1,0.9-1c2.6-0.4,5.1-1.1,7.6-2c0.5-0.2,1,0,1.3,0.5l3,5.2
		c0.3,0.6,1.1,0.8,1.6,0.4l5.8-3.4c0.3-0.2,0.5-0.4,0.6-0.7c0.1-0.3,0-0.6-0.1-0.9l-3-5.2c-0.3-0.4-0.2-1,0.3-1.3
		c2-1.6,3.9-3.5,5.6-5.6c0.3-0.4,0.9-0.5,1.3-0.3l5.2,3c0.6,0.3,1.3,0.1,1.6-0.4l3.4-5.8c0.3-0.6,0.1-1.3-0.4-1.6l-5.2-3
		c-0.4-0.3-0.6-0.8-0.5-1.3c1-2.5,1.6-5,2-7.6c0.1-0.5,0.5-0.9,1-0.9h6c0.7,0,1.2-0.5,1.2-1.2v-6.7c0-0.7-0.5-1.2-1.2-1.2h-6
		c-0.5,0-1-0.4-1-0.9c-0.4-2.6-1.1-5.1-2-7.6c-0.2-0.5,0-1,0.5-1.3l5.2-3c0.3-0.2,0.5-0.4,0.6-0.7c0.1-0.3,0-0.6-0.1-0.9l-3.4-5.8
		c-0.2-0.3-0.4-0.5-0.7-0.6c-0.3-0.1-0.6,0-0.9,0.1l-5.2,3c-0.4,0.3-1,0.2-1.3-0.3c-1.6-2-3.5-3.9-5.6-5.6c-0.4-0.3-0.5-0.9-0.3-1.3
		l3-5.2c0.2-0.3,0.2-0.6,0.1-0.9c-0.1-0.3-0.3-0.6-0.6-0.7L84.9,22c-0.6-0.3-1.3-0.1-1.6,0.4l-3,5.2c-0.3,0.5-0.8,0.6-1.3,0.5
		c-2.5-1-5-1.6-7.6-2c-0.5-0.1-0.9-0.5-0.9-1v-6c0-0.7-0.5-1.2-1.2-1.2h-6.7c-0.7,0-1.2,0.5-1.2,1.2v6c0,0.5-0.4,1-0.9,1
		c-2.6,0.4-5.1,1.1-7.6,2c-0.5,0.2-1,0-1.3-0.5l-3-5.2c-0.3-0.6-1.1-0.8-1.6-0.4l-5.8,3.4c-0.3,0.2-0.5,0.4-0.6,0.7
		c-0.1,0.3,0,0.6,0.1,0.9l3,5.2c0.3,0.4,0.2,1-0.3,1.3c-2,1.6-3.9,3.5-5.6,5.6c-0.3,0.4-0.9,0.5-1.3,0.3l-5.2-3
		c-0.3-0.2-0.6-0.2-0.9-0.1c-0.3,0.1-0.6,0.3-0.7,0.6l-3.4,5.8c-0.2,0.3-0.2,0.6-0.1,0.9c0.1,0.3,0.3,0.6,0.6,0.7l5.2,3
		c0.4,0.3,0.6,0.8,0.5,1.3c-1,2.5-1.7,5-2,7.6c-0.1,0.5-0.5,0.9-1,0.9h-6c-0.7,0-1.2,0.5-1.2,1.2v6.7c0,0.7,0.5,1.2,1.2,1.2h6
		c0.5,0,1,0.4,1,0.9c0.4,2.6,1.1,5.1,2,7.6c0.2,0.5,0,1-0.5,1.3l-5.2,3c-0.6,0.3-0.8,1.1-0.4,1.6l3.4,5.8c0.3,0.6,1.1,0.8,1.6,0.4
		l5.2-3c0.4-0.3,1-0.2,1.3,0.3c1.6,2,3.5,3.9,5.6,5.6c0.4,0.3,0.5,0.9,0.3,1.3l-3,5.2c-0.2,0.3-0.2,0.6-0.1,0.9
		c0.1,0.3,0.3,0.6,0.6,0.7l5.8,3.4c0.6,0.3,1.3,0.1,1.6-0.4l3-5.2C51.8,95.1,52.1,95,52.5,95z"/>
</g>
<g>
	<circle class="st1" cx="65.9" cy="61.6" r="28"/>
</g>
<g class="st0">
	<path class="st4" d="M93.9,61.6c0-5.2-1.5-10.1-3.9-14.3c-4.2-2.5-9-3.9-14.3-3.9c-15.5,0-28,12.5-28,28c0,5.2,1.5,10.1,3.9,14.3
		c4.2,2.5,9,3.9,14.3,3.9C81.4,89.6,93.9,77,93.9,61.6z"/>
</g>
<g>
	<path class="st3" d="M65.9,90.6c-16,0-29.1-13-29.1-29.1s13-29.1,29.1-29.1S95,45.5,95,61.6S81.9,90.6,65.9,90.6z M65.9,34.6
		c-14.9,0-27,12.1-27,27c0,14.9,12.1,27,27,27c14.9,0,27-12.1,27-27C92.9,46.7,80.8,34.6,65.9,34.6z"/>
</g>
<g>
	<path class="st1" d="M72.7,68.7L72,65.9H59.9l-0.7,2.8c-0.4,1.7-1.6,3.1-3.2,3.8l9.9,5.3l9.9-5.3C74.3,71.8,73.1,70.4,72.7,68.7z"
		/>
</g>
<g>
	<path class="st2" d="M75.8,72.5c-1.5-0.7-2.7-2.1-3.2-3.8L72,65.9h-5.2l-1.2,4.8c-0.5,2.1-1.7,3.9-3.3,5.1l3.7,2L75.8,72.5z"/>
</g>
<g>
	<path class="st1" d="M89.2,77.1c-1.2-1.5-3-2.6-5.1-3l-7-1.2c-0.5-0.1-0.9-0.2-1.3-0.4l-9.9,5.3v11.8
		C75.6,89.6,84.2,84.6,89.2,77.1z"/>
</g>
<g>
	<path class="st2" d="M89.2,77.1c-1-1.2-2.3-2.1-3.8-2.6l-11,5.9c-0.9,0.5-1.5,1.4-1.5,2.5v5.9C79.7,86.9,85.5,82.7,89.2,77.1z"/>
</g>
<g>
	<path class="st1" d="M56,72.5c-0.4,0.2-0.9,0.3-1.3,0.4l-7,1.2c-2.1,0.4-3.8,1.4-5.1,3c5,7.5,13.6,12.5,23.3,12.5c0,0,0,0,0,0V77.8
		L56,72.5z"/>
</g>
<g>
	<path class="st2" d="M65.9,89.6v-6l-7.3-3.2c-0.8-0.3-1.6-0.4-2.4-0.3l-5.8,1c-1.2,0.2-2.3,0.7-3.2,1.3
		C52.2,86.9,58.8,89.6,65.9,89.6L65.9,89.6z"/>
</g>
<g>
	<path class="st3" d="M65.9,78.8c-0.2,0-0.3,0-0.5-0.1l-9.9-5.3c-0.4-0.2-0.6-0.6-0.6-1c0-0.4,0.3-0.8,0.6-0.9
		c1.3-0.6,2.2-1.7,2.6-3.1l0.7-2.8c0.1-0.5,0.5-0.8,1-0.8H72c0.5,0,0.9,0.3,1,0.8l0.7,2.8c0.3,1.4,1.3,2.5,2.6,3.1
		c0.4,0.2,0.6,0.5,0.6,0.9c0,0.4-0.2,0.8-0.6,1l-9.9,5.3C66.3,78.8,66.1,78.8,65.9,78.8z M58.1,72.4l7.8,4.2l7.8-4.2
		c-1-0.9-1.8-2.1-2.1-3.4l0,0l-0.5-2H60.7l-0.5,2C59.9,70.4,59.1,71.5,58.1,72.4z"/>
</g>
<g>
	<path class="st1" d="M77.9,53.4c0,8.1-5.4,14.6-12,14.6c-6.6,0-12-6.5-12-14.6c0-8,5.4-12.3,12-12.3C72.5,41.1,77.9,45.3,77.9,53.4
		z"/>
</g>
<g>
	<path class="st2" d="M77.9,53.4c0-3.7-1.2-6.6-3.1-8.7c-1.4-0.5-3-0.8-4.7-0.8c-6.6,0-12,4.2-12,12.3c0,4.5,1.7,8.5,4.3,11.1
		c1.1,0.4,2.3,0.6,3.5,0.6C72.5,67.9,77.9,61.4,77.9,53.4z"/>
</g>
<g>
	<path class="st3" d="M65.9,69c-7.2,0-13-7-13-15.6c0-8,5.2-13.3,13-13.3c7.8,0,13,5.4,13,13.3C78.9,62,73.1,69,65.9,69z M65.9,42.1
		c-6.6,0-10.9,4.4-10.9,11.2c0,7.5,4.9,13.5,10.9,13.5s10.9-6.1,10.9-13.5C76.8,46.5,72.6,42.1,65.9,42.1z"/>
</g>
<g>
	<path class="st1" d="M65.9,50.1c-5-1.8-9.1-1.3-11.4-0.8c-0.3,1.2-0.5,2.5-0.5,4c0,8.1,5.4,14.6,12,14.6c6.6,0,12-6.5,12-14.6
		c0-1-0.1-2-0.3-2.9C74.9,51.2,70.4,51.8,65.9,50.1z"/>
</g>
<g>
	<path class="st2" d="M77.6,50.5c-1.4,0.4-3.3,0.7-5.4,0.7C72,59,66.8,65.1,60.3,65.1c-0.5,0-1.1-0.1-1.6-0.1c2,1.8,4.5,2.9,7.2,2.9
		c6.6,0,12-6.5,12-14.6C77.9,52.3,77.8,51.4,77.6,50.5z"/>
</g>
<g>
	<path class="st3" d="M65.9,69c-7.2,0-13-7-13-15.6c0-1.5,0.2-2.9,0.5-4.3c0.1-0.4,0.4-0.7,0.8-0.7c2.7-0.7,7-1.1,12.1,0.8h0
		c4.2,1.5,8.4,1,11.1,0.3c0.3-0.1,0.6,0,0.8,0.1c0.2,0.2,0.4,0.4,0.5,0.7c0.2,1,0.3,2,0.3,3.1C78.9,62,73.1,69,65.9,69z M55.3,50.3
		c-0.2,1-0.3,2-0.3,3.1c0,7.5,4.9,13.5,10.9,13.5s10.9-6.1,10.9-13.5c0-0.5,0-1.1-0.1-1.6c-3,0.6-7.1,0.9-11.2-0.6h0
		C61.3,49.6,57.7,49.8,55.3,50.3z"/>
</g>
<g>
	<path class="st3" d="M65.9,90.6c-0.3,0-0.5-0.1-0.7-0.3c-0.2-0.2-0.3-0.5-0.3-0.7V77.8c0-0.4,0.2-0.7,0.6-0.9l9.9-5.3
		c0.3-0.2,0.6-0.2,0.9,0c0.3,0.2,0.7,0.3,1.1,0.3l7,1.2c2.2,0.4,4.3,1.6,5.7,3.3c0.3,0.4,0.3,0.9,0.1,1.2
		C84.7,85.8,75.7,90.6,65.9,90.6z M67,78.4v10.1C75.3,88.2,83,84,87.9,77.2c-1.1-1.1-2.4-1.8-3.9-2l-7-1.2c-0.4-0.1-0.7-0.2-1.1-0.3
		L67,78.4z"/>
</g>
<g>
	<path class="st3" d="M65.9,90.6c-9.7,0-18.8-4.8-24.2-13c-0.3-0.4-0.2-0.9,0.1-1.2c1.4-1.8,3.5-3,5.7-3.3l7-1.2
		c0.4-0.1,0.7-0.2,1.1-0.3c0.3-0.1,0.6-0.1,0.9,0l9.9,5.3c0.3,0.2,0.6,0.5,0.6,0.9v11.8C67,90.1,66.5,90.6,65.9,90.6z M44,77.2
		c4.9,6.8,12.6,11,20.9,11.3V78.4L56,73.7c-0.4,0.1-0.7,0.2-1.1,0.3l-7,1.2C46.4,75.4,45,76.1,44,77.2z"/>
</g>
<g>
	<path class="st1" d="M28.1,27.6c-2.1,0-3.9-1.7-3.9-3.9c0-2.1,1.7-3.9,3.9-3.9s3.9,1.7,3.9,3.9C32,25.9,30.2,27.6,28.1,27.6z
		 M28.1,22c-1,0-1.8,0.8-1.8,1.8c0,1,0.8,1.8,1.8,1.8c1,0,1.8-0.8,1.8-1.8C29.9,22.8,29.1,22,28.1,22z"/>
</g>
<g>
	<path class="st1" d="M99.5,23.4c-2.1,0-3.9-1.7-3.9-3.9c0-2.1,1.7-3.9,3.9-3.9c2.1,0,3.9,1.7,3.9,3.9
		C103.4,21.7,101.7,23.4,99.5,23.4z M99.5,17.8c-1,0-1.8,0.8-1.8,1.8c0,1,0.8,1.8,1.8,1.8c1,0,1.8-0.8,1.8-1.8
		C101.3,18.6,100.5,17.8,99.5,17.8z"/>
</g>
<g>
	<path class="st1" d="M107.9,33.2c-2.1,0-3.9-1.7-3.9-3.9c0-2.1,1.7-3.9,3.9-3.9c2.1,0,3.9,1.7,3.9,3.9
		C111.8,31.5,110.1,33.2,107.9,33.2z M107.9,27.6c-1,0-1.8,0.8-1.8,1.8c0,1,0.8,1.8,1.8,1.8c1,0,1.8-0.8,1.8-1.8
		C109.7,28.4,108.9,27.6,107.9,27.6z"/>
</g>
<g>
	<path class="st1" d="M23.9,99c-2.1,0-3.9-1.7-3.9-3.9c0-2.1,1.7-3.9,3.9-3.9s3.9,1.7,3.9,3.9C27.8,97.3,26,99,23.9,99z M23.9,93.4
		c-1,0-1.8,0.8-1.8,1.8c0,1,0.8,1.8,1.8,1.8c1,0,1.8-0.8,1.8-1.8C25.7,94.2,24.9,93.4,23.9,93.4z"/>
</g>
<g>
	<path class="st1" d="M35.1,107.4c-2.1,0-3.9-1.7-3.9-3.9c0-2.1,1.7-3.9,3.9-3.9s3.9,1.7,3.9,3.9C39,105.7,37.2,107.4,35.1,107.4z
		 M35.1,101.8c-1,0-1.8,0.8-1.8,1.8c0,1,0.8,1.8,1.8,1.8c1,0,1.8-0.8,1.8-1.8C36.9,102.6,36.1,101.8,35.1,101.8z"/>
</g>
<g>
	<path class="st1" d="M106.5,100.4c-2.1,0-3.9-1.7-3.9-3.9c0-2.1,1.7-3.9,3.9-3.9c2.1,0,3.9,1.7,3.9,3.9
		C110.4,98.7,108.7,100.4,106.5,100.4z M106.5,94.8c-1,0-1.8,0.8-1.8,1.8c0,1,0.8,1.8,1.8,1.8c1,0,1.8-0.8,1.8-1.8
		C108.3,95.6,107.5,94.8,106.5,94.8z"/>
</g>
<g>
	<path class="st3" d="M88.1,67h-5.6c-0.6,0-1.1-0.5-1.1-1.1c0-0.6,0.5-1.1,1.1-1.1h5.6c0.6,0,1.1,0.5,1.1,1.1
		C89.1,66.5,88.7,67,88.1,67z"/>
</g>
<g>
	<path class="st3" d="M85.3,69.8c-0.6,0-1.1-0.5-1.1-1.1v-5.6c0-0.6,0.5-1.1,1.1-1.1c0.6,0,1.1,0.5,1.1,1.1v5.6
		C86.3,69.3,85.9,69.8,85.3,69.8z"/>
</g>
<g>
	<path class="st3" d="M49.4,54.2h-5.6c-0.6,0-1.1-0.5-1.1-1.1s0.5-1.1,1.1-1.1h5.6c0.6,0,1.1,0.5,1.1,1.1S49.9,54.2,49.4,54.2z"/>
</g>
<g>
	<path class="st3" d="M46.6,57c-0.6,0-1.1-0.5-1.1-1.1v-5.6c0-0.6,0.5-1.1,1.1-1.1c0.6,0,1.1,0.5,1.1,1.1v5.6
		C47.6,56.5,47.1,57,46.6,57z"/>
</g>
</svg>
