<?xml version="1.0" standalone="no"?>
<!DOCTYPE svg PUBLIC "-//W3C//DTD SVG 20010904//EN"
 "http://www.w3.org/TR/2001/REC-SVG-20010904/DTD/svg10.dtd">
<svg version="1.0" xmlns="http://www.w3.org/2000/svg"
 width="800.000000pt" height="800.000000pt" viewBox="0 0 800.000000 800.000000"
 preserveAspectRatio="xMidYMid meet">
<metadata>
Created by potrace 1.11, written by Peter Selinger 2001-2013
</metadata>
<g transform="translate(0.000000,800.000000) scale(0.100000,-0.100000)"
fill="#000000" stroke="none">
<path d="M2658 7302 c-8 -2 -60 -65 -115 -140 -56 -75 -187 -254 -292 -397
-105 -143 -255 -347 -334 -453 -78 -106 -146 -201 -152 -210 -5 -9 -13 -19
-16 -22 -6 -5 -116 -154 -228 -309 -25 -35 -95 -129 -154 -210 -178 -241 -215
-291 -303 -411 -46 -63 -87 -120 -91 -125 -29 -37 -71 -95 -89 -120 -16 -24
-338 -462 -414 -565 -63 -85 -201 -272 -229 -311 l-33 -47 113 -153 c63 -85
117 -158 122 -164 4 -5 63 -85 130 -177 276 -377 612 -834 620 -843 4 -5 56
-76 115 -156 185 -253 337 -460 350 -477 27 -37 198 -269 212 -289 8 -12 82
-113 165 -225 82 -112 196 -266 252 -343 56 -77 106 -144 110 -150 5 -5 33
-44 63 -85 30 -41 57 -77 60 -80 3 -3 21 -27 40 -55 68 -99 -19 -88 730 -88
553 0 664 2 675 14 15 15 228 305 303 411 26 37 49 67 52 67 3 1 41 -49 85
-110 43 -60 87 -120 96 -132 10 -12 56 -74 102 -137 l85 -115 661 1 c513 1
664 4 676 14 8 7 36 42 62 79 26 36 55 75 64 86 10 11 114 151 234 310 119
160 227 304 239 320 13 17 121 161 240 320 119 160 227 304 240 320 13 17 121
161 240 320 119 160 222 297 229 305 7 8 58 77 115 153 l103 137 -118 161
c-65 89 -166 227 -225 308 -59 80 -118 159 -130 175 -13 15 -34 45 -48 65 -62
90 -162 221 -168 221 -4 0 -25 -26 -48 -58 -23 -31 -186 -255 -364 -497 -177
-242 -377 -514 -443 -605 -67 -91 -158 -214 -202 -275 -45 -60 -218 -297 -385
-525 -167 -228 -305 -417 -308 -420 -3 -3 -7 0 -9 6 -2 7 -23 36 -46 66 -23
30 -50 65 -59 79 -10 13 -53 71 -95 129 -174 235 -157 207 -137 238 9 15 49
70 88 122 38 52 101 138 140 190 38 52 86 118 106 145 21 28 174 237 340 465
167 228 328 449 358 490 104 141 129 175 226 307 l98 133 -22 35 c-12 20 -27
41 -34 48 -6 6 -49 64 -96 127 -47 63 -87 117 -90 120 -3 3 -17 21 -30 40 -14
19 -30 42 -37 50 -7 8 -111 146 -230 306 -120 159 -230 306 -244 325 -14 19
-93 124 -175 234 -82 110 -152 205 -157 210 -8 10 -202 269 -232 310 -8 11
-25 34 -38 50 l-22 31 -654 -1 -654 0 -24 -30 c-13 -17 -177 -237 -364 -490
-187 -253 -349 -471 -360 -485 -10 -14 -80 -108 -155 -210 -192 -260 -307
-415 -392 -528 -41 -53 -78 -104 -83 -114 -7 -13 18 -52 107 -175 160 -217
203 -276 217 -293 7 -8 37 -49 67 -90 57 -78 175 -239 290 -395 37 -49 149
-202 250 -340 101 -137 194 -263 207 -280 130 -172 242 -332 239 -341 -5 -14
-312 -431 -339 -461 l-20 -22 -46 64 c-51 71 -281 384 -294 400 -4 6 -39 53
-77 105 -38 52 -73 100 -77 105 -5 6 -33 44 -63 85 -30 41 -58 80 -63 85 -4 6
-44 60 -88 120 -44 61 -89 121 -99 135 -10 14 -186 252 -390 530 -204 278
-378 515 -388 527 -9 12 -24 31 -32 43 -8 12 -39 54 -67 93 -29 39 -53 75 -53
81 1 9 146 214 179 253 10 12 32 42 100 139 19 27 37 51 40 54 3 3 17 21 31
40 13 19 148 204 299 410 151 206 322 440 380 520 58 80 109 150 113 155 5 6
26 35 48 65 22 30 43 60 47 65 5 6 82 111 172 235 91 124 211 288 267 365 86
116 275 374 553 755 26 36 79 107 117 159 38 52 67 97 64 99 -5 5 -1276 9
-1302 4z m2012 -2822 c194 -261 355 -482 357 -491 3 -10 -33 -68 -91 -145 -53
-71 -102 -138 -110 -149 -86 -117 -428 -583 -462 -628 l-43 -58 -113 153 c-63
84 -138 187 -168 228 -30 41 -60 82 -67 90 -6 8 -48 65 -92 125 -44 61 -84
115 -88 120 -5 6 -22 28 -38 50 -66 91 -110 150 -116 155 -3 3 -8 12 -12 20
-4 8 -12 22 -19 31 -12 17 3 38 582 831 63 86 118 153 121 150 4 -4 165 -221
359 -482z"/>
</g>
</svg>
