<svg xmlns="http://www.w3.org/2000/svg" viewBox="0 0 128 128"><path d="M110.9 116.5H17.1c-3.7 0-6.7-3-6.7-6.7V58.4c0-3.7 3-6.7 6.7-6.7h56.7l6.1-12.2c.4-.8 1.2-1.2 2-1.2h29c3.7 0 6.7 3 6.7 6.7v64.8c0 3.7-3 6.7-6.7 6.7zM17.1 56.2c-1.2 0-2.2 1-2.2 2.2v51.4c0 1.2 1 2.2 2.2 2.2h93.8c1.2 0 2.2-1 2.2-2.2V45c0-1.2-1-2.2-2.2-2.2H83.2L77.1 55c-.4.8-1.2 1.2-2 1.2h-58z"/><path d="M66.2 42.8H14.8c-1.2 0-2.2-1-2.2-2.2 0-1.2 1-2.2 2.2-2.2h50l6.1-12.2c.4-.8 1.2-1.2 2-1.2h33.5c3.6.2 6.5 3.1 6.7 6.6.1 1.2-.8 2.3-2.1 2.4-1.2.1-2.3-.8-2.4-2.1-.1-1.3-1.1-2.3-2.4-2.4h-32l-6.1 12.2c-.2.6-1 1.1-1.9 1.1z"/><path d="M57.3 29.4H14.9c-1.2 0-2.2-1-2.2-2.2s1-2.2 2.2-2.2H56l6.1-12.2c.4-.8 1.2-1.2 2-1.2h38.1c3.7.1 6.6 3 6.7 6.6 0 1.2-.9 2.3-2.2 2.3-1.2.1-2.3-.9-2.3-2.2 0-1.3-1.1-2.3-2.3-2.3H65.5l-6.1 12.2c-.5.7-1.3 1.2-2.1 1.2zM39.4 74.1H23.8c-1.2 0-2.2-1-2.2-2.2 0-1.2 1-2.2 2.2-2.2h15.6c1.2 0 2.2 1 2.2 2.2.1 1.2-.9 2.2-2.2 2.2zM46.1 85.2H23.8c-1.2 0-2.2-1-2.2-2.2 0-1.2 1-2.2 2.2-2.2h22.3c1.2 0 2.2 1 2.2 2.2.1 1.2-.9 2.2-2.2 2.2zM46.1 96.4H23.8c-1.2 0-2.2-1-2.2-2.2 0-1.2 1-2.2 2.2-2.2h22.3c1.2 0 2.2 1 2.2 2.2.1 1.2-.9 2.2-2.2 2.2zM102 69.6L77.4 94.2 61.8 78.5l6.7-6.7 8.8 8.9 17.9-17.9z"/></svg>