<svg xmlns="http://www.w3.org/2000/svg" viewBox="0 0 128 128"><path d="M101.6 29.3v83.2H30.3c-2.2 0-4-1.8-4-4s1.8-4 4-4h67.4V17.4H28.3c-3.3 0-5.9 2.7-5.9 5.9v85.2c0 4.4 3.6 7.9 7.9 7.9h75.3V29.3h-4zm-7.9-7.9v79.3H38.2V21.4h55.5zm-65.4 0h5.9v79.3h-4c-1.5 0-2.8.4-4 1.1V23.4c.2-1.1 1-2 2.1-2z"/><path d="M46.2 69.2h39.6v4H46.2zM46.2 57.3h39.6v4H46.2zM46.2 81.1h31.7v4H46.2zM71.7 11.5H60.1c-1.1 0-2.1.9-2.1 2.1v28.6c0 1.8 2.1 2.7 3.4 1.6l8.9-6.3c.8-.7 1.9-.7 2.7 0l8.9 6.3c1.3 1.2 3.4.2 3.4-1.6V13.6c0-1.1-.9-2.1-2.1-2.1H71.7z"/></svg>