<?xml version="1.0" encoding="utf-8"?>
<!-- Generator: Adobe Illustrator 24.0.3, SVG Export Plug-In . SVG Version: 6.00 Build 0)  -->
<svg version="1.1" id="Layer_1" xmlns="http://www.w3.org/2000/svg" xmlns:xlink="http://www.w3.org/1999/xlink" x="0px" y="0px"
	 viewBox="0 0 128 128" style="enable-background:new 0 0 128 128;" xml:space="preserve">
<path d="M102.9,10h-38h-38c-3.8,0-6.8,3-6.8,6.8v93.7c0,5.8,6.9,9,11.3,5.1l29.1-20.8c2.6-2.2,6.4-2.2,8.9,0l29.1,20.8
	c4.4,3.8,11.3,0.7,11.3-5.1V16.8C109.7,13.1,106.7,10,102.9,10z M91.1,52.1c0,0.1-0.1,0.3-0.1,0.4c0,0.2-0.1,0.3-0.1,0.5
	c-0.1,0.2-0.2,0.3-0.2,0.4c-0.1,0.1-0.1,0.2-0.2,0.4c-0.2,0.3-0.4,0.5-0.6,0.7l-19,19c-0.9,0.9-2.1,1.3-3.3,1.3s-2.4-0.4-3.3-1.3
	c-1.8-1.8-1.8-4.7,0-6.5l11.1-11.1H43.3c-2.5,0-4.6-2.1-4.6-4.6s2.1-4.6,4.6-4.6h32.2L64.3,35.4c-1.8-1.8-1.8-4.7,0-6.5
	c1.8-1.8,4.7-1.8,6.5,0l19,19c0.2,0.2,0.4,0.5,0.6,0.7c0.1,0.1,0.1,0.2,0.2,0.4c0.1,0.1,0.2,0.3,0.2,0.4c0.1,0.2,0.1,0.3,0.1,0.5
	c0,0.1,0.1,0.3,0.1,0.4C91.2,50.8,91.2,51.5,91.1,52.1z"/>
</svg>
