<svg xmlns="http://www.w3.org/2000/svg" viewBox="0 0 128 128"><path d="M115.3 29.9H12.7c-.7 0-1.2-.5-1.2-1.2V17.5c0-3.3 2.7-6 6-6h93c3.3 0 6 2.7 6 6v11.2c0 .7-.5 1.2-1.2 1.2zM13.9 27.5h100.2v-10c0-2-1.6-3.6-3.6-3.6h-93c-2 0-3.6 1.6-3.6 3.6v10z"/><path d="M105.7 22.3c-.4 0-.8-.2-1.1-.5-.3-.3-.5-.7-.5-1.1 0-.4.2-.8.5-1.1.6-.6 1.7-.6 2.3 0 .3.3.5.7.5 1.1 0 .4-.2.8-.5 1.1-.4.3-.8.5-1.2.5zM94.5 20.7c0-.9.7-1.6 1.6-1.6.9 0 1.6.7 1.6 1.6 0 .9-.7 1.6-1.6 1.6-.9 0-1.6-.7-1.6-1.6zM86.4 22.3c-.4 0-.8-.2-1.1-.5-.3-.3-.5-.7-.5-1.1 0-.4.2-.8.5-1.1.6-.6 1.7-.6 2.3 0 .3.3.5.7.5 1.1 0 .4-.2.8-.5 1.1-.3.3-.7.5-1.2.5zM7.9 85.7H1.5c-.7 0-1.2-.5-1.2-1.2s.5-1.2 1.2-1.2h6.4c.7 0 1.2.5 1.2 1.2s-.5 1.2-1.2 1.2z"/><path d="M4.7 88.9c-.7 0-1.2-.5-1.2-1.2v-6.4c0-.7.5-1.2 1.2-1.2s1.2.5 1.2 1.2v6.4c0 .7-.6 1.2-1.2 1.2z"/><circle cx="4.7" cy="74.9" r="1.2"/><circle cx="4.7" cy="70.1" r="1.2"/><circle cx="4.7" cy="63.6" r="1.2"/><circle cx="4.7" cy="54" r="1.2"/><path d="M126.5 39.6h-6.4c-.7 0-1.2-.5-1.2-1.2s.5-1.2 1.2-1.2h6.4c.7 0 1.2.5 1.2 1.2s-.5 1.2-1.2 1.2z"/><path d="M123.3 42.8c-.7 0-1.2-.5-1.2-1.2v-6.4c0-.7.5-1.2 1.2-1.2s1.2.5 1.2 1.2v6.4c0 .7-.5 1.2-1.2 1.2z"/><circle cx="123.3" cy="48" r="1.2"/><circle cx="123.3" cy="52.8" r="1.2"/><circle cx="123.3" cy="59.2" r="1.2"/><circle cx="123.3" cy="68.9" r="1.2"/><path d="M88.8 49.2H71.2c-.7 0-1.2-.5-1.2-1.2s.5-1.2 1.2-1.2h17.6c.7 0 1.2.5 1.2 1.2 0 .6-.5 1.2-1.2 1.2zM88.8 57.2h-4c-.7 0-1.2-.5-1.2-1.2s.5-1.2 1.2-1.2h4c.7 0 1.2.5 1.2 1.2s-.5 1.2-1.2 1.2zM80 57.2h-8.8c-.7 0-1.2-.5-1.2-1.2s.5-1.2 1.2-1.2H80c.7 0 1.2.5 1.2 1.2s-.5 1.2-1.2 1.2zM85.6 65.2H71.2c-.7 0-1.2-.5-1.2-1.2s.5-1.2 1.2-1.2h14.4c.7 0 1.2.5 1.2 1.2s-.5 1.2-1.2 1.2zM88.8 73.2h-7.2c-.7 0-1.2-.5-1.2-1.2s.5-1.2 1.2-1.2h7.2c.7 0 1.2.5 1.2 1.2s-.5 1.2-1.2 1.2zM76.8 73.2h-5.6c-.7 0-1.2-.5-1.2-1.2s.5-1.2 1.2-1.2h5.6c.7 0 1.2.5 1.2 1.2s-.5 1.2-1.2 1.2zM88.8 81.2H71.2c-.7 0-1.2-.5-1.2-1.2s.5-1.2 1.2-1.2h17.6c.7 0 1.2.5 1.2 1.2s-.5 1.2-1.2 1.2zM88.8 89.3h-7.2c-.7 0-1.2-.5-1.2-1.2s.5-1.2 1.2-1.2h7.2c.7 0 1.2.5 1.2 1.2 0 .6-.5 1.2-1.2 1.2zM76.8 89.3h-5.6c-.7 0-1.2-.5-1.2-1.2s.5-1.2 1.2-1.2h5.6c.7 0 1.2.5 1.2 1.2 0 .6-.5 1.2-1.2 1.2zM84 97.3H71.2c-.7 0-1.2-.5-1.2-1.2s.5-1.2 1.2-1.2H84c.7 0 1.2.5 1.2 1.2 0 .6-.5 1.2-1.2 1.2zM56.8 49.2h-7.2c-.7 0-1.2-.5-1.2-1.2s.5-1.2 1.2-1.2h7.2c.7 0 1.2.5 1.2 1.2 0 .6-.6 1.2-1.2 1.2zM44.8 49.2h-5.6c-.7 0-1.2-.5-1.2-1.2s.5-1.2 1.2-1.2h5.6c.7 0 1.2.5 1.2 1.2 0 .6-.6 1.2-1.2 1.2zM53.6 57.2H39.1c-.7 0-1.2-.5-1.2-1.2s.5-1.2 1.2-1.2h14.4c.7 0 1.2.5 1.2 1.2.1.7-.5 1.2-1.1 1.2zM56.8 65.2h-4c-.7 0-1.2-.5-1.2-1.2s.5-1.2 1.2-1.2h4c.7 0 1.2.5 1.2 1.2s-.6 1.2-1.2 1.2zM48 65.2h-8.8c-.7 0-1.2-.5-1.2-1.2s.5-1.2 1.2-1.2H48c.7 0 1.2.5 1.2 1.2s-.6 1.2-1.2 1.2zM56.8 73.2H39.1c-.7 0-1.2-.5-1.2-1.2s.5-1.2 1.2-1.2h17.6c.7 0 1.2.5 1.2 1.2.1.7-.5 1.2-1.1 1.2zM56.8 81.2h-4c-.7 0-1.2-.5-1.2-1.2s.5-1.2 1.2-1.2h4c.7 0 1.2.5 1.2 1.2s-.6 1.2-1.2 1.2zM48 81.2h-8.8c-.7 0-1.2-.5-1.2-1.2s.5-1.2 1.2-1.2H48c.7 0 1.2.5 1.2 1.2s-.5 1.2-1.2 1.2zM56.8 89.3H39.1c-.7 0-1.2-.5-1.2-1.2s.5-1.2 1.2-1.2h17.6c.7 0 1.2.5 1.2 1.2.1.6-.5 1.2-1.1 1.2zM50.4 97.3H39.1c-.7 0-1.2-.5-1.2-1.2s.5-1.2 1.2-1.2h11.2c.7 0 1.2.5 1.2 1.2.1.6-.5 1.2-1.1 1.2zM64 116.5z"/><path d="M104.1 45.2h-6.8v2.4h6.8c.2 0 .4.2.4.4v65.7c0 .2-.2.4-.4.4H65.3c-.1.4-.1.8-.1 1.2 0 .7-.5 1.2-1.2 1.2h40.1c1.5 0 2.8-1.3 2.8-2.8V48c0-1.6-1.3-2.8-2.8-2.8zM62.8 115.3c0-.4-.1-.8-.1-1.2H23.9c-.2 0-.4-.2-.4-.4V48c0-.2.2-.4.4-.4h6.8v-2.4h-6.8c-1.5 0-2.8 1.3-2.8 2.8v65.7c0 1.5 1.3 2.8 2.8 2.8H64c-.7 0-1.2-.5-1.2-1.2z"/><path d="M96.1 37.1H73.6c-4.2 0-7.8 2.4-9.6 5.9-1.8-3.5-5.4-5.9-9.6-5.9H31.9c-.7 0-1.2.5-1.2 1.2v67.3c0 .7.5 1.2 1.2 1.2h22.4c4.6 0 8.4 3.8 8.4 8.4 0 .7.5 1.2 1.2 1.2s1.2-.5 1.2-1.2c0-4.6 3.8-8.4 8.4-8.4h22.4c.7 0 1.2-.5 1.2-1.2V38.4c.2-.7-.4-1.3-1-1.3zm-33.3 71.4c-2-2.5-5-4-8.4-4H33.1V39.6h21.2c4.6 0 8.4 3.8 8.4 8.4v60.5zm32.1-4H73.6c-3.4 0-6.4 1.6-8.4 4V48c0-4.6 3.8-8.4 8.4-8.4h21.2v64.9z"/><g><path d="M115.3 27.5H12.7c-.7 0-1.2.5-1.2 1.2v72.1c0 3.3 2.7 6 6 6h5.6c-.7 0-1.2-.5-1.2-1.2v-1.2h-4.4c-2 0-3.6-1.6-3.6-3.6V29.9h100.2v70.9c0 2-1.6 3.6-3.6 3.6H106v1.2c0 .7-.5 1.2-1.2 1.2h5.7c3.3 0 6-2.7 6-6V28.7c0-.6-.5-1.2-1.2-1.2z"/></g></svg>