<svg xmlns="http://www.w3.org/2000/svg" viewBox="0 0 128 128"><path d="M110.6 116.5h-93c-3.3 0-6-2.7-6-6V28.7c0-.7.5-1.2 1.2-1.2h102.6c.7 0 1.2.5 1.2 1.2v81.8c0 3.3-2.7 6-6 6zM14 29.9v80.6c0 2 1.6 3.6 3.6 3.6h93c2 0 3.6-1.6 3.6-3.6V29.9H14z"/><path d="M71.4 78H25.7c-2.4 0-4.4-2-4.4-4.4v-32c0-2.4 2-4.4 4.4-4.4h45.7c2.4 0 4.4 2 4.4 4.4v32.1c0 2.3-2 4.3-4.4 4.3zM25.7 39.6c-1.1 0-2 .9-2 2v32.1c0 1.1.9 2 2 2h45.7c1.1 0 2-.9 2-2V41.6c0-1.1-.9-2-2-2H25.7zM41.7 106.9H24.1c-1.5 0-2.8-1.3-2.8-2.8V88c0-1.5 1.3-2.8 2.8-2.8h17.6c1.5 0 2.8 1.3 2.8 2.8v16c0 1.6-1.3 2.9-2.8 2.9zM24.1 87.6c-.2 0-.4.2-.4.4v16c0 .2.2.4.4.4h17.6c.2 0 .4-.2.4-.4V88c0-.2-.2-.4-.4-.4H24.1zM73 106.9H55.3c-1.5 0-2.8-1.3-2.8-2.8V88c0-1.5 1.3-2.8 2.8-2.8H73c1.5 0 2.8 1.3 2.8 2.8v16c0 1.6-1.3 2.9-2.8 2.9zM55.3 87.6c-.2 0-.4.2-.4.4v16c0 .2.2.4.4.4H73c.2 0 .4-.2.4-.4V88c0-.2-.2-.4-.4-.4H55.3zM104.2 106.9H86.6c-1.5 0-2.8-1.3-2.8-2.8V88c0-1.5 1.3-2.8 2.8-2.8h17.6c1.5 0 2.8 1.3 2.8 2.8v16c0 1.6-1.2 2.9-2.8 2.9zM86.6 87.6c-.2 0-.4.2-.4.4v16c0 .2.2.4.4.4h17.6c.2 0 .4-.2.4-.4V88c0-.2-.2-.4-.4-.4H86.6z"/><path d="M43.4 69.2c-.2 0-.4 0-.5-.1-.4-.2-.7-.6-.7-1.1V47.2c0-.5.3-.9.7-1.1.4-.2.9-.2 1.3.1l14.4 10.4c.3.2.5.6.5 1s-.2.7-.5 1L44.1 69c-.3.1-.5.2-.7.2zm1.2-19.7v16.1l11.2-8.1-11.2-8zM115.4 29.9H12.8c-.7 0-1.2-.5-1.2-1.2V17.5c0-3.3 2.7-6 6-6h93c3.3 0 6 2.7 6 6v11.2c0 .7-.5 1.2-1.2 1.2zM14 27.5h100.2v-10c0-2-1.6-3.6-3.6-3.6h-93c-2 0-3.6 1.6-3.6 3.6v10z"/><path d="M88.2 22.3c-.4 0-.8-.2-1.1-.5-.3-.3-.5-.7-.5-1.1s.2-.8.5-1.1c.6-.6 1.7-.6 2.3 0 .3.3.5.7.5 1.1 0 .4-.2.8-.5 1.1-.4.3-.8.5-1.2.5zM95.4 20.7c0-.9.7-1.6 1.6-1.6.9 0 1.6.7 1.6 1.6 0 .9-.7 1.6-1.6 1.6-.9 0-1.6-.7-1.6-1.6zM105.8 22.3c-.4 0-.9-.2-1.1-.5-.3-.3-.5-.7-.5-1.1 0-.4.2-.8.5-1.1.6-.6 1.7-.6 2.3 0 .3.3.5.7.5 1.1 0 .4-.2.8-.5 1.1-.3.3-.8.5-1.2.5zM105.8 39.6h-6.6c-.7 0-1.2-.5-1.2-1.2s.5-1.2 1.2-1.2h6.6c.7 0 1.2.5 1.2 1.2 0 .6-.5 1.2-1.2 1.2zM94.5 39.6H85c-.7 0-1.2-.5-1.2-1.2s.5-1.2 1.2-1.2h9.5c.7 0 1.2.5 1.2 1.2 0 .6-.6 1.2-1.2 1.2zM105.8 49.2H95.4c-.7 0-1.2-.5-1.2-1.2s.5-1.2 1.2-1.2h10.4c.7 0 1.2.5 1.2 1.2 0 .6-.5 1.2-1.2 1.2zM90.6 49.2H85c-.7 0-1.2-.5-1.2-1.2s.5-1.2 1.2-1.2h5.6c.7 0 1.2.5 1.2 1.2 0 .6-.5 1.2-1.2 1.2zM101 58.8H85c-.7 0-1.2-.5-1.2-1.2s.5-1.2 1.2-1.2h16c.7 0 1.2.5 1.2 1.2s-.5 1.2-1.2 1.2zM105.8 68.4H95.4c-.7 0-1.2-.5-1.2-1.2s.5-1.2 1.2-1.2h10.4c.7 0 1.2.5 1.2 1.2s-.5 1.2-1.2 1.2zM90.6 68.4H85c-.7 0-1.2-.5-1.2-1.2S84.3 66 85 66h5.6c.7 0 1.2.5 1.2 1.2s-.5 1.2-1.2 1.2zM96.2 78H85c-.7 0-1.2-.5-1.2-1.2s.5-1.2 1.2-1.2h11.2c.7 0 1.2.5 1.2 1.2s-.5 1.2-1.2 1.2zM28 68.4c-.7 0-1.2-.5-1.2-1.2V54.9c0-.7.5-1.2 1.2-1.2s1.2.5 1.2 1.2v12.3c0 .7-.6 1.2-1.2 1.2zM28 49.7c-.7 0-1.2-.5-1.2-1.2v-3.7c0-.7.5-1.2 1.2-1.2s1.2.5 1.2 1.2v3.7c0 .6-.6 1.2-1.2 1.2zM126.7 97.1h-6.4c-.7 0-1.2-.5-1.2-1.2s.5-1.2 1.2-1.2h6.4c.7 0 1.2.5 1.2 1.2s-.6 1.2-1.2 1.2z"/><path d="M123.5 100.3c-.7 0-1.2-.5-1.2-1.2v-6.4c0-.7.5-1.2 1.2-1.2s1.2.5 1.2 1.2v6.4c0 .7-.6 1.2-1.2 1.2z"/><circle cx="123.5" cy="86.3" r="1.2"/><circle cx="123.5" cy="81.5" r="1.2"/><circle cx="123.5" cy="75.1" r="1.2"/><circle cx="123.5" cy="65.4" r="1.2"/><path d="M7.8 47.8H1.3c-.7 0-1.2-.5-1.2-1.2s.5-1.2 1.2-1.2h6.4c.7 0 1.2.5 1.2 1.2.1.7-.5 1.2-1.1 1.2z"/><path d="M4.5 51c-.7 0-1.2-.5-1.2-1.2v-6.4c0-.7.5-1.2 1.2-1.2s1.2.5 1.2 1.2v6.4c0 .7-.5 1.2-1.2 1.2z"/><circle cx="4.5" cy="56.2" r="1.2"/><circle cx="4.5" cy="62.6" r="1.2"/><circle cx="4.5" cy="70.7" r="1.2"/><circle cx="4.5" cy="83.5" r="1.2"/></svg>