<svg version="1.1" id="Warstwa_1" xmlns="http://www.w3.org/2000/svg" x="0" y="0" viewBox="0 0 128 128" xml:space="preserve"><style>.st0{fill:#090909}</style><path class="st0" d="M123.7 27.7v12.6c0 1.4-1.5 2.6-3.3 2.6H7.6c-1.8 0-3.3-1.2-3.3-2.6V27.7c0-1.4 1.5-2.6 3.3-2.6h112.8c1.8 0 3.3 1.2 3.3 2.6zM123.7 57.7v12.6c0 1.4-1.5 2.6-3.3 2.6H7.6c-1.8 0-3.3-1.2-3.3-2.6V57.7c0-1.4 1.5-2.6 3.3-2.6h112.8c1.8 0 3.3 1.2 3.3 2.6zM83.7 87.7v12.6c0 1.4-1.5 2.6-3.3 2.6H7.6c-1.8 0-3.3-1.2-3.3-2.6V87.7c0-1.4 1.5-2.6 3.3-2.6h72.8c1.8 0 3.3 1.2 3.3 2.6z"/></svg>