<svg xmlns="http://www.w3.org/2000/svg" viewBox="0 0 128 128"><path d="M84.8 116.5H43.2c-.7 0-1.2-.5-1.2-1.2v-9.6c0-.7.5-1.2 1.2-1.2h41.7c.7 0 1.2.5 1.2 1.2v9.6c-.1.7-.6 1.2-1.3 1.2zm-40.4-2.4h39.3v-7.2H44.4v7.2z"/><path d="M110.5 106.9h-93c-3.3 0-6-2.7-6-6v-4.8c0-.7.5-1.2 1.2-1.2h102.6c.7 0 1.2.5 1.2 1.2v4.8c0 3.3-2.7 6-6 6zm-96.6-9.6v3.6c0 2 1.6 3.6 3.6 3.6h93c2 0 3.6-1.6 3.6-3.6v-3.6H13.9zM96.1 116.5H31.9c-.7 0-1.2-.5-1.2-1.2s.5-1.2 1.2-1.2H96c.7 0 1.2.5 1.2 1.2.1.7-.5 1.2-1.1 1.2z"/><circle cx="64" cy="100.9" r="1.2"/><path d="M49.6 60.4H36.7c-2.4 0-4.4-2-4.4-4.4V43.2c0-2.4 2-4.4 4.4-4.4h12.8c2.4 0 4.4 2 4.4 4.4V56c.1 2.4-1.9 4.4-4.3 4.4zM36.7 41.2c-1.1 0-2 .9-2 2V56c0 1.1.9 2 2 2h12.8c1.1 0 2-.9 2-2V43.2c0-1.1-.9-2-2-2H36.7zM49.6 89.2H36.7c-2.4 0-4.4-2-4.4-4.4V72c0-2.4 2-4.4 4.4-4.4h12.8c2.4 0 4.4 2 4.4 4.4v12.8c.1 2.5-1.9 4.4-4.3 4.4zM36.7 70c-1.1 0-2 .9-2 2v12.8c0 1.1.9 2 2 2h12.8c1.1 0 2-.9 2-2V72c0-1.1-.9-2-2-2H36.7zM100.9 26.7H27.1c-.7 0-1.2-.5-1.2-1.2v-9.6c0-2.4 2-4.4 4.4-4.4h67.3c2.4 0 4.4 2 4.4 4.4v9.6c.1.7-.5 1.2-1.1 1.2zm-72.6-2.4h71.3v-8.4c0-1.1-.9-2-2-2H30.3c-1.1 0-2 .9-2 2v8.4z"/><path d="M92.9 20.3c-.3 0-.6-.1-.9-.4-.2-.2-.4-.5-.4-.8 0-.3.1-.6.4-.9.4-.4 1.3-.4 1.7 0 .2.2.4.5.4.9 0 .3-.1.6-.4.8-.2.3-.5.4-.8.4zM83.6 19.1c0-.7.5-1.2 1.2-1.2s1.2.5 1.2 1.2-.5 1.2-1.2 1.2c-.6 0-1.2-.5-1.2-1.2zM76.8 20.3c-.3 0-.6-.1-.9-.4-.2-.2-.4-.5-.4-.8 0-.3.1-.6.3-.9.5-.5 1.3-.4 1.7 0 .2.2.4.5.4.9 0 .3-.1.6-.4.8 0 .3-.4.4-.7.4zM47.2 83.6c-.3 0-.6-.1-.8-.4l-8-8c-.5-.5-.5-1.2 0-1.7s1.2-.5 1.7 0l8 8c.5.5.5 1.2 0 1.7-.3.3-.6.4-.9.4z"/><path d="M39.2 83.6c-.3 0-.6-.1-.8-.4-.5-.5-.5-1.2 0-1.7l8-8c.5-.5 1.2-.5 1.7 0s.5 1.2 0 1.7l-8 8c-.3.3-.6.4-.9.4zM41.6 55.6c-.3 0-.6-.1-.8-.4l-3.4-3.4c-.5-.5-.5-1.2 0-1.7s1.2-.5 1.7 0l2.6 2.6 5.7-5.7c.5-.5 1.2-.5 1.7 0s.5 1.2 0 1.7l-6.6 6.6c-.3.2-.6.3-.9.3zM72 54.8H60.8c-.7 0-1.2-.5-1.2-1.2s.5-1.2 1.2-1.2H72c.7 0 1.2.5 1.2 1.2 0 .6-.5 1.2-1.2 1.2zM89.6 46.8H78.4c-.7 0-1.2-.5-1.2-1.2s.5-1.2 1.2-1.2h11.2c.7 0 1.2.5 1.2 1.2 0 .6-.5 1.2-1.2 1.2zM72 46.8H60.8c-.7 0-1.2-.5-1.2-1.2s.5-1.2 1.2-1.2H72c.7 0 1.2.5 1.2 1.2 0 .6-.5 1.2-1.2 1.2zM84.8 83.6h-24c-.7 0-1.2-.5-1.2-1.2s.5-1.2 1.2-1.2h24c.7 0 1.2.5 1.2 1.2s-.5 1.2-1.2 1.2zM81.6 75.6h-8c-.7 0-1.2-.5-1.2-1.2s.5-1.2 1.2-1.2h8c.7 0 1.2.5 1.2 1.2s-.5 1.2-1.2 1.2zM67.2 75.6h-6.4c-.7 0-1.2-.5-1.2-1.2s.5-1.2 1.2-1.2h6.4c.7 0 1.2.5 1.2 1.2s-.5 1.2-1.2 1.2zM89.3 78c-.5 0-1-.3-1.1-.8l-7.7-22.4c-.2-.4 0-.9.3-1.2.3-.3.8-.4 1.2-.3l22.4 7.7c.5.2.8.6.8 1.1 0 .5-.3 1-.7 1.2l-9.8 4.4-4.4 9.8c-.1.2-.5.5-1 .5zm-5.7-21.7l5.9 17.2 3.3-7.4c.1-.3.3-.5.6-.6l7.4-3.3-17.2-5.9zM19.1 71.6c-.7 0-1.2-.5-1.2-1.2V53.3c0-.7.5-1.2 1.2-1.2s1.2.5 1.2 1.2v17.2c0 .6-.5 1.1-1.2 1.1zM19.1 48c-.7 0-1.2-.5-1.2-1.2v-3.7c0-.7.5-1.2 1.2-1.2s1.2.5 1.2 1.2v3.7c0 .7-.5 1.2-1.2 1.2zM28.3 30.7v-4h71.3v4h2.4v-5.2c0-.7-.5-1.2-1.2-1.2H27.1c-.7 0-1.2.5-1.2 1.2v5.2h2.4z"/><path d="M115.3 97.3H12.7c-.7 0-1.2-.5-1.2-1.2V36.7c0-3.3 2.7-6 6-6h93c3.3 0 6 2.7 6 6V96c0 .7-.5 1.3-1.2 1.3zM13.9 94.9h100.2V36.7c0-2-1.6-3.6-3.6-3.6h-93c-2 0-3.6 1.6-3.6 3.6v58.2z"/></svg>