<svg xmlns="http://www.w3.org/2000/svg" viewBox="0 0 128 128"><circle cx="86.6" cy="29.4" r="17.9"/><path d="M38.4 81.9c-10.8 0-19.7-8.8-19.7-19.7s8.8-19.7 19.7-19.7S58 51.3 58 62.2s-8.8 19.7-19.6 19.7zm0-35.8c-8.8 0-16 7.2-16 16s7.2 16 16 16 16-7.2 16-16-7.2-16-16-16zM89.6 116.5c-10.8 0-19.7-8.8-19.7-19.7s8.8-19.7 19.7-19.7 19.7 8.8 19.7 19.7-8.8 19.7-19.7 19.7zm0-35.7c-8.8 0-16 7.2-16 16s7.2 16 16 16 16-7.2 16-16c.1-8.8-7.1-16-16-16z"/><path d="M51.654 74.49l2.707-4.084 21.921 14.531-2.707 4.084zM51.446 49.759l21.921-14.53 2.707 4.083-21.92 14.531zM49.5 42.6c-.8 0-1.6-.4-2-1.1-.7-1.1-.4-2.6.7-3.4l13.2-8.8c1.1-.7 2.6-.4 3.4.7.7 1.1.4 2.6-.7 3.4l-13.2 8.8c-.5.3-.9.4-1.4.4zM75.9 79c-.5 0-.9-.1-1.3-.4l-13.2-8.8c-1.1-.7-1.4-2.2-.7-3.4.7-1.1 2.2-1.4 3.4-.7l13.2 8.8c1.1.7 1.4 2.2.7 3.4-.5.8-1.3 1.1-2.1 1.1z"/></svg>