<svg xmlns="http://www.w3.org/2000/svg" viewBox="0 0 128 128"><path d="M64 11.5c-28.9 0-52.5 23.6-52.5 52.5s23.6 52.5 52.5 52.5 52.5-23.6 52.5-52.5S92.9 11.5 64 11.5zm30.4 33.4c0 .2 0 .5-.3 1-1.4 1.9-3 3.6-4.9 5.1-.3.2-.7.4-.7.8 0 10.1-2.6 20.2-10 27.5-9.4 9.3-23.5 11.9-36 8.4-2.4-.7-4.7-1.6-7-2.8-.7-.4-1.5-.8-2.2-1.3-.2-.1-.3-.3-.2-.4.2-.1.3-.1.8 0 3.5.3 7.1-.2 10.4-1.3 1.8-.6 5.7-1.9 6.9-3.6 0 0 .1 0 .1-.1-.5-.1-.9-.1-1.4-.2-3.4-1-7.9-2.7-10-8.4-.1-.3 0-.5.3-.4 2.8.2 3.8.1 4.8-.1-.5-.1-1.1-.3-1.6-.5-4.3-1.6-7.4-5.8-8-10.3-.1-.5-.1-1-.1-1.4 0-.3.2-.4.5-.3 2.2 1.1 4.7 1.4 4.9 1.4-.5-.4-1.1-.9-1.6-1.4-3.7-3.5-5.2-10.7-2.2-15.1.2-.4.4-.4.7 0 6.8 7.7 15.1 11.3 25.2 12.8.3 0 .3 0 .3-.3-.3-1.8-.3-3.5.1-5.3.4-1.8 1.3-3.5 2.5-5 1.1-1.4 2.6-2.6 4.2-3.4 1.5-.8 3.1-1.2 4.8-1.4h.4c1.9-.1 3.7.2 5.5.9 1.3.5 2.5 1.3 3.6 2.2.2.2.4.4.6.7.1.1.3.2.5.1 2.6-.6 5-1.6 7.3-2.8.1-.1.2-.1.3 0 .1.1.1.2 0 .3-.4 1.4-1.2 2.6-2.1 3.7-.6.7-2.1 2.5-3.1 2.7 2.1-.4 4.2-.9 6.2-1.8.5-.2.5-.2.5 0 0-.1 0 0 0 0z"/></svg>