<svg xmlns="http://www.w3.org/2000/svg" viewBox="0 0 128 128"><path d="M70.9 60.6c.2.1.4.1.7.1.4 0 .7-.1 1-.4l16.8-14.2c.4-.3.6-.7.6-1.2s-.2-.9-.6-1.2L72.6 29.5c-.5-.4-1.1-.5-1.7-.2-.6.3-.9.8-.9 1.4v4.4H46.4c-.9 0-1.6.7-1.6 1.6V53c0 .9.7 1.6 1.6 1.6H70V59c0 .7.4 1.3.9 1.6zM56.4 100.1c-1 0-2-.4-2.7-1L36.9 84.9c-.9-.8-1.5-2-1.5-3.2 0-1.2.5-2.4 1.5-3.2l16.8-14.2c1.2-1 3-1.3 4.5-.6 1.5.7 2.4 2.2 2.4 3.8v3.1h21c2.3 0 4.2 1.9 4.2 4.2v13.7c0 2.3-1.9 4.2-4.2 4.2h-21v3.1c0 1.6-1 3.1-2.4 3.8-.6.3-1.2.5-1.8.5zM41.2 81.7l14.2 12v-6.2h25.2V75.9H55.4v-6.2l-14.2 12z"/><g><path d="M15 61.5c-1.4 0-2.6-1.2-2.6-2.6V23.7c0-6.7 5.5-12.2 12.2-12.2h29.7c1.4 0 2.6 1.2 2.6 2.6s-1.2 2.6-2.6 2.6H24.6c-3.9 0-7 3.1-7 7v35.2c0 1.5-1.2 2.6-2.6 2.6zM103.4 116.5H73.7c-1.4 0-2.6-1.2-2.6-2.6 0-1.4 1.2-2.6 2.6-2.6h29.7c3.9 0 7-3.1 7-7V69.1c0-1.4 1.2-2.6 2.6-2.6s2.6 1.2 2.6 2.6v35.2c.1 6.7-5.4 12.2-12.2 12.2z"/></g></svg>