<?xml version="1.0" encoding="utf-8"?>
<!-- Generator: Adobe Illustrator 24.0.3, SVG Export Plug-In . SVG Version: 6.00 Build 0)  -->
<svg version="1.1" id="layer_1" xmlns="http://www.w3.org/2000/svg" xmlns:xlink="http://www.w3.org/1999/xlink" x="0px" y="0px"
	 viewBox="0 0 128 128" style="enable-background:new 0 0 128 128;" xml:space="preserve">
<style type="text/css">
	.st0{opacity:0.2;}
	.st1{fill:#FFFFFF;}
	.st2{opacity:0.2;fill:#0090D5;}
	.st3{fill:#21365F;}
	.st4{fill:#0090D5;}
</style>
<g class="st0">
	<path class="st1" d="M43.4,69.3c8.1,17-8.5,33.6-25.5,25.5c-3.3-1.6-6-4.2-7.5-7.5c-8.1-17,8.5-33.6,25.5-25.5
		C39.2,63.3,41.8,66,43.4,69.3z"/>
</g>
<g class="st0">
	<path class="st1" d="M78.9,25.4c1.3,10.5-7.5,19.3-17.9,17.9c-7.1-0.9-12.9-6.7-13.8-13.8c-1.3-10.5,7.5-19.3,17.9-17.9
		C72.2,12.5,78,18.3,78.9,25.4z"/>
</g>
<g class="st0">
	<circle class="st1" cx="93.1" cy="89.8" r="26.7"/>
</g>
<g>
	<path class="st1" d="M24.2,105.5h60c1.5,0,2.7-1.2,2.7-2.7v-80c0-1.5-1.2-2.7-2.7-2.7H37.5c-6.2,6.2-9.7,9.7-16,16v66.6
		C21.5,104.3,22.7,105.5,24.2,105.5z"/>
</g>
<g>
	<path class="st2" d="M48.2,105.5h36.6c1.1,0,2-0.9,2-2V30.9H68.2c-11,0-20,9-20,20V105.5z"/>
</g>
<g>
	<path class="st3" d="M84.1,106.5h-60c-2,0-3.7-1.6-3.7-3.7V36.2c0-0.3,0.1-0.5,0.3-0.7l16-16c0.2-0.2,0.4-0.3,0.7-0.3h46.6
		c2,0,3.7,1.6,3.7,3.7v80C87.8,104.9,86.2,106.5,84.1,106.5z M22.5,36.6v66.2c0,0.9,0.7,1.7,1.7,1.7h60c0.9,0,1.7-0.7,1.7-1.7v-80
		c0-0.9-0.7-1.7-1.7-1.7H37.9L22.5,36.6z"/>
</g>
<g>
	<path class="st1" d="M66.8,49.5h40v-8.7c0-1.1-0.9-2-2-2h-36c-1.1,0-2,0.9-2,2V49.5z"/>
</g>
<g>
	<path class="st2" d="M74.8,49.5h32v-5.3h-30c-1.1,0-2,0.9-2,2V49.5z"/>
</g>
<g>
	<path class="st1" d="M68.8,89.5h18v-20h-20v18C66.8,88.6,67.7,89.5,68.8,89.5z"/>
</g>
<g>
	<rect x="66.8" y="49.5" class="st1" width="20" height="20"/>
</g>
<g>
	<path class="st1" d="M86.8,89.5h18c1.1,0,2-0.9,2-2v-18h-20V89.5z"/>
</g>
<g>
	<rect x="86.8" y="49.5" class="st1" width="20" height="20"/>
</g>
<g>
	<path class="st2" d="M93.5,69.5h13.3V56.2H96.5c-1.7,0-3,1.3-3,3V69.5z"/>
</g>
<g>
	<path class="st2" d="M93.5,89.4h11.3c1.1,0,2-0.9,2-2v-14H96.5c-1.7,0-3,1.3-3,3V89.4z"/>
</g>
<g>
	<path class="st2" d="M73.5,69.5h13.3V56.2H76.5c-1.7,0-3,1.3-3,3V69.5z"/>
</g>
<g>
	<path class="st2" d="M73.5,89.4h13.3V78.7h-8.3c-2.8,0-5,2.2-5,5V89.4z"/>
</g>
<g>
	<path class="st3" d="M106.8,50.5h-40c-0.6,0-1-0.4-1-1v-8c0-2,1.6-3.7,3.7-3.7h34.6c2,0,3.7,1.6,3.7,3.7v8
		C107.8,50.1,107.3,50.5,106.8,50.5z M67.8,48.5h38v-7c0-0.9-0.7-1.7-1.7-1.7H69.5c-0.9,0-1.7,0.7-1.7,1.7V48.5z"/>
</g>
<g>
	<path class="st3" d="M86.8,90.5H69.5c-2,0-3.7-1.6-3.7-3.7V69.5c0-0.6,0.4-1,1-1h20c0.6,0,1,0.4,1,1v20
		C87.8,90.1,87.4,90.5,86.8,90.5z M67.8,70.5v16.3c0,0.9,0.7,1.7,1.7,1.7h16.3v-18H67.8z"/>
</g>
<g>
	<path class="st3" d="M86.8,70.5h-20c-0.6,0-1-0.4-1-1v-20c0-0.6,0.4-1,1-1h20c0.6,0,1,0.4,1,1v20C87.8,70.1,87.4,70.5,86.8,70.5z
		 M67.8,68.5h18v-18h-18V68.5z"/>
</g>
<g>
	<path class="st3" d="M104.1,90.5H86.8c-0.6,0-1-0.4-1-1v-20c0-0.6,0.4-1,1-1h20c0.6,0,1,0.4,1,1v17.3
		C107.8,88.9,106.2,90.5,104.1,90.5z M87.8,88.5h16.3c0.9,0,1.7-0.7,1.7-1.7V70.5h-18V88.5z"/>
</g>
<g>
	<path class="st3" d="M106.8,70.5h-20c-0.6,0-1-0.4-1-1v-20c0-0.6,0.4-1,1-1h20c0.6,0,1,0.4,1,1v20
		C107.8,70.1,107.3,70.5,106.8,70.5z M87.8,68.5h18v-18h-18V68.5z"/>
</g>
<g>
	<polygon class="st1" points="21.5,36.2 37.5,20.2 37.5,36.2 	"/>
</g>
<g class="st0">
	<polygon class="st4" points="30.8,36.2 37.5,20.2 37.5,36.2 	"/>
</g>
<g>
	<path class="st3" d="M37.5,37.2h-16c-0.4,0-0.8-0.2-0.9-0.6c-0.2-0.4-0.1-0.8,0.2-1.1l16-16c0.3-0.3,0.7-0.4,1.1-0.2
		c0.4,0.2,0.6,0.5,0.6,0.9v16C38.5,36.8,38,37.2,37.5,37.2z M23.9,35.2h12.6V22.6L23.9,35.2z"/>
</g>
<g>
	<path class="st3" d="M88.1,45.5c-0.3,0-0.7-0.1-0.9-0.4c-0.2-0.3-0.4-0.6-0.4-0.9c0-0.3,0.1-0.7,0.4-0.9c0.5-0.5,1.4-0.5,1.9,0
		c0.2,0.3,0.4,0.6,0.4,0.9c0,0.3-0.1,0.7-0.4,0.9C88.8,45.4,88.5,45.5,88.1,45.5z"/>
</g>
<g>
	<path class="st3" d="M92.8,44.2c0-0.7,0.6-1.3,1.3-1.3l0,0c0.7,0,1.3,0.6,1.3,1.3l0,0c0,0.7-0.6,1.3-1.3,1.3l0,0
		C93.4,45.5,92.8,44.9,92.8,44.2z"/>
</g>
<g>
	<path class="st3" d="M100.1,45.5c-0.4,0-0.7-0.1-0.9-0.4c-0.2-0.3-0.4-0.6-0.4-0.9c0-0.3,0.1-0.7,0.4-0.9c0.5-0.5,1.4-0.5,1.9,0
		c0.2,0.2,0.4,0.6,0.4,0.9c0,0.4-0.1,0.7-0.4,0.9C100.8,45.4,100.5,45.5,100.1,45.5z"/>
</g>
<g>
	<path class="st3" d="M80.8,60.5h-8c-0.6,0-1-0.4-1-1c0-0.6,0.4-1,1-1h8c0.6,0,1,0.4,1,1C81.8,60.1,81.4,60.5,80.8,60.5z"/>
</g>
<g>
	<path class="st3" d="M100.8,60.5h-8c-0.6,0-1-0.4-1-1c0-0.6,0.4-1,1-1h8c0.6,0,1,0.4,1,1C101.8,60.1,101.3,60.5,100.8,60.5z"/>
</g>
<g>
	<path class="st3" d="M100.8,83.2h-8c-0.6,0-1-0.4-1-1c0-0.6,0.4-1,1-1h8c0.6,0,1,0.4,1,1C101.8,82.7,101.3,83.2,100.8,83.2z"/>
</g>
<g>
	<path class="st3" d="M100.8,77.9h-8c-0.6,0-1-0.4-1-1c0-0.6,0.4-1,1-1h8c0.6,0,1,0.4,1,1C101.8,77.4,101.3,77.9,100.8,77.9z"/>
</g>
<g>
	<path class="st3" d="M76.8,64.5c-0.6,0-1-0.4-1-1v-8c0-0.6,0.4-1,1-1c0.6,0,1,0.4,1,1v8C77.8,64.1,77.4,64.5,76.8,64.5z"/>
</g>
<g>
	<path class="st3" d="M80.1,83.9c-0.3,0-0.5-0.1-0.7-0.3l-6.7-6.7c-0.4-0.4-0.4-1,0-1.4c0.4-0.4,1-0.4,1.4,0l6.7,6.7
		c0.4,0.4,0.4,1,0,1.4C80.7,83.8,80.4,83.9,80.1,83.9z"/>
</g>
<g>
	<path class="st3" d="M73.5,83.9c-0.3,0-0.5-0.1-0.7-0.3c-0.4-0.4-0.4-1,0-1.4l6.7-6.7c0.4-0.4,1-0.4,1.4,0c0.4,0.4,0.4,1,0,1.4
		l-6.7,6.7C74,83.8,73.7,83.9,73.5,83.9z"/>
</g>
<g>
	<circle class="st1" cx="44.2" cy="82.9" r="14.7"/>
</g>
<g>
	<path class="st2" d="M58.8,82.9c0-0.2,0-0.4,0-0.6c-2.6-2.5-6.2-4-10-4c-8.1,0-14.7,6.6-14.7,14.7c0,0.2,0,0.4,0,0.6
		c2.6,2.5,6.2,4,10,4C52.3,97.5,58.8,90.9,58.8,82.9z"/>
</g>
<g>
	<path class="st3" d="M44.2,83.9c-0.1,0-0.3,0-0.4-0.1c-0.4-0.2-0.6-0.5-0.6-0.9V68.2c0-0.6,0.4-1,1-1c0.6,0,1,0.4,1,1v12.4l9.1-8.4
		c0.4-0.4,1-0.3,1.4,0.1c0.4,0.4,0.3,1-0.1,1.4l-10.8,9.9C44.6,83.8,44.4,83.9,44.2,83.9z"/>
</g>
<g>
	<path class="st3" d="M36.1,96.1c-0.2,0-0.4-0.1-0.5-0.2c-0.5-0.3-0.6-0.9-0.3-1.4l8.1-12.2c0.3-0.4,0.8-0.6,1.3-0.3l13.2,6.4
		c0.5,0.2,0.7,0.8,0.5,1.3c-0.2,0.5-0.8,0.7-1.3,0.5l-12.4-6l-7.6,11.5C36.7,95.9,36.4,96.1,36.1,96.1z"/>
</g>
<g>
	<path class="st3" d="M44.2,98.5c-8.6,0-15.7-7-15.7-15.7c0-8.6,7-15.7,15.7-15.7s15.7,7,15.7,15.7C59.8,91.5,52.8,98.5,44.2,98.5z
		 M44.2,69.2c-7.5,0-13.7,6.1-13.7,13.7c0,7.5,6.1,13.7,13.7,13.7c7.5,0,13.7-6.1,13.7-13.7C57.8,75.3,51.7,69.2,44.2,69.2z"/>
</g>
<g>
	<path class="st3" d="M44.2,90.3c-4.1,0-7.4-3.3-7.4-7.4c0-4.1,3.3-7.4,7.4-7.4s7.4,3.3,7.4,7.4C51.6,86.9,48.2,90.3,44.2,90.3z
		 M44.2,77.4c-3,0-5.4,2.4-5.4,5.4c0,3,2.4,5.4,5.4,5.4c3,0,5.4-2.4,5.4-5.4C49.6,79.9,47.1,77.4,44.2,77.4z"/>
</g>
<g>
	<path class="st3" d="M61.5,43.9H50.8c-0.6,0-1-0.4-1-1c0-0.6,0.4-1,1-1h10.7c0.6,0,1,0.4,1,1C62.5,43.4,62,43.9,61.5,43.9z"/>
</g>
<g>
	<path class="st3" d="M45.5,43.9h-16c-0.6,0-1-0.4-1-1c0-0.6,0.4-1,1-1h16c0.6,0,1,0.4,1,1C46.5,43.4,46,43.9,45.5,43.9z"/>
</g>
<g>
	<path class="st3" d="M61.5,37.2H44.2c-0.6,0-1-0.4-1-1c0-0.6,0.4-1,1-1h17.3c0.6,0,1,0.4,1,1C62.5,36.8,62,37.2,61.5,37.2z"/>
</g>
<g>
	<path class="st3" d="M61.5,50.5h-20c-0.6,0-1-0.4-1-1c0-0.6,0.4-1,1-1h20c0.6,0,1,0.4,1,1C62.5,50.1,62,50.5,61.5,50.5z"/>
</g>
<g>
	<path class="st3" d="M36.2,50.5h-6.7c-0.6,0-1-0.4-1-1c0-0.6,0.4-1,1-1h6.7c0.6,0,1,0.4,1,1C37.2,50.1,36.7,50.5,36.2,50.5z"/>
</g>
<g>
	<path class="st3" d="M61.5,57.2H50.8c-0.6,0-1-0.4-1-1c0-0.6,0.4-1,1-1h10.7c0.6,0,1,0.4,1,1C62.5,56.8,62,57.2,61.5,57.2z"/>
</g>
<g>
	<path class="st3" d="M45.5,57.2h-16c-0.6,0-1-0.4-1-1c0-0.6,0.4-1,1-1h16c0.6,0,1,0.4,1,1C46.5,56.8,46,57.2,45.5,57.2z"/>
</g>
<g>
	<path class="st3" d="M53.5,63.9h-8c-0.6,0-1-0.4-1-1c0-0.6,0.4-1,1-1h8c0.6,0,1,0.4,1,1C54.5,63.4,54,63.9,53.5,63.9z"/>
</g>
<g>
	<path class="st3" d="M40.2,63.9H29.5c-0.6,0-1-0.4-1-1c0-0.6,0.4-1,1-1h10.7c0.6,0,1,0.4,1,1C41.2,63.4,40.7,63.9,40.2,63.9z"/>
</g>
<g>
	<path class="st1" d="M94.8,99.8c-2,0-3.7-1.6-3.7-3.7c0-2,1.6-3.7,3.7-3.7c2,0,3.7,1.6,3.7,3.7C98.5,98.2,96.8,99.8,94.8,99.8z
		 M94.8,94.5c-0.9,0-1.7,0.7-1.7,1.7c0,0.9,0.7,1.7,1.7,1.7c0.9,0,1.7-0.7,1.7-1.7C96.5,95.3,95.7,94.5,94.8,94.5z"/>
</g>
<g>
	<path class="st1" d="M104.1,106.5c-2,0-3.7-1.6-3.7-3.7c0-2,1.6-3.7,3.7-3.7c2,0,3.7,1.6,3.7,3.7
		C107.8,104.9,106.2,106.5,104.1,106.5z M104.1,101.2c-0.9,0-1.7,0.7-1.7,1.7c0,0.9,0.7,1.7,1.7,1.7c0.9,0,1.7-0.7,1.7-1.7
		C105.8,101.9,105,101.2,104.1,101.2z"/>
</g>
<g>
	<path class="st1" d="M104.1,34.5c-2,0-3.7-1.6-3.7-3.7c0-2,1.6-3.7,3.7-3.7c2,0,3.7,1.6,3.7,3.7C107.8,32.9,106.2,34.5,104.1,34.5z
		 M104.1,29.2c-0.9,0-1.7,0.7-1.7,1.7c0,0.9,0.7,1.7,1.7,1.7c0.9,0,1.7-0.7,1.7-1.7C105.8,30,105,29.2,104.1,29.2z"/>
</g>
<g>
	<path class="st1" d="M94.8,26.5c-2,0-3.7-1.6-3.7-3.7c0-2,1.6-3.7,3.7-3.7c2,0,3.7,1.6,3.7,3.7C98.5,24.9,96.8,26.5,94.8,26.5z
		 M94.8,21.2c-0.9,0-1.7,0.7-1.7,1.7c0,0.9,0.7,1.7,1.7,1.7c0.9,0,1.7-0.7,1.7-1.7C96.5,22,95.7,21.2,94.8,21.2z"/>
</g>
</svg>
