<?xml version="1.0" encoding="utf-8"?>
<!-- Generator: Adobe Illustrator 24.0.3, SVG Export Plug-In . SVG Version: 6.00 Build 0)  -->
<svg version="1.1" id="layer_1" xmlns="http://www.w3.org/2000/svg" xmlns:xlink="http://www.w3.org/1999/xlink" x="0px" y="0px"
	 viewBox="0 0 128 128" style="enable-background:new 0 0 128 128;" xml:space="preserve">
<style type="text/css">
	.st0{opacity:0.2;fill:#FFFFFF;}
	.st1{opacity:0.2;}
	.st2{fill:#FFFFFF;}
	.st3{fill:#21365F;}
	.st4{opacity:0.2;fill:#0090D5;}
	.st5{fill:#0090D5;}
</style>
<g>
	<circle class="st0" cx="39.4" cy="31.1" r="19.6"/>
</g>
<g class="st1">
	<circle class="st2" cx="100.3" cy="75.9" r="16.8"/>
</g>
<g>
	<circle class="st0" cx="38.9" cy="88.5" r="28"/>
</g>
<g>
	<path class="st2" d="M105.5,86.5L105.5,86.5c-0.4,2.3-1.9,4.2-4.1,5.1l-17.5,6.7c-3.5,1.3-7.4-0.6-8.5-4.3l0,0
		c-0.7-2.7,0.7-5.4,3.4-6.3l3.5-1.1c9.8-2.1,15.5-5.7,19.2-5.8C104.8,80.8,106.2,83.7,105.5,86.5z"/>
</g>
<g>
	<path class="st3" d="M81.6,99.7c-1.2,0-2.3-0.3-3.4-0.8c-1.9-0.9-3.3-2.6-3.8-4.6c-0.9-3.2,0.9-6.5,4.1-7.6l3.5-1.1
		c5.1-1.1,9.1-2.6,12.3-3.8c3-1.1,5.3-2,7.2-2c1.7,0,3.2,0.6,4.1,1.8c1,1.3,1.4,3.2,1,5.1c-0.4,2.6-2.2,4.9-4.7,5.8l-17.5,6.7
		C83.4,99.6,82.5,99.7,81.6,99.7z M101.5,81.9C101.5,81.9,101.5,81.9,101.5,81.9c-1.6,0-3.8,0.8-6.6,1.9c-3.2,1.2-7.3,2.8-12.5,3.9
		l-3.4,1.1c-2.1,0.7-3.3,2.9-2.7,5c0.4,1.5,1.4,2.7,2.8,3.3c1.4,0.7,2.9,0.8,4.3,0.2l17.5-6.7c1.8-0.7,3.1-2.3,3.4-4.2
		c0,0,0-0.1,0-0.1c0.3-1.3,0.1-2.5-0.6-3.3C103.4,82.2,102.6,81.9,101.5,81.9z"/>
</g>
<g>
	<path class="st2" d="M109.3,86.4c-2.7-2.2-10.2,4.6-29.6,8.3c2.6-1,3.5-2.4,3.6-3.8c0.4-6.4-5.2-6.2-5.2-6.2
		c-28.7,0.3-6.9-6.5-45.9-6.7v25.1c0,0,43,14.6,75.5-10.4C107.7,92.8,112.9,89.3,109.3,86.4z"/>
</g>
<g>
	<path class="st4" d="M79.7,94.7c2.5-0.5,4.9-1,7-1.6c-1.6,0-3.1,0-4.4-0.1C81.8,93.7,80.9,94.2,79.7,94.7z"/>
</g>
<g>
	<path class="st4" d="M109.3,86.4c-2.3-2-8.3,3-22.6,6.7c-2.2,0.6-4.5,1.1-7,1.6c1.2-0.5,2.1-1,2.6-1.7c-4.7-0.2-7.3-0.8-9-1.4
		c-12.6-4.9-26.1,2.2-29.2,14.4c12,2,31.3,3.1,49.8-5c4.7-2.1,9.4-4.7,13.8-8.2C107.7,92.8,112.9,89.3,109.3,86.4z"/>
</g>
<g>
	<path class="st3" d="M61.3,108.4c-16.6,0-29.1-4.1-29.4-4.2c-0.4-0.1-0.7-0.5-0.7-1V78.1c0-0.3,0.1-0.5,0.3-0.7
		c0.2-0.2,0.5-0.3,0.7-0.3c21.1,0.1,24.7,2.2,27.9,4c2.6,1.5,4.9,2.8,17.9,2.6c0.1,0,2.7-0.1,4.5,1.8c1.3,1.3,1.8,3.1,1.7,5.5
		c0,0.6-0.2,1.2-0.5,1.8c7.9-1.8,13.5-4.2,17.5-5.8c4.5-1.9,7-2.9,8.7-1.4l0,0c1.4,1.2,1.7,2.4,1.6,3.3c-0.1,2.6-3,4.6-3.3,4.8
		C93.2,105.3,75.7,108.4,61.3,108.4z M33.3,102.4c5.7,1.7,44.4,12.1,73.8-10.5c0.7-0.4,2.4-1.9,2.4-3.2c0-0.2,0-0.8-0.9-1.6
		c-0.8-0.6-3.2,0.4-6.6,1.7c-4.7,1.9-11.7,4.8-22.2,6.8c-0.5,0.1-1.1-0.2-1.2-0.7c-0.1-0.5,0.1-1.1,0.6-1.3c1.8-0.7,2.8-1.7,2.9-2.9
		c0.1-1.7-0.2-3.1-1.1-3.9c-1.2-1.2-3-1.1-3-1.1c-13.7,0.2-16.2-1.3-19-2.9c-2.9-1.7-6.2-3.6-25.8-3.7V102.4z"/>
</g>
<g>
	<path class="st3" d="M69.9,96.9c-3.5,0-7.6-0.3-12.2-0.9c-0.6-0.1-1-0.6-0.9-1.2c0.1-0.6,0.6-1,1.2-0.9c12,1.6,18.2,0.7,21.4-0.2
		c0.6-0.2,1.1,0.1,1.3,0.7c0.2,0.6-0.1,1.1-0.7,1.3C77.4,96.5,74,96.9,69.9,96.9z"/>
</g>
<g>
	<rect x="21.1" y="78.1" class="st2" width="11.2" height="25.2"/>
</g>
<g>
	<path class="st4" d="M32.2,103.2h-5.6v-14c0-3.1,2.5-5.6,5.6-5.6l0,0V103.2z"/>
</g>
<g>
	<path class="st3" d="M32.2,104.3H21.1c-0.6,0-1-0.5-1-1V78.1c0-0.6,0.5-1,1-1h11.2c0.6,0,1,0.5,1,1v25.2
		C33.3,103.8,32.8,104.3,32.2,104.3z M22.1,102.2h9.1V79.1h-9.1V102.2z"/>
</g>
<g>
	<circle class="st3" cx="26.7" cy="97.7" r="1.4"/>
</g>
<g>
	<circle class="st2" cx="74.2" cy="48.7" r="30.8"/>
</g>
<g>
	<path class="st4" d="M105,48.7c0-5.6-1.5-10.9-4.2-15.4c-4.5-2.6-9.8-4.2-15.4-4.2c-17,0-30.8,13.8-30.8,30.8
		c0,5.6,1.5,10.9,4.2,15.4c4.5,2.6,9.8,4.2,15.4,4.2C91.2,79.5,105,65.7,105,48.7z"/>
</g>
<g>
	<path class="st3" d="M74.2,80.5c-17.5,0-31.8-14.3-31.8-31.8c0-17.5,14.3-31.8,31.8-31.8c17.5,0,31.8,14.3,31.8,31.8
		C106,66.2,91.8,80.5,74.2,80.5z M74.2,19c-16.4,0-29.7,13.3-29.7,29.7c0,16.4,13.3,29.7,29.7,29.7c16.4,0,29.7-13.3,29.7-29.7
		C103.9,32.3,90.6,19,74.2,19z"/>
</g>
<g>
	<path class="st2" d="M110,43.1c-0.5,0-0.9-0.4-1-0.9c-1.2-6.6-4.3-12.7-8.9-17.7c-0.4-0.4-0.4-1.1,0.1-1.5c0.4-0.4,1.1-0.4,1.5,0.1
		c4.9,5.2,8.2,11.7,9.4,18.7c0.1,0.6-0.3,1.1-0.8,1.2C110.1,43.1,110,43.1,110,43.1z"/>
</g>
<g>
	<path class="st2" d="M96.6,21.1c-0.2,0-0.5-0.1-0.6-0.2c-0.9-0.7-1.9-1.4-2.9-2c-0.5-0.3-0.6-1-0.3-1.4c0.3-0.5,1-0.6,1.4-0.3
		c1.1,0.7,2.1,1.4,3.1,2.2c0.5,0.4,0.5,1,0.2,1.5C97.2,20.9,96.9,21.1,96.6,21.1z"/>
</g>
<g>
	<circle class="st2" cx="74.2" cy="48.7" r="22.4"/>
</g>
<g class="st1">
	<path class="st5" d="M96.6,48.7c0-3.3-0.7-6.4-2-9.2c-2.8-1.3-5.9-2-9.2-2C73,37.5,63,47.5,63,59.9c0,3.3,0.7,6.4,2,9.2
		c2.8,1.3,5.9,2,9.2,2C86.6,71.1,96.6,61.1,96.6,48.7z"/>
</g>
<g>
	<path class="st3" d="M74.2,72.1c-12.9,0-23.4-10.5-23.4-23.4c0-12.9,10.5-23.4,23.4-23.4s23.4,10.5,23.4,23.4
		C97.6,61.6,87.1,72.1,74.2,72.1z M74.2,27.4c-11.8,0-21.3,9.6-21.3,21.3c0,11.8,9.6,21.3,21.3,21.3c11.8,0,21.3-9.6,21.3-21.3
		C95.5,36.9,86,27.4,74.2,27.4z"/>
</g>
<g>
	<path class="st3" d="M89.3,57.1c-0.2,0-0.3,0-0.5-0.1c-0.5-0.3-0.7-0.9-0.5-1.4c1.1-2.2,1.6-4.5,1.6-6.9c0-2.4-0.5-4.7-1.6-6.9
		c-0.3-0.5,0-1.1,0.5-1.4c0.5-0.3,1.1,0,1.4,0.5c1.2,2.4,1.8,5.1,1.8,7.8c0,2.7-0.6,5.4-1.8,7.8C90.1,56.9,89.7,57.1,89.3,57.1z"/>
</g>
<g>
	<path class="st3" d="M59.1,57.1c-0.4,0-0.8-0.2-0.9-0.6c-1.2-2.4-1.8-5.1-1.8-7.8c0-2.7,0.6-5.4,1.8-7.8c0.3-0.5,0.9-0.7,1.4-0.5
		c0.5,0.3,0.7,0.9,0.5,1.4c-1.1,2.2-1.6,4.5-1.6,6.9c0,2.4,0.5,4.7,1.6,6.9c0.3,0.5,0,1.2-0.5,1.4C59.4,57.1,59.3,57.1,59.1,57.1z"
		/>
</g>
<g>
	<circle class="st3" cx="47.6" cy="48.7" r="1"/>
</g>
<g>
	<circle class="st3" cx="100.8" cy="48.7" r="1"/>
</g>
<g>
	<circle class="st3" cx="74.2" cy="75.3" r="1"/>
</g>
<g>
	<circle class="st3" cx="74.2" cy="22.1" r="1"/>
</g>
<g>
	<path class="st3" d="M92.3,66.7c0.4-0.4,1.1-0.4,1.5,0c0.4,0.4,0.4,1.1,0,1.5c-0.4,0.4-1.1,0.4-1.5,0
		C91.9,67.8,91.9,67.2,92.3,66.7z"/>
</g>
<g>
	<path class="st3" d="M54.7,29.2c0.4-0.4,1.1-0.4,1.5,0c0.4,0.4,0.4,1.1,0,1.5c-0.4,0.4-1.1,0.4-1.5,0
		C54.3,30.2,54.3,29.6,54.7,29.2z"/>
</g>
<g>
	<path class="st3" d="M92.3,30.6c-0.4-0.4-0.4-1.1,0-1.5c0.4-0.4,1.1-0.4,1.5,0c0.4,0.4,0.4,1.1,0,1.5
		C93.3,31.1,92.7,31.1,92.3,30.6z"/>
</g>
<g>
	<path class="st3" d="M54.7,68.2c-0.4-0.4-0.4-1.1,0-1.5c0.4-0.4,1.1-0.4,1.5,0c0.4,0.4,0.4,1.1,0,1.5
		C55.8,68.6,55.1,68.6,54.7,68.2z"/>
</g>
<g>
	<path class="st3" d="M97.8,58.5c0.2-0.5,0.8-0.8,1.4-0.6c0.5,0.2,0.8,0.8,0.6,1.4c-0.2,0.5-0.8,0.8-1.4,0.6
		C97.8,59.6,97.6,59,97.8,58.5z"/>
</g>
<g>
	<path class="st3" d="M48.7,38.1c0.2-0.5,0.8-0.8,1.4-0.6c0.5,0.2,0.8,0.8,0.6,1.4c-0.2,0.5-0.8,0.8-1.4,0.6
		C48.7,39.3,48.5,38.7,48.7,38.1z"/>
</g>
<g>
	<path class="st3" d="M84,25.1c-0.5-0.2-0.8-0.8-0.6-1.4c0.2-0.5,0.8-0.8,1.4-0.6c0.5,0.2,0.8,0.8,0.6,1.4
		C85.1,25.1,84.5,25.3,84,25.1z"/>
</g>
<g>
	<path class="st3" d="M63.6,74.2c-0.5-0.2-0.8-0.8-0.6-1.4c0.2-0.5,0.8-0.8,1.4-0.6c0.5,0.2,0.8,0.8,0.6,1.4
		C64.8,74.2,64.2,74.4,63.6,74.2z"/>
</g>
<g>
	<path class="st3" d="M97.8,38.9c-0.2-0.5,0-1.2,0.6-1.4c0.5-0.2,1.1,0,1.4,0.6c0.2,0.5,0,1.1-0.6,1.4C98.6,39.7,98,39.5,97.8,38.9z
		"/>
</g>
<g>
	<path class="st3" d="M48.7,59.3c-0.2-0.5,0-1.2,0.6-1.4c0.5-0.2,1.1,0,1.4,0.6c0.2,0.5,0,1.1-0.6,1.4
		C49.5,60.1,48.9,59.8,48.7,59.3z"/>
</g>
<g>
	<path class="st3" d="M64.4,25.1c-0.5,0.2-1.1,0-1.4-0.6c-0.2-0.5,0-1.1,0.6-1.4c0.5-0.2,1.1,0,1.4,0.6C65.2,24.3,65,24.9,64.4,25.1
		z"/>
</g>
<g>
	<path class="st3" d="M84.8,74.2c-0.5,0.2-1.1,0-1.4-0.6c-0.2-0.5,0-1.2,0.6-1.4c0.5-0.2,1.1,0,1.4,0.6C85.6,73.4,85.3,74,84.8,74.2
		z"/>
</g>
<g>
	<path class="st2" d="M37.8,70.7c-2.1,0-3.8-1.7-3.8-3.8c0-2.1,1.7-3.8,3.8-3.8c2.1,0,3.8,1.7,3.8,3.8C41.7,69,40,70.7,37.8,70.7z
		 M37.8,65.1c-1,0-1.7,0.8-1.7,1.7c0,1,0.8,1.7,1.7,1.7c1,0,1.7-0.8,1.7-1.7C39.6,65.9,38.8,65.1,37.8,65.1z"/>
</g>
<g>
	<path class="st2" d="M107.8,76.3c-2.1,0-3.8-1.7-3.8-3.8c0-2.1,1.7-3.8,3.8-3.8s3.8,1.7,3.8,3.8C111.6,74.6,109.9,76.3,107.8,76.3z
		 M107.8,70.7c-1,0-1.7,0.8-1.7,1.7c0,1,0.8,1.7,1.7,1.7c1,0,1.7-0.8,1.7-1.7C109.5,71.5,108.8,70.7,107.8,70.7z"/>
</g>
<g>
	<path class="st2" d="M23.9,59.5c-2.1,0-3.8-1.7-3.8-3.8c0-2.1,1.7-3.8,3.8-3.8s3.8,1.7,3.8,3.8C27.7,57.8,26,59.5,23.9,59.5z
		 M23.9,53.9c-1,0-1.7,0.8-1.7,1.7c0,1,0.8,1.7,1.7,1.7c1,0,1.7-0.8,1.7-1.7C25.6,54.7,24.8,53.9,23.9,53.9z"/>
</g>
<g>
	<path class="st2" d="M46.2,24.6c-2.1,0-3.8-1.7-3.8-3.8c0-2.1,1.7-3.8,3.8-3.8c2.1,0,3.8,1.7,3.8,3.8
		C50.1,22.8,48.4,24.6,46.2,24.6z M46.2,19c-1,0-1.7,0.8-1.7,1.7c0,1,0.8,1.7,1.7,1.7c1,0,1.7-0.8,1.7-1.7C48,19.8,47.2,19,46.2,19z
		"/>
</g>
<g>
	<path class="st3" d="M72.1,58.5H74v1h-3.3v-0.8l1.8-2.9h-1.8v-1h3.2v0.7L72.1,58.5z"/>
	<path class="st3" d="M76.2,55.5l0.5-0.2v0.7l-0.5,0.2v3.2H75v-2.8l-0.4,0.2v-0.7L75,56v-3.2h1.2V55.5z"/>
</g>
<g>
	<path class="st3" d="M78.4,49.9h-8.2V48l3.8-4.8c0.5-0.7,0.8-1.2,1.1-1.8c0.2-0.5,0.3-1,0.3-1.4c0-0.6-0.1-1.1-0.3-1.5
		c-0.2-0.4-0.5-0.5-0.9-0.5c-0.4,0-0.8,0.2-1.1,0.6c-0.3,0.4-0.4,1-0.4,1.7H70c0-0.9,0.2-1.6,0.5-2.3s0.9-1.3,1.5-1.7
		c0.6-0.4,1.4-0.6,2.2-0.6c1.2,0,2.2,0.3,2.9,1s1,1.7,1,2.9c0,0.8-0.2,1.6-0.6,2.4c-0.4,0.8-1.1,1.8-2.1,3l-1.8,2.6h4.7V49.9z"/>
</g>
</svg>
