<svg version="1.1" id="LOGO_GPW_PL" xmlns="http://www.w3.org/2000/svg" x="0" y="0" viewBox="0 0 210 62" xml:space="preserve"><style>.st0,.st1{fill-rule:evenodd;clip-rule:evenodd;fill:#0090d5}.st1{fill:#004f92}</style><path class="st0" d="M22.7 0H35L12.4 30.9H0z"/><path class="st1" d="M57.3 30.9H45L32 13.4h12.2z"/><path fill-rule="evenodd" clip-rule="evenodd" fill="#0087ce" d="M19.1 30.8h12.4l12.7-17.4H32z"/><path class="st0" d="M57.3 30.9H45L22.5 61.5h12.4zM64.2 30.8l6.4 8.7-16.5 22H41.7z"/><path class="st1" d="M54.1 61.5H41.7L19.1 30.8h12.4zM22.5 61.5h12.4L12.4 30.9H0z"/><g><path class="st1" d="M135.8 13.4h-16.4v39.7h9.6V41.9h6.8c9.6 0 15.2-5.4 15.2-14.7-.1-8.8-5.6-13.8-15.2-13.8zm-.5 20.6H129V21.3h6.3c4.2 0 6.6 2.1 6.6 6.2 0 4.3-2.4 6.5-6.6 6.5zM200.2 13.4L193 42.6l-7.4-29.2h-9.3L169 42.6l-7.3-29.2h-10.2l12.3 39.7h9.9l7.1-27.4 6.9 27.4h9.9L210 13.4zM97.7 21.5c3.5 0 7.3 1.6 10 4.3l5.4-6.9c-3.9-3.6-9.8-5.9-15.4-5.9-11.8.1-20.7 8.7-20.7 20.2 0 11.6 8.6 20.3 20.1 20.3 5.3 0 11.6-2.2 15.6-5.2V32.9H99.2v7.3h5.3v2.9c-2.3 1.2-4.7 1.9-6.7 1.9-6.2 0-11-5.1-11-11.8 0-6.6 4.7-11.7 10.9-11.7z"/></g></svg>