<?xml version="1.0" encoding="utf-8"?>
<!-- Generator: Adobe Illustrator 24.0.3, SVG Export Plug-In . SVG Version: 6.00 Build 0)  -->
<svg version="1.1" id="layer_1" xmlns="http://www.w3.org/2000/svg" xmlns:xlink="http://www.w3.org/1999/xlink" x="0px" y="0px"
	 viewBox="0 0 128 128" style="enable-background:new 0 0 128 128;" xml:space="preserve">
<style type="text/css">
	.st0{fill:#FFFFFF;}
	.st1{opacity:0.2;fill:#FFFFFF;}
	.st2{opacity:0.2;}
	.st3{fill:#0090D5;}
	.st4{fill:#21365F;}
	.st5{opacity:0.2;fill:#0090D5;}
</style>
<path class="st0" d="M49,22.9c-14.4,0-26.1,11.7-26.1,26.1v32.6c0,14.4,11.7,26.1,26.1,26.1h32.6c14.4,0,26.1-11.7,26.1-26.1V49
	c0-14.4-11.7-26.1-26.1-26.1H49z"/>
<g>
	<circle class="st1" cx="102.8" cy="74.6" r="19"/>
</g>
<g class="st2">
	<circle class="st0" cx="56.3" cy="27.8" r="16.3"/>
</g>
<g>
	<circle class="st1" cx="38.4" cy="89.3" r="27.2"/>
</g>
<g class="st2">
	<path class="st3" d="M88.7,108.8H41.8c-11,0-20-9-20-20V41.8c0-11,9-20,20-20h46.9c11,0,20,9,20,20v46.9
		C108.7,99.8,99.8,108.8,88.7,108.8z"/>
</g>
<g>
	<path class="st0" d="M76.5,108.8H41.8c-11,0-20-9-20-20V55.4c0-11,9-20,20-20h34.7c11,0,20,9,20,20v33.3
		C96.5,99.8,87.6,108.8,76.5,108.8z"/>
</g>
<g>
	<path class="st4" d="M81.6,109.8H49c-15.5,0-28.2-12.6-28.2-28.2V49c0-15.5,12.6-28.2,28.2-28.2h32.6c15.5,0,28.2,12.6,28.2,28.2
		v32.6C109.8,97.1,97.1,109.8,81.6,109.8z M49,22.9c-14.4,0-26.1,11.7-26.1,26.1v32.6c0,14.4,11.7,26.1,26.1,26.1h32.6
		c14.4,0,26.1-11.7,26.1-26.1V49c0-14.4-11.7-26.1-26.1-26.1H49z"/>
</g>
<g>
	<path class="st0" d="M89.5,78.5L80.4,77c-0.6-0.1-1.2-0.3-1.8-0.5H51.9c-0.6,0.3-1.2,0.4-1.8,0.5L41,78.5c-5.6,1-9.7,5.8-9.7,11.5
		v12.2c4.7,4.1,10.9,6.5,17.7,6.5h32.6c6.7,0,12.9-2.5,17.7-6.5V90C99.2,84.4,95.1,79.5,89.5,78.5z"/>
</g>
<g>
	<path class="st5" d="M99.2,90c0-5.7-4.1-10.5-9.7-11.5L80.4,77c-0.6-0.1-1.2-0.3-1.8-0.5H51.9c-0.6,0.3-1.2,0.4-1.8,0.5L41,78.5
		c-5.6,1-9.7,5.8-9.7,11.5v1.7c7.2-6.7,21-8.5,42.2-8.5c21.8,0,20,7.3,19.6,22.8c2.2-1,4.2-2.4,6.1-3.9V90z"/>
</g>
<g>
	<path class="st4" d="M81.6,109.8H49c-6.7,0-13.2-2.4-18.3-6.8c-0.2-0.2-0.4-0.5-0.4-0.8V90c0-6.2,4.4-11.5,10.5-12.5L50,76
		c0.5-0.1,1.1-0.2,1.6-0.5c0.1-0.1,0.3-0.1,0.4-0.1h26.7c0.1,0,0.3,0,0.4,0.1c0.5,0.2,1,0.4,1.6,0.5l9.1,1.6h0
		c6.1,1.1,10.5,6.3,10.5,12.5v12.2c0,0.3-0.1,0.6-0.4,0.8C94.8,107.4,88.3,109.8,81.6,109.8z M32.3,101.7c4.7,3.9,10.6,6,16.6,6
		h32.6c6.1,0,12-2.1,16.6-6V90c0-5.2-3.7-9.6-8.8-10.5L80.2,78c-0.6-0.1-1.2-0.3-1.8-0.5H52.1c-0.6,0.2-1.2,0.4-1.8,0.5l-9.1,1.6
		c-5.1,0.9-8.8,5.3-8.8,10.5V101.7z"/>
</g>
<g>
	<path class="st0" d="M57.1,67.2l-1,4.2c-0.6,2.3-2.2,4.1-4.3,5.1l7.5,3.6c3.7,1.8,8,1.8,11.7,0l7.5-3.6c-2.1-0.9-3.7-2.8-4.3-5.1
		l-1-4.2H57.1z"/>
</g>
<g>
	<path class="st5" d="M69.2,74.3c0.5,2,1.7,3.8,3.2,5l6.1-2.9c-2.1-0.9-3.7-2.8-4.3-5.1l-1-4.2l-5.4,2L69.2,74.3z"/>
</g>
<g>
	<path class="st4" d="M65.3,82.3c-2.1,0-4.3-0.5-6.3-1.4l-7.5-3.6c-0.4-0.2-0.6-0.5-0.6-0.9c0-0.4,0.2-0.8,0.6-0.9
		c1.8-0.8,3.2-2.4,3.7-4.4l0.9-4.1c0.1-0.5,0.5-0.8,1-0.8h16.3c0.5,0,0.9,0.3,1,0.8l1,4.2c0.5,1.9,1.8,3.5,3.7,4.4
		c0.4,0.2,0.6,0.5,0.6,0.9c0,0.4-0.2,0.8-0.6,0.9l-7.5,3.6C69.6,81.9,67.4,82.3,65.3,82.3z M54.1,76.3l5.8,2.8
		c3.4,1.6,7.4,1.6,10.8,0l5.8-2.8c-1.5-1.2-2.6-2.8-3.1-4.7l-0.8-3.4H57.9l-0.8,3.4C56.7,73.5,55.6,75.1,54.1,76.3z"/>
</g>
<g>
	<path class="st0" d="M81.2,50.6c0,10.8-7.1,19.6-15.9,19.6c-8.8,0-15.9-8.8-15.9-19.6s7.1-16.6,15.9-16.6
		C74.1,34.1,81.2,39.8,81.2,50.6z"/>
</g>
<g>
	<path class="st5" d="M81.2,50.6c0-10.8-7.1-16.6-15.9-16.6c-5.5,0-10.4,2.3-13.3,6.7c2.6-1.7,5.8-2.6,9.2-2.6
		c8.8,0,15.9,5.7,15.9,16.6c0,5-1.5,9.5-4,13C77.9,64.4,81.2,58,81.2,50.6z"/>
</g>
<g>
	<path class="st4" d="M65.3,71.3c-9.3,0-16.9-9.3-16.9-20.7c0-10.5,6.8-17.6,16.9-17.6s16.9,7.1,16.9,17.6
		C82.2,62,74.6,71.3,65.3,71.3z M65.3,35.1c-9,0-14.9,6.1-14.9,15.5c0,10.3,6.7,18.6,14.9,18.6s14.9-8.4,14.9-18.6
		C80.2,41.2,74.3,35.1,65.3,35.1z"/>
</g>
<g>
	<path class="st4" d="M86,109.4c-0.6,0-1-0.5-1-1V92.2c0-0.6,0.5-1,1-1c0.6,0,1,0.5,1,1v16.2C87,109,86.5,109.4,86,109.4z"/>
</g>
<g>
	<path class="st4" d="M44.6,109.4c-0.6,0-1-0.5-1-1V92.2c0-0.6,0.5-1,1-1c0.6,0,1,0.5,1,1v16.2C45.6,109,45.1,109.4,44.6,109.4z"/>
</g>
<g>
	<path class="st0" d="M78.6,76.4l-5.7,10.2c-1,1.9-1.6,4-1.7,6.1l-0.5,16H59.8l-0.5-16c-0.1-2.2-0.7-4.3-1.7-6.1l-5.7-10.2l7.5,3.6
		c3.7,1.8,8,1.8,11.7,0L78.6,76.4z"/>
</g>
<g>
	<path class="st5" d="M71.6,90c0.3-1.2,0.7-2.3,1.3-3.3l5.7-10.2L71.1,80c-3.7,1.8-8,1.8-11.7,0l-7.5-3.6l5.7,10.2
		c0.2,0.4,0.4,0.7,0.5,1.1c0.5,0,1.1-0.1,1.6-0.1C64.1,87.7,68.2,88.6,71.6,90z"/>
</g>
<g>
	<path class="st4" d="M70.7,109.8H59.8c-0.5,0-1-0.4-1-1l-0.5-16c-0.1-2-0.6-3.9-1.6-5.7L51,76.9c-0.2-0.4-0.2-0.9,0.1-1.2
		c0.3-0.3,0.8-0.4,1.2-0.2l7.5,3.6c3.4,1.6,7.4,1.6,10.8,0l7.5-3.6c0.4-0.2,0.9-0.1,1.2,0.2c0.3,0.3,0.4,0.8,0.1,1.2l-5.7,10.2
		c-1,1.7-1.5,3.7-1.6,5.7l-0.5,16C71.7,109.3,71.3,109.8,70.7,109.8z M60.8,107.7h8.9l0.5-15c0.1-2.3,0.7-4.6,1.8-6.6l4.1-7.4
		l-4.6,2.2c-4,1.9-8.6,1.9-12.6,0l-4.6-2.2l4.1,7.4c1.1,2,1.8,4.3,1.8,6.6L60.8,107.7z"/>
</g>
<g>
	<path class="st0" d="M62.1,46.5c0,0,6.7-6.3,18.7-0.2c-1.7-8-7.9-12.2-15.5-12.2c-7.5,0-13.8,4.2-15.5,12.2
		C51.4,45.5,57.3,43.2,62.1,46.5z"/>
</g>
<g>
	<path class="st5" d="M71.3,43.7c2.6,0.1,5.8,0.8,9.5,2.6c-1.7-8-7.9-12.2-15.5-12.2c-2.5,0-4.9,0.5-7,1.4
		C64,35.8,68.8,38.6,71.3,43.7z"/>
</g>
<g>
	<path class="st4" d="M62.1,47.5c-0.2,0-0.4-0.1-0.6-0.2c-4.3-3-9.7-0.9-11.2-0.1c-0.3,0.2-0.8,0.1-1.1-0.1c-0.3-0.2-0.4-0.6-0.4-1
		c1.7-8,8-13,16.5-13c8.5,0,14.8,5,16.5,13c0.1,0.4-0.1,0.8-0.4,1c-0.3,0.2-0.7,0.3-1.1,0.1c-11.3-5.7-17.5,0-17.5,0
		C62.6,47.4,62.3,47.5,62.1,47.5z M56.3,43.7c1.8,0,3.8,0.4,5.7,1.5c1.9-1.4,7.8-4.7,17.2-0.8c-2-5.9-7.1-9.4-13.9-9.4
		c-6.9,0-12,3.5-14,9.5C52.6,44.2,54.4,43.7,56.3,43.7z"/>
</g>
<g>
	<path class="st0" d="M39.7,68.8h-1.9c-0.6,0-1-0.5-1-1c0-0.6,0.5-1,1-1h1.9c0.6,0,1,0.5,1,1C40.7,68.3,40.2,68.8,39.7,68.8z"/>
</g>
<g>
	<path class="st0" d="M45.9,68.8h-1.9c-0.6,0-1-0.5-1-1c0-0.6,0.5-1,1-1h1.9c0.6,0,1,0.5,1,1C47,68.3,46.5,68.8,45.9,68.8z"/>
</g>
<g>
	<path class="st0" d="M41.9,72.8c-0.6,0-1-0.5-1-1v-1.9c0-0.6,0.5-1,1-1c0.6,0,1,0.5,1,1v1.9C42.9,72.4,42.4,72.8,41.9,72.8z"/>
</g>
<g>
	<path class="st0" d="M41.9,66.6c-0.6,0-1-0.5-1-1v-1.9c0-0.6,0.5-1,1-1c0.6,0,1,0.5,1,1v1.9C42.9,66.1,42.4,66.6,41.9,66.6z"/>
</g>
<g>
	<g>
		<path class="st0" d="M11,101.3H9.1c-0.6,0-1-0.5-1-1c0-0.6,0.5-1,1-1H11c0.6,0,1,0.5,1,1C12,100.9,11.6,101.3,11,101.3z"/>
	</g>
	<g>
		<path class="st0" d="M17.3,101.3h-1.9c-0.6,0-1-0.5-1-1c0-0.6,0.5-1,1-1h1.9c0.6,0,1,0.5,1,1C18.3,100.9,17.9,101.3,17.3,101.3z"
			/>
	</g>
	<g>
		<path class="st0" d="M13.2,105.4c-0.6,0-1-0.5-1-1v-1.9c0-0.6,0.5-1,1-1c0.6,0,1,0.5,1,1v1.9C14.2,105,13.8,105.4,13.2,105.4z"/>
	</g>
	<g>
		<path class="st0" d="M13.2,99.1c-0.6,0-1-0.5-1-1v-1.9c0-0.6,0.5-1,1-1c0.6,0,1,0.5,1,1v1.9C14.2,98.7,13.8,99.1,13.2,99.1z"/>
	</g>
</g>
<g>
	<g>
		<path class="st0" d="M9,79.7H7.2c-0.6,0-1-0.5-1-1c0-0.6,0.5-1,1-1H9c0.6,0,1,0.5,1,1C10.1,79.3,9.6,79.7,9,79.7z"/>
	</g>
	<g>
		<path class="st0" d="M15.3,79.7h-1.9c-0.6,0-1-0.5-1-1c0-0.6,0.5-1,1-1h1.9c0.6,0,1,0.5,1,1C16.3,79.3,15.9,79.7,15.3,79.7z"/>
	</g>
	<g>
		<path class="st0" d="M11.2,83.8c-0.6,0-1-0.5-1-1v-1.9c0-0.6,0.5-1,1-1c0.6,0,1,0.5,1,1v1.9C12.3,83.3,11.8,83.8,11.2,83.8z"/>
	</g>
	<g>
		<path class="st0" d="M11.2,77.5c-0.6,0-1-0.5-1-1v-1.9c0-0.6,0.5-1,1-1c0.6,0,1,0.5,1,1v1.9C12.3,77.1,11.8,77.5,11.2,77.5z"/>
	</g>
</g>
<g>
	<path class="st0" d="M116,43.2c-2.1,0-3.7-1.7-3.7-3.7c0-2.1,1.7-3.7,3.7-3.7c2.1,0,3.7,1.7,3.7,3.7C119.7,41.6,118,43.2,116,43.2z
		 M116,37.8c-0.9,0-1.7,0.8-1.7,1.7c0,0.9,0.8,1.7,1.7,1.7c0.9,0,1.7-0.8,1.7-1.7C117.7,38.6,116.9,37.8,116,37.8z"/>
</g>
<g>
	<path class="st0" d="M109.2,28.3c-2.1,0-3.7-1.7-3.7-3.7c0-2.1,1.7-3.7,3.7-3.7s3.7,1.7,3.7,3.7C112.9,26.6,111.2,28.3,109.2,28.3z
		 M109.2,22.9c-0.9,0-1.7,0.8-1.7,1.7c0,0.9,0.8,1.7,1.7,1.7c0.9,0,1.7-0.8,1.7-1.7C110.9,23.6,110.1,22.9,109.2,22.9z"/>
</g>
</svg>
