<?xml version="1.0" encoding="utf-8"?>
<!-- Generator: Adobe Illustrator 24.0.3, SVG Export Plug-In . SVG Version: 6.00 Build 0)  -->
<svg version="1.1" id="layer_1" xmlns="http://www.w3.org/2000/svg" xmlns:xlink="http://www.w3.org/1999/xlink" x="0px" y="0px"
	 viewBox="0 0 128 128" style="enable-background:new 0 0 128 128;" xml:space="preserve">
<style type="text/css">
	.st0{opacity:0.2;fill:#FFFFFF;}
	.st1{opacity:0.2;}
	.st2{fill:#FFFFFF;}
	.st3{opacity:0.2;fill:#0090D5;}
	.st4{fill:#21365F;}
	.st5{fill:#0090D5;}
</style>
<g>
	<circle class="st0" cx="29.3" cy="39.4" r="19.1"/>
</g>
<g class="st1">
	<circle class="st2" cx="101.4" cy="27.8" r="16.3"/>
</g>
<g>
	<circle class="st0" cx="78.9" cy="89.3" r="27.2"/>
</g>
<g>
	<path class="st2" d="M113.8,46.9c0-17.1-14.3-30.8-31.6-29.9C66.9,17.8,54.4,30.5,54,45.9c-0.3,8.9,3.3,16.9,9.2,22.6
		c3.3,3.1,5,7.6,5,12.1v1.7h31.4v-2c0-4.6,2-8.8,5.2-12C110.4,62.8,113.8,55.3,113.8,46.9z"/>
</g>
<g>
	<path class="st3" d="M84.6,17c7,6.5,11.4,15.7,11.4,25.9c0,17-12,31.2-28.1,34.6c0.2,1,0.3,2.1,0.3,3.1v1.7h31.4v-2
		c0-4.6,2-8.8,5.2-12c5.6-5.4,9-13,9-21.4C113.8,30.6,100.8,17.4,84.6,17z"/>
</g>
<g>
	<path class="st2" d="M94.8,93.2H73c-1.5,0-2.7-1.2-2.7-2.7l0,0c0-1.5,1.2-2.7,2.7-2.7h21.8c1.5,0,2.7,1.2,2.7,2.7l0,0
		C97.5,92,96.3,93.2,94.8,93.2z"/>
</g>
<g>
	<path class="st2" d="M94.8,98.6H73c-1.5,0-2.7-1.2-2.7-2.7l0,0c0-1.5,1.2-2.7,2.7-2.7h21.8c1.5,0,2.7,1.2,2.7,2.7l0,0
		C97.5,97.4,96.3,98.6,94.8,98.6z"/>
</g>
<g>
	<path class="st2" d="M95.5,87.7H72.3c-1.1,0-2-0.9-2-2v-3.4h27.2v3.4C97.5,86.8,96.6,87.7,95.5,87.7z"/>
</g>
<g>
	<path class="st3" d="M94.7,93.2H88c-1.5,0-2.7-1.2-2.7-2.7l0,0c0-1.5,1.2-2.7,2.7-2.7h6.7c1.5,0,2.7,1.2,2.7,2.7l0,0
		C97.4,92,96.2,93.2,94.7,93.2z"/>
</g>
<g>
	<path class="st3" d="M94.7,98.6H83.9c-1.5,0-2.7-1.2-2.7-2.7l0,0c0-1.5,1.2-2.7,2.7-2.7h10.8c1.5,0,2.7,1.2,2.7,2.7l0,0
		C97.4,97.4,96.2,98.6,94.7,98.6z"/>
</g>
<g>
	<path class="st3" d="M95.5,87.7H79.1c-1.1,0-2-0.9-2-2v-3.4h20.4v3.4C97.5,86.8,96.6,87.7,95.5,87.7z"/>
</g>
<g>
	<path class="st4" d="M99.6,83.3H68.2c-0.6,0-1-0.5-1-1v-1.7c0-4.4-1.7-8.5-4.7-11.4c-6.3-6.1-9.8-14.6-9.5-23.3
		C53.4,30,66.3,16.8,82.2,16c8.6-0.5,16.8,2.5,23,8.4c6.2,5.9,9.7,13.9,9.7,22.5c0,8.4-3.3,16.2-9.3,22.1c-3.2,3.1-4.9,7.1-4.9,11.3
		v2C100.6,82.8,100.1,83.3,99.6,83.3z M69.2,81.3h29.3v-1c0-4.7,2-9.2,5.6-12.7c5.6-5.5,8.7-12.8,8.7-20.6c0-8-3.2-15.5-9-21
		C98,20.4,90.3,17.6,82.3,18C67.5,18.8,55.5,31.1,55,45.9c-0.3,8.2,3,16.1,8.9,21.8c3.4,3.3,5.4,8,5.4,12.9V81.3z"/>
</g>
<g>
	<path class="st4" d="M94.8,94.2H73c-2.1,0-3.7-1.7-3.7-3.7c0-2.1,1.7-3.7,3.7-3.7h21.8c2.1,0,3.7,1.7,3.7,3.7
		C98.5,92.5,96.8,94.2,94.8,94.2z M73,88.8c-0.9,0-1.7,0.8-1.7,1.7c0,0.9,0.8,1.7,1.7,1.7h21.8c0.9,0,1.7-0.8,1.7-1.7
		c0-0.9-0.8-1.7-1.7-1.7H73z"/>
</g>
<g>
	<path class="st4" d="M94.8,99.6H73c-2.1,0-3.7-1.7-3.7-3.7c0-2.1,1.7-3.7,3.7-3.7h21.8c2.1,0,3.7,1.7,3.7,3.7
		C98.5,98,96.8,99.6,94.8,99.6z M73,94.2c-0.9,0-1.7,0.8-1.7,1.7c0,0.9,0.8,1.7,1.7,1.7h21.8c0.9,0,1.7-0.8,1.7-1.7
		c0-0.9-0.8-1.7-1.7-1.7H73z"/>
</g>
<g>
	<path class="st4" d="M94.8,88.8H73c-2.1,0-3.7-1.7-3.7-3.7v-2.7c0-0.6,0.5-1,1-1h27.2c0.6,0,1,0.5,1,1V85
		C98.5,87.1,96.8,88.8,94.8,88.8z M71.3,83.3V85c0,0.9,0.8,1.7,1.7,1.7h21.8c0.9,0,1.7-0.8,1.7-1.7v-1.7H71.3z"/>
</g>
<g>
	<path class="st2" d="M92.1,105.1H75.7c-0.6,0-1-0.5-1-1s0.5-1,1-1h16.3c0.6,0,1,0.5,1,1S92.6,105.1,92.1,105.1z"/>
</g>
<g>
	<path class="st4" d="M106.9,45.2c-0.5,0-1-0.4-1-0.9c-0.7-6.5-4.3-12.3-9.9-16c-0.5-0.3-0.6-0.9-0.3-1.4c0.3-0.5,0.9-0.6,1.4-0.3
		c6,4,9.9,10.3,10.8,17.4c0.1,0.6-0.3,1.1-0.9,1.1C107,45.2,106.9,45.2,106.9,45.2z"/>
</g>
<g>
	<path class="st4" d="M105.9,55.2c-0.1,0-0.2,0-0.3-0.1c-0.5-0.2-0.8-0.8-0.7-1.3c0.5-1.4,0.8-2.9,1-4.3c0.1-0.6,0.6-1,1.1-0.9
		c0.6,0.1,1,0.6,0.9,1.1c-0.2,1.6-0.5,3.2-1,4.7C106.7,54.9,106.3,55.2,105.9,55.2z"/>
</g>
<g>
	<path class="st2" d="M73.3,63.6V48.3l0,0c1.5,1.8,3.9,2.9,6.5,2.6c3.5-0.3,6.3-3.2,6.7-6.6c0.5-4.5-3-8.4-7.5-8.4
		c-2.3,0-4.4,1.1-5.8,2.7V17H59.4c1.7,1.4,2.7,3.4,2.7,5.8c0,4.4-3.8,8-8.4,7.5c-3.5-0.4-6.3-3.2-6.6-6.7c-0.3-2.6,0.8-5,2.6-6.5
		l0,0H26.7v21.7c1.4-1.7,3.4-2.7,5.8-2.7c4.4,0,8,3.8,7.5,8.4c-0.4,3.5-3.2,6.3-6.7,6.6c-2.6,0.3-5-0.8-6.5-2.6l0,0v15.2h14.9l0,0
		c-1.8,1.5-2.9,3.9-2.6,6.5c0.3,3.5,3.1,6.3,6.6,6.7c4.5,0.5,8.4-3,8.4-7.5c0-2.3-1.1-4.4-2.7-5.8L73.3,63.6z"/>
</g>
<g class="st1">
	<path class="st5" d="M79.1,36c-2.3,0-4.4,1.1-5.8,2.7V23.8c0,0-1.8,0-4.1,0c-2.3,0-4.1,1.8-4.1,4.1V50c0,2.3-1.8,4.1-4.1,4.1
		c-6.2,0-15.6,0-23.5,0c-2.3,0-4.1,1.8-4.1,4.1c0,3,0,5.4,0,5.4h8.1l0,0c-2,1.7-3.1,4.4-2.5,7.3c0.6,2.9,2.9,5.2,5.8,5.8
		c4.9,1,9.1-2.7,9.1-7.4c0-2.3-1.1-4.4-2.7-5.8l22,0V48.3l0,0c1.7,2,4.4,3.1,7.3,2.5c2.9-0.6,5.2-2.9,5.8-5.8
		C87.4,40.3,83.8,36,79.1,36z"/>
</g>
<g>
	<path class="st4" d="M46.4,77.9c-0.3,0-0.6,0-0.9-0.1c-4-0.4-7.1-3.7-7.5-7.6c-0.2-2,0.3-4,1.4-5.6H26.7c-0.6,0-1-0.5-1-1V48.3
		c0-0.3,0.2-0.6,0.4-0.8c0.3-0.2,0.6-0.3,0.9-0.2c0.2,0.1,0.4,0.2,0.5,0.3c1.4,1.6,3.5,2.5,5.6,2.3c3-0.3,5.5-2.8,5.8-5.7
		c0.2-1.9-0.4-3.7-1.6-5.1c-1.2-1.4-3-2.2-4.8-2.2c-1.9,0-3.7,0.9-5,2.3c-0.3,0.3-0.7,0.5-1.1,0.3c-0.4-0.1-0.7-0.5-0.7-1V17
		c0-0.6,0.5-1,1-1h23.1c0.4,0,0.7,0.2,0.9,0.5c0.2,0.3,0.2,0.7,0,1c-0.1,0.1-0.2,0.3-0.3,0.3c-1.6,1.4-2.5,3.5-2.3,5.6
		c0.3,3,2.8,5.5,5.7,5.8c1.9,0.2,3.7-0.4,5.1-1.6c1.4-1.2,2.2-3,2.2-4.8c0-1.9-0.9-3.7-2.3-5c-0.3-0.3-0.5-0.7-0.3-1.1
		c0.1-0.4,0.5-0.7,1-0.7h13.9c0.6,0,1,0.5,1,1v19.5c1.4-0.9,3-1.4,4.7-1.4c2.4,0,4.7,1,6.4,2.8c1.6,1.8,2.4,4.2,2.1,6.7
		c-0.4,4-3.7,7.1-7.6,7.5c-2,0.2-4-0.3-5.6-1.4v13c0,0.6-0.5,1-1,1H53.6c0.9,1.4,1.4,3,1.4,4.7c0,2.4-1,4.7-2.8,6.4
		C50.6,77.1,48.5,77.9,46.4,77.9z M27.7,62.5h13.9c0.4,0,0.7,0.2,0.9,0.5c0.2,0.3,0.2,0.7,0,1c-0.1,0.1-0.2,0.3-0.3,0.3
		c-1.6,1.4-2.5,3.5-2.3,5.6c0.3,3,2.8,5.5,5.7,5.8c1.9,0.2,3.7-0.4,5.1-1.6c1.4-1.2,2.2-3,2.2-4.8c0-1.9-0.9-3.7-2.3-5
		c-0.3-0.3-0.5-0.7-0.3-1.1s0.5-0.7,1-0.7h21V48.3c0-0.3,0.2-0.6,0.4-0.8c0.3-0.2,0.6-0.2,0.9-0.1c0.2,0.1,0.4,0.2,0.5,0.3
		c1.4,1.6,3.5,2.5,5.6,2.3c3-0.3,5.5-2.8,5.8-5.7c0.2-1.9-0.4-3.7-1.6-5.1c-1.2-1.4-3-2.2-4.8-2.2c-1.9,0-3.7,0.9-5,2.3
		c-0.3,0.3-0.7,0.5-1.1,0.3c-0.4-0.1-0.7-0.5-0.7-1V18H61.7c0.9,1.4,1.4,3,1.4,4.7c0,2.4-1,4.7-2.8,6.4c-1.8,1.6-4.2,2.4-6.7,2.1
		c-4-0.4-7.1-3.7-7.5-7.6c-0.2-2,0.3-4,1.4-5.6H27.7v18.4c1.4-0.9,3-1.4,4.7-1.4c2.4,0,4.7,1,6.4,2.8c1.6,1.8,2.4,4.2,2.1,6.7
		c-0.4,4-3.6,7.1-7.6,7.5c-2,0.2-4-0.3-5.6-1.4V62.5z"/>
</g>
<g>
	<path class="st2" d="M43.4,101h-1.9c-0.6,0-1-0.5-1-1c0-0.6,0.5-1,1-1h1.9c0.6,0,1,0.5,1,1C44.4,100.5,43.9,101,43.4,101z"/>
</g>
<g>
	<path class="st2" d="M49.7,101h-1.9c-0.6,0-1-0.5-1-1c0-0.6,0.5-1,1-1h1.9c0.6,0,1,0.5,1,1C50.7,100.5,50.2,101,49.7,101z"/>
</g>
<g>
	<path class="st2" d="M45.6,105.1c-0.6,0-1-0.5-1-1v-1.9c0-0.6,0.5-1,1-1c0.6,0,1,0.5,1,1v1.9C46.6,104.6,46.1,105.1,45.6,105.1z"/>
</g>
<g>
	<path class="st2" d="M45.6,98.8c-0.6,0-1-0.5-1-1v-1.9c0-0.6,0.5-1,1-1c0.6,0,1,0.5,1,1v1.9C46.6,98.3,46.1,98.8,45.6,98.8z"/>
</g>
<g>
	<path class="st2" d="M55.6,88.8h-1.9c-0.6,0-1-0.5-1-1c0-0.6,0.5-1,1-1h1.9c0.6,0,1,0.5,1,1C56.6,88.3,56.2,88.8,55.6,88.8z"/>
</g>
<g>
	<path class="st2" d="M61.9,88.8H60c-0.6,0-1-0.5-1-1c0-0.6,0.5-1,1-1h1.9c0.6,0,1,0.5,1,1C62.9,88.3,62.5,88.8,61.9,88.8z"/>
</g>
<g>
	<path class="st2" d="M57.8,92.8c-0.6,0-1-0.5-1-1v-1.9c0-0.6,0.5-1,1-1c0.6,0,1,0.5,1,1v1.9C58.8,92.4,58.4,92.8,57.8,92.8z"/>
</g>
<g>
	<path class="st2" d="M57.8,86.6c-0.6,0-1-0.5-1-1v-1.9c0-0.6,0.5-1,1-1c0.6,0,1,0.5,1,1v1.9C58.8,86.1,58.4,86.6,57.8,86.6z"/>
</g>
<g>
	<path class="st2" d="M32.7,83.3h-1.9c-0.6,0-1-0.5-1-1s0.5-1,1-1h1.9c0.6,0,1,0.5,1,1S33.2,83.3,32.7,83.3z"/>
</g>
<g>
	<path class="st2" d="M39,83.3h-1.9c-0.6,0-1-0.5-1-1s0.5-1,1-1H39c0.6,0,1,0.5,1,1S39.5,83.3,39,83.3z"/>
</g>
<g>
	<path class="st2" d="M34.9,87.4c-0.6,0-1-0.5-1-1v-1.9c0-0.6,0.5-1,1-1c0.6,0,1,0.5,1,1v1.9C35.9,86.9,35.4,87.4,34.9,87.4z"/>
</g>
<g>
	<path class="st2" d="M34.9,81.1c-0.6,0-1-0.5-1-1v-1.9c0-0.6,0.5-1,1-1c0.6,0,1,0.5,1,1v1.9C35.9,80.7,35.4,81.1,34.9,81.1z"/>
</g>
<g>
	<path class="st4" d="M83.9,83.3c-0.6,0-1-0.5-1-1V63.7L78,58.8c-0.4-0.4-0.4-1,0-1.4c0.4-0.4,1-0.4,1.4,0l5.2,5.2
		c0.2,0.2,0.3,0.5,0.3,0.7v19.1C84.9,82.8,84.4,83.3,83.9,83.3z"/>
</g>
<g>
	<path class="st4" d="M83.9,64.3c-0.3,0-0.5-0.1-0.7-0.3c-0.4-0.4-0.4-1,0-1.4l5.3-5.3c0.4-0.4,1-0.4,1.4,0c0.4,0.4,0.4,1,0,1.4
		L84.6,64C84.4,64.2,84.1,64.3,83.9,64.3z"/>
</g>
</svg>
