<?xml version="1.0" encoding="utf-8"?>
<!-- Generator: Adobe Illustrator 24.0.3, SVG Export Plug-In . SVG Version: 6.00 Build 0)  -->
<svg version="1.1" id="layer_1" xmlns="http://www.w3.org/2000/svg" xmlns:xlink="http://www.w3.org/1999/xlink" x="0px" y="0px"
	 viewBox="0 0 128 128" style="enable-background:new 0 0 128 128;" xml:space="preserve">
<style type="text/css">
	.st0{opacity:0.2;}
	.st1{fill:#FFFFFF;}
	.st2{fill:#21365F;}
	.st3{opacity:0.2;fill:#0090D5;}
</style>
<g>
	<g class="st0">
		<path class="st1" d="M94,42.8l-30-30c0,14.3-48,68.4,0,102.6c-8.8,0-17.7-2.7-25.1-8.2c16.6,12.2,40.1,10.8,55.2-4.2
			C110.6,86.3,110.6,59.3,94,42.8z"/>
		<path class="st1" d="M37.7,106.2c-0.2-0.1-0.3-0.3-0.5-0.4C37.3,105.9,37.5,106,37.7,106.2z"/>
	</g>
	<path class="st2" d="M64,116.5c-11.2,0-22.4-4.3-30.9-12.8c-17-17-17-44.8,0-61.8l30-30c0.5-0.5,1.2-0.5,1.7,0l30,30l0,0
		c17,17,17,44.8,0,61.8C86.4,112.2,75.2,116.5,64,116.5z M64,14.4L34.8,43.6c-16.1,16.1-16.1,42.3,0,58.4
		c16.1,16.1,42.3,16.1,58.4,0c7.8-7.8,12.1-18.2,12.1-29.2c0-11-4.3-21.4-12.1-29.2L64,14.4z"/>
	<path class="st1" d="M35.1,49.6H12.7l0,0c0,15.9,12.9,28.9,28.9,28.9H64l0,0C64,62.5,51.1,49.6,35.1,49.6z"/>
	<path class="st3" d="M12.7,49.6c0,15.9,13.8,28.9,30.8,28.9H64v0C36.9,72.5,12.7,49.6,12.7,49.6z"/>
	<path class="st2" d="M41.6,79.6c-16.6,0-30.1-13.5-30.1-30.1c0-0.7,0.5-1.2,1.2-1.2h22.4c16.6,0,30.1,13.5,30.1,30.1
		c0,0.7-0.5,1.2-1.2,1.2L41.6,79.6z M13.9,50.8c0.6,14.7,12.8,26.4,27.6,26.4h21.2C62.1,62.5,50,50.8,35.1,50.8H13.9z"/>
	<path class="st2" d="M64,79.6c-0.1,0-0.2,0-0.3,0C46.9,75.9,31.2,65.9,21,58.1c-0.5-0.4-0.6-1.2-0.2-1.7c0.4-0.5,1.2-0.6,1.7-0.2
		c10,7.6,25.3,17.5,41.7,21.1c0.6,0.1,1.1,0.8,0.9,1.4C65,79.2,64.6,79.6,64,79.6z"/>
	<path class="st1" d="M92.9,68.8h22.4l0,0c0,15.9-12.9,28.9-28.9,28.9H64l0,0C64,81.7,76.9,68.8,92.9,68.8z"/>
	<path class="st3" d="M115.3,68.8c0,15.9-13.8,28.9-30.8,28.9H64l0,0C91.1,91.7,115.3,68.8,115.3,68.8z"/>
	<path class="st2" d="M86.4,98.9H64c-0.7,0-1.2-0.5-1.2-1.2c0-16.6,13.5-30.1,30.1-30.1h22.4c0.7,0,1.2,0.5,1.2,1.2
		C116.5,85.4,103,98.9,86.4,98.9z M65.2,96.5h21.2c14.8,0,27-11.8,27.6-26.4H92.9C78,70,65.9,81.8,65.2,96.5z"/>
	<path class="st2" d="M64,98.9c-0.6,0-1.1-0.4-1.2-0.9c-0.1-0.6,0.3-1.3,0.9-1.4c16.4-3.6,31.8-13.4,41.8-21.1
		c0.5-0.4,1.3-0.3,1.7,0.2c0.4,0.5,0.3,1.3-0.2,1.7c-10.2,7.8-25.8,17.8-42.7,21.5C64.2,98.9,64.1,98.9,64,98.9z"/>
	<path class="st1" d="M92.9,22.3h16l0,0c0,15.9-12.9,28.9-28.9,28.9H64l0,0C64,35.2,76.9,22.3,92.9,22.3z"/>
	<path class="st3" d="M108.9,22.3c0,15.9-12.1,28.9-26.9,28.9H64l0,0C87.8,45.2,108.9,22.3,108.9,22.3z"/>
	<path class="st2" d="M80,52.4H64c-0.7,0-1.2-0.5-1.2-1.2c0-16.6,13.5-30.1,30.1-30.1h16c0.7,0,1.2,0.5,1.2,1.2
		C110.1,38.9,96.6,52.4,80,52.4z M65.2,50H80c14.8,0,27-11.8,27.6-26.4H92.9C78,23.5,65.9,35.3,65.2,50z"/>
	<path class="st2" d="M64,52.4c-0.5,0-1-0.4-1.2-0.9c-0.2-0.6,0.2-1.3,0.9-1.5c14.3-3.6,27.7-13.4,36.4-21c0.5-0.4,1.3-0.4,1.7,0.1
		c0.4,0.5,0.4,1.3-0.1,1.7c-8.9,7.8-22.6,17.8-37.4,21.6C64.2,52.4,64.1,52.4,64,52.4z"/>
	<path class="st2" d="M64,116.5c-0.7,0-1.2-0.5-1.2-1.2V51.2c0-0.7,0.5-1.2,1.2-1.2c0.7,0,1.2,0.5,1.2,1.2v64.1
		C65.2,116,64.7,116.5,64,116.5z"/>
	<path class="st1" d="M20.7,39.6c-2.4,0-4.4-2-4.4-4.4s2-4.4,4.4-4.4s4.4,2,4.4,4.4S23.1,39.6,20.7,39.6z M20.7,33.1
		c-1.1,0-2,0.9-2,2c0,1.1,0.9,2,2,2c1.1,0,2-0.9,2-2C22.7,34,21.8,33.1,20.7,33.1z"/>
	<path class="st1" d="M46.4,97.3c-2.4,0-4.4-2-4.4-4.4c0-2.4,2-4.4,4.4-4.4s4.4,2,4.4,4.4C50.8,95.3,48.8,97.3,46.4,97.3z
		 M46.4,90.9c-1.1,0-2,0.9-2,2c0,1.1,0.9,2,2,2c1.1,0,2-0.9,2-2C48.4,91.8,47.5,90.9,46.4,90.9z"/>
	<path class="st1" d="M36.7,23.5c-2.4,0-4.4-2-4.4-4.4s2-4.4,4.4-4.4c2.4,0,4.4,2,4.4,4.4S39.2,23.5,36.7,23.5z M36.7,17.1
		c-1.1,0-2,0.9-2,2c0,1.1,0.9,2,2,2c1.1,0,2-0.9,2-2C38.8,18,37.9,17.1,36.7,17.1z"/>
	<path class="st1" d="M112.1,52.4c-2.4,0-4.4-2-4.4-4.4s2-4.4,4.4-4.4c2.4,0,4.4,2,4.4,4.4S114.5,52.4,112.1,52.4z M112.1,46
		c-1.1,0-2,0.9-2,2c0,1.1,0.9,2,2,2c1.1,0,2-0.9,2-2C114.1,46.9,113.2,46,112.1,46z"/>
	<path class="st1" d="M76.8,66.8c-2.4,0-4.4-2-4.4-4.4s2-4.4,4.4-4.4c2.4,0,4.4,2,4.4,4.4S79.3,66.8,76.8,66.8z M76.8,60.4
		c-1.1,0-2,0.9-2,2c0,1.1,0.9,2,2,2c1.1,0,2-0.9,2-2C78.8,61.3,77.9,60.4,76.8,60.4z"/>
</g>
</svg>
