<?xml version="1.0" encoding="utf-8"?>
<!-- Generator: Adobe Illustrator 24.0.3, SVG Export Plug-In . SVG Version: 6.00 Build 0)  -->
<svg version="1.1" id="layer_1" xmlns="http://www.w3.org/2000/svg" xmlns:xlink="http://www.w3.org/1999/xlink" x="0px" y="0px"
	 viewBox="0 0 128 128" style="enable-background:new 0 0 128 128;" xml:space="preserve">
<style type="text/css">
	.st0{opacity:0.2;}
	.st1{fill:#FFFFFF;}
	.st2{opacity:0.2;fill:#0090D5;}
	.st3{fill:#21365F;}
	.st4{fill:#0090D5;}
</style>
<g class="st0">
	<circle class="st1" cx="94.6" cy="55.5" r="20"/>
</g>
<g class="st0">
	<circle class="st1" cx="37.9" cy="99.3" r="17.2"/>
</g>
<g class="st0">
	<circle class="st1" cx="41.9" cy="40.1" r="28.6"/>
</g>
<g>
	<path class="st1" d="M60.8,51h-8.6l0,0c0,11.1,9,20,20,20h8.6l0,0C80.9,60,71.9,51,60.8,51z"/>
</g>
<g>
	<path class="st2" d="M80.9,71.1h-8.6c-11.1,0-20-9-20-20l0,0C69.3,57.1,80.9,71.1,80.9,71.1z"/>
</g>
<g>
	<path class="st3" d="M80.9,72.1h-8.6c-11.6,0-21.1-9.5-21.1-21.1c0-0.6,0.5-1.1,1.1-1.1h8.6c11.6,0,21.1,9.5,21.1,21.1
		C81.9,71.7,81.5,72.1,80.9,72.1z M53.4,52.1c0.6,10,8.8,17.9,18.9,17.9h7.5c-0.6-10-8.8-17.9-18.9-17.9H53.4z"/>
</g>
<g>
	<path class="st3" d="M80.9,72.1c-0.3,0-0.6-0.1-0.8-0.4c-0.1-0.1-7.1-8.4-18-14.9c-0.5-0.3-0.7-1-0.4-1.5c0.3-0.5,1-0.7,1.5-0.4
		c11.3,6.7,18.3,15,18.6,15.4c0.4,0.5,0.3,1.1-0.1,1.5C81.4,72,81.1,72.1,80.9,72.1z"/>
</g>
<g>
	<path class="st1" d="M100.9,59.6h8.6l0,0c0,11.1-9,20-20,20h-8.6l0,0C80.9,68.6,89.8,59.6,100.9,59.6z"/>
</g>
<g class="st0">
	<path class="st4" d="M80.9,79.6h8.6c11.1,0,20-9,20-20l0,0C92.5,65.7,80.9,79.6,80.9,79.6z"/>
</g>
<g>
	<path class="st3" d="M89.5,80.7h-8.6c-0.6,0-1.1-0.5-1.1-1.1c0-11.6,9.5-21.1,21.1-21.1h8.6c0.6,0,1.1,0.5,1.1,1.1
		C110.6,71.2,101.1,80.7,89.5,80.7z M82,78.6h7.5c10.1,0,18.4-7.9,18.9-17.9h-7.5C90.8,60.7,82.5,68.6,82,78.6z"/>
</g>
<g>
	<path class="st3" d="M80.9,80.7c-0.2,0-0.5-0.1-0.7-0.2c-0.5-0.4-0.5-1.1-0.1-1.5c0.3-0.4,7.3-8.7,18.6-15.4
		c0.5-0.3,1.2-0.1,1.5,0.4c0.3,0.5,0.1,1.2-0.4,1.5c-10.9,6.5-18,14.8-18,14.9C81.5,80.6,81.2,80.7,80.9,80.7z"/>
</g>
<g>
	<path class="st1" d="M66.6,81.1h8.6l0,0c0,11.1-9,20-20,20h-8.6l0,0C46.5,90,55.5,81.1,66.6,81.1z"/>
</g>
<g>
	<path class="st2" d="M46.5,101.1h8.6c11.1,0,20-9,20-20l0,0C58.1,87.2,46.5,101.1,46.5,101.1z"/>
</g>
<g>
	<path class="st3" d="M55.1,102.2h-8.6c-0.6,0-1.1-0.5-1.1-1.1c0-11.6,9.5-21.1,21.1-21.1h8.6c0.6,0,1.1,0.5,1.1,1.1
		C76.2,92.7,66.8,102.2,55.1,102.2z M47.6,100h7.5c10.1,0,18.4-7.9,18.9-17.9h-7.5C56.5,82.2,48.2,90.1,47.6,100z"/>
</g>
<g>
	<path class="st3" d="M46.5,102.2c-0.2,0-0.5-0.1-0.7-0.3c-0.5-0.4-0.5-1.1-0.1-1.5c0.3-0.4,7.3-8.7,18.6-15.4
		c0.5-0.3,1.2-0.1,1.5,0.4c0.3,0.5,0.1,1.2-0.4,1.5c-10.9,6.5-18,14.8-18,14.9C47.1,102.1,46.8,102.2,46.5,102.2z"/>
</g>
<g>
	<path class="st1" d="M26.5,72.5h-8.6l0,0c0,11.1,9,20,20,20h8.6l0,0C46.5,81.5,37.6,72.5,26.5,72.5z"/>
</g>
<g>
	<path class="st2" d="M46.5,92.5h-8.6c-11.1,0-20-9-20-20l0,0C34.9,78.6,46.5,92.5,46.5,92.5z"/>
</g>
<g>
	<path class="st3" d="M46.5,93.6h-8.6c-11.6,0-21.1-9.5-21.1-21.1c0-0.6,0.5-1.1,1.1-1.1h8.6c11.6,0,21.1,9.5,21.1,21.1
		C47.6,93.1,47.1,93.6,46.5,93.6z M19,73.6c0.6,10,8.8,17.9,18.9,17.9h7.5c-0.6-10-8.8-17.9-18.9-17.9H19z"/>
</g>
<g>
	<path class="st3" d="M46.5,93.6c-0.3,0-0.6-0.1-0.8-0.4c-0.1-0.1-7.1-8.4-18-14.9c-0.5-0.3-0.7-1-0.4-1.5c0.3-0.5,1-0.7,1.5-0.4
		c11.3,6.7,18.3,15,18.6,15.4c0.4,0.5,0.3,1.1-0.1,1.5C47,93.5,46.8,93.6,46.5,93.6z"/>
</g>
<g>
	<path class="st3" d="M59.4,109.3H30.8c-0.6,0-1.1-0.5-1.1-1.1c0-0.6,0.5-1.1,1.1-1.1h28.6c0.6,0,1.1,0.5,1.1,1.1
		C60.5,108.9,60,109.3,59.4,109.3z"/>
</g>
<g>
	<path class="st3" d="M86.6,109.3H65.1c-0.6,0-1.1-0.5-1.1-1.1c0-0.6,0.5-1.1,1.1-1.1h21.5c0.6,0,1.1,0.5,1.1,1.1
		C87.7,108.9,87.2,109.3,86.6,109.3z"/>
</g>
<g>
	<path class="st3" d="M96.6,109.3h-4.3c-0.6,0-1.1-0.5-1.1-1.1c0-0.6,0.5-1.1,1.1-1.1h4.3c0.6,0,1.1,0.5,1.1,1.1
		C97.7,108.9,97.2,109.3,96.6,109.3z"/>
</g>
<g>
	<circle class="st1" cx="80.9" cy="32.4" r="15.7"/>
</g>
<g>
	<path class="st2" d="M96.6,32.4c0-2-0.4-3.8-1-5.5c-1.7-0.6-3.6-1-5.5-1c-8.7,0-15.7,7-15.7,15.7c0,2,0.4,3.8,1,5.5
		c1.7,0.6,3.6,1,5.5,1C89.6,48.2,96.6,41.1,96.6,32.4z"/>
</g>
<g>
	<path class="st3" d="M80.9,49.2c-9.3,0-16.8-7.5-16.8-16.8s7.5-16.8,16.8-16.8s16.8,7.5,16.8,16.8S90.2,49.2,80.9,49.2z M80.9,17.8
		c-8.1,0-14.7,6.6-14.7,14.7c0,8.1,6.6,14.7,14.7,14.7c8.1,0,14.7-6.6,14.7-14.7C95.6,24.3,89,17.8,80.9,17.8z"/>
</g>
<g>
	<circle class="st3" cx="90.7" cy="32.4" r="1.3"/>
</g>
<g>
	<circle class="st3" cx="71" cy="32.4" r="1.3"/>
</g>
<g>
	<circle class="st1" cx="46.5" cy="53.9" r="15.7"/>
</g>
<g>
	<path class="st2" d="M62.3,53.9c0-2-0.4-3.8-1-5.5c-1.7-0.7-3.6-1-5.5-1c-8.7,0-15.7,7-15.7,15.7c0,2,0.4,3.8,1,5.5
		c1.7,0.7,3.6,1,5.5,1C55.2,69.6,62.3,62.6,62.3,53.9z"/>
</g>
<g>
	<path class="st3" d="M46.5,70.7c-9.3,0-16.8-7.5-16.8-16.8c0-9.3,7.5-16.8,16.8-16.8s16.8,7.5,16.8,16.8
		C63.3,63.2,55.8,70.7,46.5,70.7z M46.5,39.2c-8.1,0-14.7,6.6-14.7,14.7c0,8.1,6.6,14.7,14.7,14.7c8.1,0,14.7-6.6,14.7-14.7
		C61.2,45.8,54.6,39.2,46.5,39.2z"/>
</g>
<g>
	<path class="st3" d="M57.7,53.9c0,0.7-0.6,1.3-1.3,1.3c-0.7,0-1.3-0.6-1.3-1.3c0-0.7,0.6-1.3,1.3-1.3
		C57.1,52.6,57.7,53.2,57.7,53.9z"/>
</g>
<g>
	<path class="st3" d="M38,53.9c0,0.7-0.6,1.3-1.3,1.3s-1.3-0.6-1.3-1.3c0-0.7,0.6-1.3,1.3-1.3S38,53.2,38,53.9z"/>
</g>
<g>
	<path class="st3" d="M80.9,109.3c-0.6,0-1.1-0.5-1.1-1.1V48.2c0-0.6,0.5-1.1,1.1-1.1c0.6,0,1.1,0.5,1.1,1.1v60.1
		C82,108.9,81.5,109.3,80.9,109.3z"/>
</g>
<g>
	<path class="st3" d="M46.5,109.3c-0.6,0-1.1-0.5-1.1-1.1V69.6c0-0.6,0.5-1.1,1.1-1.1c0.6,0,1.1,0.5,1.1,1.1v38.6
		C47.6,108.9,47.1,109.3,46.5,109.3z"/>
</g>
<g>
	<path class="st1" d="M53.7,32.1c-2.2,0-3.9-1.8-3.9-3.9c0-2.2,1.8-3.9,3.9-3.9s3.9,1.8,3.9,3.9C57.6,30.3,55.9,32.1,53.7,32.1z
		 M53.7,26.4c-1,0-1.8,0.8-1.8,1.8c0,1,0.8,1.8,1.8,1.8c1,0,1.8-0.8,1.8-1.8C55.5,27.2,54.7,26.4,53.7,26.4z"/>
</g>
<g>
	<path class="st1" d="M99.5,53.6c-2.2,0-3.9-1.8-3.9-3.9c0-2.2,1.8-3.9,3.9-3.9s3.9,1.8,3.9,3.9C103.4,51.8,101.7,53.6,99.5,53.6z
		 M99.5,47.8c-1,0-1.8,0.8-1.8,1.8c0,1,0.8,1.8,1.8,1.8c1,0,1.8-0.8,1.8-1.8C101.3,48.6,100.5,47.8,99.5,47.8z"/>
</g>
<g>
	<path class="st1" d="M92.3,93.6c-2.2,0-3.9-1.8-3.9-3.9c0-2.2,1.8-3.9,3.9-3.9c2.2,0,3.9,1.8,3.9,3.9
		C96.3,91.9,94.5,93.6,92.3,93.6z M92.3,87.9c-1,0-1.8,0.8-1.8,1.8c0,1,0.8,1.8,1.8,1.8c1,0,1.8-0.8,1.8-1.8
		C94.1,88.7,93.3,87.9,92.3,87.9z"/>
</g>
<g>
	<path class="st1" d="M103.8,102.2c-2.2,0-3.9-1.8-3.9-3.9c0-2.2,1.8-3.9,3.9-3.9s3.9,1.8,3.9,3.9
		C107.7,100.5,106,102.2,103.8,102.2z M103.8,96.5c-1,0-1.8,0.8-1.8,1.8c0,1,0.8,1.8,1.8,1.8c1,0,1.8-0.8,1.8-1.8
		C105.6,97.3,104.8,96.5,103.8,96.5z"/>
</g>
<g>
	<path class="st1" d="M36.5,26.4c-2.2,0-3.9-1.8-3.9-3.9c0-2.2,1.8-3.9,3.9-3.9c2.2,0,3.9,1.8,3.9,3.9
		C40.4,24.6,38.7,26.4,36.5,26.4z M36.5,20.6c-1,0-1.8,0.8-1.8,1.8c0,1,0.8,1.8,1.8,1.8c1,0,1.8-0.8,1.8-1.8
		C38.3,21.4,37.5,20.6,36.5,20.6z"/>
</g>
<g>
	<path class="st1" d="M25.1,42.1c-2.2,0-3.9-1.8-3.9-3.9c0-2.2,1.8-3.9,3.9-3.9S29,36,29,38.2C29,40.3,27.2,42.1,25.1,42.1z
		 M25.1,36.4c-1,0-1.8,0.8-1.8,1.8c0,1,0.8,1.8,1.8,1.8c1,0,1.8-0.8,1.8-1.8C26.9,37.2,26.1,36.4,25.1,36.4z"/>
</g>
<g>
	<path class="st1" d="M30.8,103.6c-2.2,0-3.9-1.8-3.9-3.9c0-2.2,1.8-3.9,3.9-3.9s3.9,1.8,3.9,3.9C34.7,101.9,33,103.6,30.8,103.6z
		 M30.8,97.9c-1,0-1.8,0.8-1.8,1.8c0,1,0.8,1.8,1.8,1.8c1,0,1.8-0.8,1.8-1.8C32.6,98.7,31.8,97.9,30.8,97.9z"/>
</g>
<g>
	<path class="st3" d="M48,59.6h-2.4v-9.3l-2.3,0.9v-2l4.5-1.8H48V59.6z"/>
</g>
<g>
	<path class="st3" d="M81.9,38.2h-2.4v-9.3l-2.3,0.9v-2l4.5-1.8h0.3V38.2z"/>
</g>
</svg>
