<?xml version="1.0" encoding="utf-8"?>
<!-- Generator: Adobe Illustrator 24.0.3, SVG Export Plug-In . SVG Version: 6.00 Build 0)  -->
<svg version="1.1" id="layer_1" xmlns="http://www.w3.org/2000/svg" xmlns:xlink="http://www.w3.org/1999/xlink" x="0px" y="0px"
	 viewBox="0 0 128 128" style="enable-background:new 0 0 128 128;" xml:space="preserve">
<style type="text/css">
	.st0{fill:#FFFFFF;}
	.st1{opacity:0.2;}
	.st2{opacity:0.2;fill:#FFFFFF;}
	.st3{fill:#0090D5;}
	.st4{fill:#21365F;}
</style>
<g>
	<polygon class="st0" points="80.9,18.5 61.4,38 71.4,38 71.4,105 90.9,105 90.9,38 100.5,38 	"/>
</g>
<g>
	<polygon class="st0" points="80.9,18.5 61.4,38 71.4,38 71.4,105 90.9,105 90.9,38 100.5,38 	"/>
</g>
<g>
	<polygon class="st0" points="39.2,38 19.6,57.6 29.6,57.6 29.6,105 49.1,105 49.1,57.6 58.7,57.6 	"/>
</g>
<g class="st1">
	<polygon class="st0" points="80.9,18.5 61.4,38 71.4,38 71.4,105 90.9,105 90.9,38 100.5,38 	"/>
</g>
<g class="st1">
	<polygon class="st0" points="39.2,38 19.6,57.6 29.6,57.6 29.6,105 49.1,105 49.1,57.6 58.7,57.6 	"/>
</g>
<g>
	<circle class="st2" cx="66" cy="97" r="19.5"/>
</g>
<g>
	<circle class="st2" cx="101.6" cy="69.4" r="16.7"/>
</g>
<g class="st1">
	<circle class="st0" cx="37.6" cy="39.4" r="27.9"/>
</g>
<g class="st1">
	<polygon class="st3" points="80.9,18.5 61.4,38 71.4,38 71.4,105 90.9,105 90.9,38 100.5,38 	"/>
</g>
<g>
	<polygon class="st0" points="77.1,22.4 61.4,38 71.4,38 71.4,96.6 84.9,96.6 84.9,34.6 89.3,34.6 	"/>
</g>
<g>
	<path class="st4" d="M90.8,106H71.2c-0.6,0-1-0.5-1-1V39.1h-8.8c-0.4,0-0.8-0.3-1-0.6c-0.2-0.4-0.1-0.8,0.2-1.1l19.5-19.5
		c0.4-0.4,1.1-0.4,1.5,0l19.5,19.5c0.3,0.3,0.4,0.7,0.2,1.1c-0.2,0.4-0.5,0.6-1,0.6h-8.6V105C91.8,105.6,91.3,106,90.8,106z
		 M72.3,103.9h17.4V38c0-0.6,0.5-1,1-1h7.2l-17-17l-17,17h7.3c0.6,0,1,0.5,1,1V103.9z"/>
</g>
<g class="st1">
	<polygon class="st3" points="39.2,38 19.6,57.6 29.6,57.6 29.6,105 49.1,105 49.1,57.6 58.7,57.6 	"/>
</g>
<g>
	<polygon class="st0" points="35.3,41.9 19.6,57.6 29.6,57.6 29.6,98 43.1,98 43.1,54.1 47.5,54.1 	"/>
</g>
<g>
	<path class="st4" d="M49.1,106H29.6c-0.6,0-1-0.5-1-1V58.6h-8.9c-0.4,0-0.8-0.3-1-0.6c-0.2-0.4-0.1-0.8,0.2-1.1l19.5-19.5
		c0.4-0.4,1.1-0.4,1.5,0l19.5,19.5c0.3,0.3,0.4,0.7,0.2,1.1c-0.2,0.4-0.5,0.6-1,0.6h-8.5V105C50.2,105.6,49.7,106,49.1,106z
		 M30.6,103.9h17.4V57.6c0-0.6,0.5-1,1-1h7.1l-17-17l-17,17h7.4c0.6,0,1,0.5,1,1V103.9z"/>
</g>
<g>
	<path class="st0" d="M105.1,100.8H82c-0.6,0-1,0.4-1,1v5c0,0.6,0.4,1,1,1h23.1c0.6,0,1-0.4,1-1v-5
		C106.1,101.3,105.7,100.8,105.1,100.8z"/>
</g>
<g>
	<path class="st4" d="M104.7,108.8H82.4c-1.3,0-2.4-1.1-2.4-2.4v-4.2c0-1.3,1.1-2.4,2.4-2.4h22.3c1.3,0,2.4,1.1,2.4,2.4v4.2
		C107.2,107.7,106.1,108.8,104.7,108.8z M82.4,101.9c-0.2,0-0.3,0.2-0.3,0.3v4.2c0,0.2,0.2,0.3,0.3,0.3h22.3c0.2,0,0.3-0.2,0.3-0.3
		v-4.2c0-0.2-0.2-0.3-0.3-0.3H82.4z"/>
</g>
<g>
	<path class="st4" d="M88.7,108.8c-0.6,0-1-0.5-1-1v-7c0-0.6,0.5-1,1-1c0.6,0,1,0.5,1,1v7C89.7,108.4,89.2,108.8,88.7,108.8z"/>
</g>
<g>
	<path class="st4" d="M98.4,108.8c-0.6,0-1-0.5-1-1v-7c0-0.6,0.5-1,1-1c0.6,0,1,0.5,1,1v7C99.5,108.4,99,108.8,98.4,108.8z"/>
</g>
<g>
	<path class="st0" d="M107.9,93.8H84.8c-0.6,0-1,0.4-1,1v5c0,0.6,0.4,1,1,1h23.1c0.6,0,1-0.4,1-1v-5
		C108.9,94.3,108.4,93.8,107.9,93.8z"/>
</g>
<g>
	<path class="st4" d="M107.5,101.9H85.2c-1.3,0-2.4-1.1-2.4-2.4v-4.2c0-1.3,1.1-2.4,2.4-2.4h22.3c1.3,0,2.4,1.1,2.4,2.4v4.2
		C109.9,100.8,108.8,101.9,107.5,101.9z M85.2,94.9c-0.2,0-0.3,0.2-0.3,0.3v4.2c0,0.2,0.2,0.3,0.3,0.3h22.3c0.2,0,0.3-0.2,0.3-0.3
		v-4.2c0-0.2-0.2-0.3-0.3-0.3H85.2z"/>
</g>
<g>
	<path class="st4" d="M91.5,101.9c-0.6,0-1-0.5-1-1v-7c0-0.6,0.5-1,1-1c0.6,0,1,0.5,1,1v7C92.5,101.4,92,101.9,91.5,101.9z"/>
</g>
<g>
	<path class="st4" d="M101.2,101.9c-0.6,0-1-0.5-1-1v-7c0-0.6,0.5-1,1-1c0.6,0,1,0.5,1,1v7C102.3,101.4,101.8,101.9,101.2,101.9z"/>
</g>
<g>
	<path class="st0" d="M106.5,86.9H83.4c-0.6,0-1,0.4-1,1v5c0,0.6,0.4,1,1,1h23.1c0.6,0,1-0.4,1-1v-5
		C107.5,87.3,107.1,86.9,106.5,86.9z"/>
</g>
<g>
	<path class="st4" d="M106.1,94.9H83.8c-1.3,0-2.4-1.1-2.4-2.4v-4.2c0-1.3,1.1-2.4,2.4-2.4h22.3c1.3,0,2.4,1.1,2.4,2.4v4.2
		C108.5,93.8,107.5,94.9,106.1,94.9z M83.8,87.9c-0.2,0-0.3,0.2-0.3,0.3v4.2c0,0.2,0.2,0.3,0.3,0.3h22.3c0.2,0,0.3-0.2,0.3-0.3v-4.2
		c0-0.2-0.2-0.3-0.3-0.3H83.8z"/>
</g>
<g>
	<path class="st4" d="M88.7,94.9c-0.6,0-1-0.5-1-1v-7c0-0.6,0.5-1,1-1c0.6,0,1,0.5,1,1v7C89.7,94.4,89.2,94.9,88.7,94.9z"/>
</g>
<g>
	<path class="st4" d="M98.4,94.9c-0.6,0-1-0.5-1-1v-7c0-0.6,0.5-1,1-1c0.6,0,1,0.5,1,1v7C99.5,94.4,99,94.9,98.4,94.9z"/>
</g>
<g>
	<path class="st0" d="M105.1,79.9H82c-0.6,0-1,0.4-1,1v5c0,0.6,0.4,1,1,1h23.1c0.6,0,1-0.4,1-1v-5C106.1,80.3,105.7,79.9,105.1,79.9
		z"/>
</g>
<g>
	<path class="st4" d="M104.7,87.9H82.4c-1.3,0-2.4-1.1-2.4-2.4v-4.2c0-1.3,1.1-2.4,2.4-2.4h22.3c1.3,0,2.4,1.1,2.4,2.4v4.2
		C107.2,86.8,106.1,87.9,104.7,87.9z M82.4,80.9c-0.2,0-0.3,0.2-0.3,0.3v4.2c0,0.2,0.2,0.3,0.3,0.3h22.3c0.2,0,0.3-0.2,0.3-0.3v-4.2
		c0-0.2-0.2-0.3-0.3-0.3H82.4z"/>
</g>
<g>
	<path class="st4" d="M90.1,87.9c-0.6,0-1-0.5-1-1v-7c0-0.6,0.5-1,1-1c0.6,0,1,0.5,1,1v7C91.1,87.4,90.6,87.9,90.1,87.9z"/>
</g>
<g>
	<path class="st4" d="M99.8,87.9c-0.6,0-1-0.5-1-1v-7c0-0.6,0.5-1,1-1c0.6,0,1,0.5,1,1v7C100.9,87.4,100.4,87.9,99.8,87.9z"/>
</g>
<g>
	<path class="st0" d="M107.9,72.9H84.8c-0.6,0-1,0.4-1,1v5c0,0.6,0.4,1,1,1h23.1c0.6,0,1-0.4,1-1v-5
		C108.9,73.4,108.4,72.9,107.9,72.9z"/>
</g>
<g>
	<path class="st4" d="M107.5,80.9H85.2c-1.3,0-2.4-1.1-2.4-2.4v-4.2c0-1.3,1.1-2.4,2.4-2.4h22.3c1.3,0,2.4,1.1,2.4,2.4v4.2
		C109.9,79.8,108.8,80.9,107.5,80.9z M85.2,74c-0.2,0-0.3,0.2-0.3,0.3v4.2c0,0.2,0.2,0.3,0.3,0.3h22.3c0.2,0,0.3-0.2,0.3-0.3v-4.2
		c0-0.2-0.2-0.3-0.3-0.3H85.2z"/>
</g>
<g>
	<path class="st4" d="M91.5,80.9c-0.6,0-1-0.5-1-1v-7c0-0.6,0.5-1,1-1c0.6,0,1,0.5,1,1v7C92.5,80.5,92,80.9,91.5,80.9z"/>
</g>
<g>
	<path class="st4" d="M101.2,80.9c-0.6,0-1-0.5-1-1v-7c0-0.6,0.5-1,1-1c0.6,0,1,0.5,1,1v7C102.3,80.5,101.8,80.9,101.2,80.9z"/>
</g>
<g>
	<path class="st0" d="M106.5,65.9H83.4c-0.6,0-1,0.4-1,1v5c0,0.6,0.4,1,1,1h23.1c0.6,0,1-0.4,1-1v-5
		C107.5,66.4,107.1,65.9,106.5,65.9z"/>
</g>
<g>
	<path class="st4" d="M106.1,74H83.8c-1.3,0-2.4-1.1-2.4-2.4v-4.2c0-1.3,1.1-2.4,2.4-2.4h22.3c1.3,0,2.4,1.1,2.4,2.4v4.2
		C108.5,72.9,107.5,74,106.1,74z M83.8,67c-0.2,0-0.3,0.2-0.3,0.3v4.2c0,0.2,0.2,0.3,0.3,0.3h22.3c0.2,0,0.3-0.2,0.3-0.3v-4.2
		c0-0.2-0.2-0.3-0.3-0.3H83.8z"/>
</g>
<g>
	<path class="st4" d="M90.1,74c-0.6,0-1-0.5-1-1v-7c0-0.6,0.5-1,1-1c0.6,0,1,0.5,1,1v7C91.1,73.5,90.6,74,90.1,74z"/>
</g>
<g>
	<path class="st4" d="M99.8,74c-0.6,0-1-0.5-1-1v-7c0-0.6,0.5-1,1-1c0.6,0,1,0.5,1,1v7C100.9,73.5,100.4,74,99.8,74z"/>
</g>
<g>
	<path class="st0" d="M105.1,59H82c-0.6,0-1,0.4-1,1v5c0,0.6,0.4,1,1,1h23.1c0.6,0,1-0.4,1-1v-5C106.1,59.4,105.7,59,105.1,59z"/>
</g>
<g>
	<path class="st4" d="M104.7,67H82.4C81,67,80,65.9,80,64.5v-4.2c0-1.3,1.1-2.4,2.4-2.4h22.3c1.3,0,2.4,1.1,2.4,2.4v4.2
		C107.2,65.9,106.1,67,104.7,67z M82.4,60c-0.2,0-0.3,0.2-0.3,0.3v4.2c0,0.2,0.2,0.3,0.3,0.3h22.3c0.2,0,0.3-0.2,0.3-0.3v-4.2
		c0-0.2-0.2-0.3-0.3-0.3H82.4z"/>
</g>
<g>
	<path class="st4" d="M87.3,67c-0.6,0-1-0.5-1-1v-7c0-0.6,0.5-1,1-1c0.6,0,1,0.5,1,1v7C88.3,66.5,87.9,67,87.3,67z"/>
</g>
<g>
	<path class="st4" d="M97,67c-0.6,0-1-0.5-1-1v-7c0-0.6,0.5-1,1-1c0.6,0,1,0.5,1,1v7C98.1,66.5,97.6,67,97,67z"/>
</g>
<g>
	<path class="st0" d="M105.1,59H82c-0.6,0-1,0.4-1,1v5c0,0.6,0.4,1,1,1h23.1c0.6,0,1-0.4,1-1v-5C106.1,59.4,105.7,59,105.1,59z"/>
</g>
<g>
	<path class="st4" d="M104.7,67H82.4C81,67,80,65.9,80,64.5v-4.2c0-1.3,1.1-2.4,2.4-2.4h22.3c1.3,0,2.4,1.1,2.4,2.4v4.2
		C107.2,65.9,106.1,67,104.7,67z M82.4,60c-0.2,0-0.3,0.2-0.3,0.3v4.2c0,0.2,0.2,0.3,0.3,0.3h22.3c0.2,0,0.3-0.2,0.3-0.3v-4.2
		c0-0.2-0.2-0.3-0.3-0.3H82.4z"/>
</g>
<g>
	<path class="st4" d="M87.3,67c-0.6,0-1-0.5-1-1v-7c0-0.6,0.5-1,1-1c0.6,0,1,0.5,1,1v7C88.3,66.5,87.9,67,87.3,67z"/>
</g>
<g>
	<path class="st4" d="M97,67c-0.6,0-1-0.5-1-1v-7c0-0.6,0.5-1,1-1c0.6,0,1,0.5,1,1v7C98.1,66.5,97.6,67,97,67z"/>
</g>
<g>
	<path class="st0" d="M61.9,100.8H38.8c-0.6,0-1,0.4-1,1v5c0,0.6,0.4,1,1,1h23.1c0.6,0,1-0.4,1-1v-5
		C62.9,101.3,62.4,100.8,61.9,100.8z"/>
</g>
<g>
	<path class="st4" d="M61.5,108.8H39.2c-1.3,0-2.4-1.1-2.4-2.4v-4.2c0-1.3,1.1-2.4,2.4-2.4h22.3c1.3,0,2.4,1.1,2.4,2.4v4.2
		C63.9,107.7,62.8,108.8,61.5,108.8z M39.2,101.9c-0.2,0-0.3,0.2-0.3,0.3v4.2c0,0.2,0.2,0.3,0.3,0.3h22.3c0.2,0,0.3-0.2,0.3-0.3
		v-4.2c0-0.2-0.2-0.3-0.3-0.3H39.2z"/>
</g>
<g>
	<path class="st4" d="M45.4,108.8c-0.6,0-1-0.5-1-1v-7c0-0.6,0.5-1,1-1c0.6,0,1,0.5,1,1v7C46.5,108.4,46,108.8,45.4,108.8z"/>
</g>
<g>
	<path class="st4" d="M55.2,108.8c-0.6,0-1-0.5-1-1v-7c0-0.6,0.5-1,1-1c0.6,0,1,0.5,1,1v7C56.2,108.4,55.8,108.8,55.2,108.8z"/>
</g>
<g>
	<path class="st0" d="M60.5,93.8H37.4c-0.6,0-1,0.4-1,1v5c0,0.6,0.4,1,1,1h23.1c0.6,0,1-0.4,1-1v-5C61.5,94.3,61,93.8,60.5,93.8z"/>
</g>
<g>
	<path class="st4" d="M60.1,101.9H37.8c-1.3,0-2.4-1.1-2.4-2.4v-4.2c0-1.3,1.1-2.4,2.4-2.4h22.3c1.3,0,2.4,1.1,2.4,2.4v4.2
		C62.5,100.8,61.4,101.9,60.1,101.9z M37.8,94.9c-0.2,0-0.3,0.2-0.3,0.3v4.2c0,0.2,0.2,0.3,0.3,0.3h22.3c0.2,0,0.3-0.2,0.3-0.3v-4.2
		c0-0.2-0.2-0.3-0.3-0.3H37.8z"/>
</g>
<g>
	<path class="st4" d="M44,101.9c-0.6,0-1-0.5-1-1v-7c0-0.6,0.5-1,1-1c0.6,0,1,0.5,1,1v7C45.1,101.4,44.6,101.9,44,101.9z"/>
</g>
<g>
	<path class="st4" d="M53.8,101.9c-0.6,0-1-0.5-1-1v-7c0-0.6,0.5-1,1-1c0.6,0,1,0.5,1,1v7C54.8,101.4,54.4,101.9,53.8,101.9z"/>
</g>
<g>
	<path class="st0" d="M63.3,86.9H40.2c-0.6,0-1,0.4-1,1v5c0,0.6,0.4,1,1,1h23.1c0.6,0,1-0.4,1-1v-5C64.3,87.3,63.8,86.9,63.3,86.9z"
		/>
</g>
<g>
	<path class="st4" d="M62.9,94.9H40.5c-1.3,0-2.4-1.1-2.4-2.4v-4.2c0-1.3,1.1-2.4,2.4-2.4h22.3c1.3,0,2.4,1.1,2.4,2.4v4.2
		C65.3,93.8,64.2,94.9,62.9,94.9z M40.5,87.9c-0.2,0-0.3,0.2-0.3,0.3v4.2c0,0.2,0.2,0.3,0.3,0.3h22.3c0.2,0,0.3-0.2,0.3-0.3v-4.2
		c0-0.2-0.2-0.3-0.3-0.3H40.5z"/>
</g>
<g>
	<path class="st4" d="M46.8,94.9c-0.6,0-1-0.5-1-1v-7c0-0.6,0.5-1,1-1c0.6,0,1,0.5,1,1v7C47.9,94.4,47.4,94.9,46.8,94.9z"/>
</g>
<g>
	<path class="st4" d="M56.6,94.9c-0.6,0-1-0.5-1-1v-7c0-0.6,0.5-1,1-1c0.6,0,1,0.5,1,1v7C57.6,94.4,57.2,94.9,56.6,94.9z"/>
</g>
<g>
	<path class="st0" d="M60.5,79.9H37.4c-0.6,0-1,0.4-1,1v5c0,0.6,0.4,1,1,1h23.1c0.6,0,1-0.4,1-1v-5C61.5,80.3,61,79.9,60.5,79.9z"/>
</g>
<g>
	<path class="st4" d="M60.1,87.9H37.8c-1.3,0-2.4-1.1-2.4-2.4v-4.2c0-1.3,1.1-2.4,2.4-2.4h22.3c1.3,0,2.4,1.1,2.4,2.4v4.2
		C62.5,86.8,61.4,87.9,60.1,87.9z M37.8,80.9c-0.2,0-0.3,0.2-0.3,0.3v4.2c0,0.2,0.2,0.3,0.3,0.3h22.3c0.2,0,0.3-0.2,0.3-0.3v-4.2
		c0-0.2-0.2-0.3-0.3-0.3H37.8z"/>
</g>
<g>
	<path class="st4" d="M45.4,87.9c-0.6,0-1-0.5-1-1v-7c0-0.6,0.5-1,1-1c0.6,0,1,0.5,1,1v7C46.5,87.4,46,87.9,45.4,87.9z"/>
</g>
<g>
	<path class="st4" d="M55.2,87.9c-0.6,0-1-0.5-1-1v-7c0-0.6,0.5-1,1-1c0.6,0,1,0.5,1,1v7C56.2,87.4,55.8,87.9,55.2,87.9z"/>
</g>
<g>
	<path class="st0" d="M63.3,72.9H40.2c-0.6,0-1,0.4-1,1v5c0,0.6,0.4,1,1,1h23.1c0.6,0,1-0.4,1-1v-5C64.3,73.4,63.8,72.9,63.3,72.9z"
		/>
</g>
<g>
	<path class="st4" d="M62.9,80.9H40.5c-1.3,0-2.4-1.1-2.4-2.4v-4.2c0-1.3,1.1-2.4,2.4-2.4h22.3c1.3,0,2.4,1.1,2.4,2.4v4.2
		C65.3,79.8,64.2,80.9,62.9,80.9z M40.5,74c-0.2,0-0.3,0.2-0.3,0.3v4.2c0,0.2,0.2,0.3,0.3,0.3h22.3c0.2,0,0.3-0.2,0.3-0.3v-4.2
		c0-0.2-0.2-0.3-0.3-0.3H40.5z"/>
</g>
<g>
	<path class="st4" d="M46.8,80.9c-0.6,0-1-0.5-1-1v-7c0-0.6,0.5-1,1-1c0.6,0,1,0.5,1,1v7C47.9,80.5,47.4,80.9,46.8,80.9z"/>
</g>
<g>
	<path class="st4" d="M56.6,80.9c-0.6,0-1-0.5-1-1v-7c0-0.6,0.5-1,1-1c0.6,0,1,0.5,1,1v7C57.6,80.5,57.2,80.9,56.6,80.9z"/>
</g>
<g>
	<path class="st0" d="M61.9,65.9H38.8c-0.6,0-1,0.4-1,1v5c0,0.6,0.4,1,1,1h23.1c0.6,0,1-0.4,1-1v-5C62.9,66.4,62.4,65.9,61.9,65.9z"
		/>
</g>
<g>
	<path class="st4" d="M61.5,74H39.2c-1.3,0-2.4-1.1-2.4-2.4v-4.2c0-1.3,1.1-2.4,2.4-2.4h22.3c1.3,0,2.4,1.1,2.4,2.4v4.2
		C63.9,72.9,62.8,74,61.5,74z M39.2,67c-0.2,0-0.3,0.2-0.3,0.3v4.2c0,0.2,0.2,0.3,0.3,0.3h22.3c0.2,0,0.3-0.2,0.3-0.3v-4.2
		c0-0.2-0.2-0.3-0.3-0.3H39.2z"/>
</g>
<g>
	<path class="st4" d="M45.4,74c-0.6,0-1-0.5-1-1v-7c0-0.6,0.5-1,1-1c0.6,0,1,0.5,1,1v7C46.5,73.5,46,74,45.4,74z"/>
</g>
<g>
	<path class="st4" d="M55.2,74c-0.6,0-1-0.5-1-1v-7c0-0.6,0.5-1,1-1c0.6,0,1,0.5,1,1v7C56.2,73.5,55.8,74,55.2,74z"/>
</g>
<g>
	<path class="st0" d="M102.3,52H79.2c-0.6,0-1,0.4-1,1v5c0,0.6,0.4,1,1,1h23.1c0.6,0,1-0.4,1-1v-5C103.3,52.4,102.9,52,102.3,52z"/>
</g>
<g>
	<path class="st4" d="M101.9,60H79.6c-1.3,0-2.4-1.1-2.4-2.4v-4.2c0-1.3,1.1-2.4,2.4-2.4h22.3c1.3,0,2.4,1.1,2.4,2.4v4.2
		C104.4,58.9,103.3,60,101.9,60z M79.6,53c-0.2,0-0.3,0.2-0.3,0.3v4.2c0,0.2,0.2,0.3,0.3,0.3h22.3c0.2,0,0.3-0.2,0.3-0.3v-4.2
		c0-0.2-0.2-0.3-0.3-0.3H79.6z"/>
</g>
<g>
	<path class="st4" d="M85.9,60c-0.6,0-1-0.5-1-1v-7c0-0.6,0.5-1,1-1c0.6,0,1,0.5,1,1v7C86.9,59.5,86.5,60,85.9,60z"/>
</g>
<g>
	<path class="st4" d="M95.6,60c-0.6,0-1-0.5-1-1v-7c0-0.6,0.5-1,1-1c0.6,0,1,0.5,1,1v7C96.7,59.5,96.2,60,95.6,60z"/>
</g>
<g>
	<path class="st0" d="M103.7,45H80.6c-0.6,0-1,0.4-1,1v5c0,0.6,0.4,1,1,1h23.1c0.6,0,1-0.4,1-1v-5C104.7,45.5,104.3,45,103.7,45z"/>
</g>
<g>
	<path class="st4" d="M103.3,53H81c-1.3,0-2.4-1.1-2.4-2.4v-4.2c0-1.3,1.1-2.4,2.4-2.4h22.3c1.3,0,2.4,1.1,2.4,2.4v4.2
		C105.8,51.9,104.7,53,103.3,53z M81,46.1c-0.2,0-0.3,0.2-0.3,0.3v4.2c0,0.2,0.2,0.3,0.3,0.3h22.3c0.2,0,0.3-0.2,0.3-0.3v-4.2
		c0-0.2-0.2-0.3-0.3-0.3H81z"/>
</g>
<g>
	<path class="st4" d="M87.3,53c-0.6,0-1-0.5-1-1v-7c0-0.6,0.5-1,1-1c0.6,0,1,0.5,1,1v7C88.3,52.6,87.9,53,87.3,53z"/>
</g>
<g>
	<path class="st4" d="M97,53c-0.6,0-1-0.5-1-1v-7c0-0.6,0.5-1,1-1c0.6,0,1,0.5,1,1v7C98.1,52.6,97.6,53,97,53z"/>
</g>
<g>
	<path class="st0" d="M21.6,39.1h-1.9c-0.6,0-1-0.5-1-1c0-0.6,0.5-1,1-1h1.9c0.6,0,1,0.5,1,1C22.6,38.6,22.1,39.1,21.6,39.1z"/>
</g>
<g>
	<path class="st0" d="M28,39.1h-1.9c-0.6,0-1-0.5-1-1c0-0.6,0.5-1,1-1H28c0.6,0,1,0.5,1,1C29,38.6,28.6,39.1,28,39.1z"/>
</g>
<g>
	<path class="st0" d="M23.8,43.3c-0.6,0-1-0.5-1-1v-1.9c0-0.6,0.5-1,1-1c0.6,0,1,0.5,1,1v1.9C24.9,42.8,24.4,43.3,23.8,43.3z"/>
</g>
<g>
	<path class="st0" d="M23.8,36.8c-0.6,0-1-0.5-1-1v-1.9c0-0.6,0.5-1,1-1c0.6,0,1,0.5,1,1v1.9C24.9,36.4,24.4,36.8,23.8,36.8z"/>
</g>
<g>
	<path class="st0" d="M52.2,33.5h-1.9c-0.6,0-1-0.5-1-1c0-0.6,0.5-1,1-1h1.9c0.6,0,1,0.5,1,1C53.3,33,52.8,33.5,52.2,33.5z"/>
</g>
<g>
	<path class="st0" d="M58.7,33.5h-1.9c-0.6,0-1-0.5-1-1c0-0.6,0.5-1,1-1h1.9c0.6,0,1,0.5,1,1C59.7,33,59.3,33.5,58.7,33.5z"/>
</g>
<g>
	<path class="st0" d="M54.5,37.7c-0.6,0-1-0.5-1-1v-1.9c0-0.6,0.5-1,1-1c0.6,0,1,0.5,1,1v1.9C55.5,37.2,55.1,37.7,54.5,37.7z"/>
</g>
<g>
	<path class="st0" d="M54.5,31.3c-0.6,0-1-0.5-1-1v-1.9c0-0.6,0.5-1,1-1c0.6,0,1,0.5,1,1v1.9C55.5,30.8,55.1,31.3,54.5,31.3z"/>
</g>
<g>
	<path class="st0" d="M99.7,26.5h-1.9c-0.6,0-1-0.5-1-1c0-0.6,0.5-1,1-1h1.9c0.6,0,1,0.5,1,1C100.7,26.1,100.3,26.5,99.7,26.5z"/>
</g>
<g>
	<path class="st0" d="M106.1,26.5h-1.9c-0.6,0-1-0.5-1-1c0-0.6,0.5-1,1-1h1.9c0.6,0,1,0.5,1,1C107.2,26.1,106.7,26.5,106.1,26.5z"/>
</g>
<g>
	<path class="st0" d="M101.9,30.7c-0.6,0-1-0.5-1-1v-1.9c0-0.6,0.5-1,1-1c0.6,0,1,0.5,1,1v1.9C103,30.3,102.5,30.7,101.9,30.7z"/>
</g>
<g>
	<path class="st0" d="M101.9,24.3c-0.6,0-1-0.5-1-1v-1.9c0-0.6,0.5-1,1-1c0.6,0,1,0.5,1,1v1.9C103,23.8,102.5,24.3,101.9,24.3z"/>
</g>
<g>
	<path class="st0" d="M41.1,23.7h-1.9c-0.6,0-1-0.5-1-1c0-0.6,0.5-1,1-1h1.9c0.6,0,1,0.5,1,1C42.1,23.3,41.7,23.7,41.1,23.7z"/>
</g>
<g>
	<path class="st0" d="M47.5,23.7h-1.9c-0.6,0-1-0.5-1-1c0-0.6,0.5-1,1-1h1.9c0.6,0,1,0.5,1,1C48.6,23.3,48.1,23.7,47.5,23.7z"/>
</g>
<g>
	<path class="st0" d="M43.3,27.9c-0.6,0-1-0.5-1-1V25c0-0.6,0.5-1,1-1c0.6,0,1,0.5,1,1v1.9C44.4,27.5,43.9,27.9,43.3,27.9z"/>
</g>
<g>
	<path class="st0" d="M43.3,21.5c-0.6,0-1-0.5-1-1v-1.9c0-0.6,0.5-1,1-1c0.6,0,1,0.5,1,1v1.9C44.4,21,43.9,21.5,43.3,21.5z"/>
</g>
</svg>
