<?xml version="1.0" encoding="utf-8"?>
<!-- Generator: Adobe Illustrator 24.0.3, SVG Export Plug-In . SVG Version: 6.00 Build 0)  -->
<svg version="1.1" id="layer_1" xmlns="http://www.w3.org/2000/svg" xmlns:xlink="http://www.w3.org/1999/xlink" x="0px" y="0px"
	 viewBox="0 0 128 128" style="enable-background:new 0 0 128 128;" xml:space="preserve">
<style type="text/css">
	.st0{opacity:0.2;fill:#FFFFFF;}
	.st1{opacity:0.2;}
	.st2{fill:#FFFFFF;}
	.st3{opacity:0.2;fill:#0090D5;}
	.st4{fill:#21365F;}
	.st5{fill:#0090D5;}
</style>
<g>
	<g>
		<circle class="st0" cx="61.1" cy="96.7" r="19.8"/>
	</g>
	<g>
		<circle class="st0" cx="97.2" cy="36.8" r="17"/>
	</g>
	<g class="st1">
		<circle class="st2" cx="42.1" cy="39.8" r="28.3"/>
	</g>
	<g>
		<circle class="st2" cx="65.6" cy="44.8" r="28.3"/>
	</g>
	<g>
		<path class="st3" d="M93.9,44.8c0-9.6-4.8-18.1-12.2-23.2c-13,2.6-22.8,14-22.8,27.7c0,9.6,4.8,18.1,12.2,23.2
			C84.1,70,93.9,58.5,93.9,44.8z"/>
	</g>
	<g>
		<path class="st4" d="M65.6,74.1c-16.2,0-29.3-13.1-29.3-29.3s13.1-29.3,29.3-29.3s29.3,13.1,29.3,29.3S81.8,74.1,65.6,74.1z
			 M65.6,17.6c-15,0-27.2,12.2-27.2,27.2c0,15,12.2,27.2,27.2,27.2c15,0,27.2-12.2,27.2-27.2C92.8,29.8,80.6,17.6,65.6,17.6z"/>
	</g>
	<g>
		<path class="st2" d="M89.7,30c-0.9-0.2-1.9,0.4-2.3,1.5c-1,2.7-3.8,1.4-4.8-1.8c-0.7-2.4-5.5-5.9-8.7,1c-1.1,2.5-3.8,5.3-0.1,6.2
			c5.4,1.4,1.7,6.3-1.4,4.5c-3.1-1.7-4.6-3.2-7.7-1.5c-3.1,1.7-3.3,6.2,0,6.6c2.6,0.3,3.4,4.4,1.9,5.1c-2.5,1.2-4,5.2-2,8.3
			c2,3.1,4.2,1.5,5.1,0c0.9-1.5,1.1-2.5,2.7-4.4c1.2-1.4,4.5-1.6,4.5-1.6s2.8-0.5,1.7-5.8c-1.1-5.2,5.3-3.4,6.1,0.2
			c0.7,3-2.8,7.1,2.3,7.1c2.3,0,3,1.3,3.7,2.1c2-3.8,3.1-8.2,3.1-12.8C93.9,39.4,92.3,34.3,89.7,30z"/>
	</g>
	<g>
		<path class="st2" d="M51.6,63.5c5.3,2.2,8-11.3,2.3-9.9c-6.4,1.6-1.4-6.3-7.1-5.5c-5.7,0.8-5-4.4,0.2-5.3c1.5-0.3,5.7-0.9,6.2-5.3
			c0.6-4.6-1.3-8.7-1.3-8.7s13.2,3.5,12.6-2c-0.6-5-3.9-2-5.5-3.1c-2.4-1.6,0-4-2.8-5.6c-11,3.9-18.8,14.3-18.8,26.6
			c0,8.1,3.4,15.4,8.8,20.5C47.5,63.9,49.5,62.6,51.6,63.5z"/>
	</g>
	<g class="st1">
		<path class="st5" d="M53.3,37.6c0.4-3.4-0.4-6.5-1-7.9c-3.1,3.8-5.2,8.3-6.1,13.3c0.3-0.1,0.5-0.1,0.8-0.2
			C48.6,42.6,52.7,41.9,53.3,37.6z"/>
	</g>
	<g>
		<path class="st3" d="M53.9,53.6c-6.4,1.6-1.4-6.3-7.1-5.5c-0.3,0-0.6,0.1-0.9,0.1c0.1,5.5,1.8,10.7,4.7,15c0.3,0,0.7,0.1,1.1,0.2
			C57,65.6,59.6,52.1,53.9,53.6z"/>
	</g>
	<g>
		<path class="st3" d="M59.1,23.8C59,23.8,59,23.8,59.1,23.8c-2.4,1.4-4.4,3.2-6.2,5.3c2.9,0.7,12.2,2.5,11.7-2.2
			C64,21.9,60.7,24.9,59.1,23.8z"/>
	</g>
	<g>
		<path class="st3" d="M89.7,30c-0.9-0.2-1.9,0.4-2.3,1.5c-1,2.7-3.8,1.4-4.8-1.8c0-0.2-0.1-0.3-0.2-0.5c0,0,0,0,0,0
			c-1.1,2.5-3.8,5.3-0.1,6.2c5.4,1.4,1.7,6.3-1.4,4.5c-2.1-1.2-3.5-2.2-5.2-2.2c2.3,1.9-0.7,5.1-3.3,3.6c-0.4-0.2-0.9-0.5-1.2-0.7
			c-0.9,1.9-0.3,4.1,2,4.4c2.6,0.3,3.4,4.4,1.9,5.1c-1.8,0.8-3.1,3.2-2.9,5.6c0.1-0.1,0.2-0.2,0.3-0.3c1.2-1.4,4.5-1.6,4.5-1.6
			s2.8-0.5,1.7-5.8c-1.1-5.2,5.3-3.4,6.1,0.2c0.3,1.4-0.2,3-0.4,4.3c0.6-0.1,1-0.1,1-0.1s2.8-0.5,1.7-5.8c-1.1-5.2,5.3-3.4,6.1,0.2
			c0.5,1.8-0.7,4.1-0.5,5.5c0.7-2.4,1.1-5,1.1-7.7C93.9,39.4,92.3,34.3,89.7,30z"/>
	</g>
	<g>
		<path class="st4" d="M46.2,66.4c-0.3,0-0.5-0.1-0.7-0.3c-5.9-5.6-9.2-13.2-9.2-21.3c0-12.4,7.9-23.5,19.6-27.6
			c0.3-0.1,0.6-0.1,0.9,0.1c2,1.2,2,2.7,2.1,3.8c0.1,0.9,0.1,1.4,0.8,1.8c0.2,0.1,0.8,0.1,1.3,0c1-0.1,2.2-0.3,3.2,0.5
			c0.8,0.6,1.3,1.7,1.5,3.3c0.2,1.5-0.5,2.5-1.1,3c-2.3,2-7.9,1.2-10.9,0.6c0.5,1.7,1.1,4.4,0.7,7.4c-0.7,5.1-5.5,5.9-7,6.2
			c-2.5,0.4-3.5,1.8-3.4,2.5c0.1,0.5,1,0.9,2.8,0.7c3.8-0.5,4.2,2.3,4.5,3.8c0.1,0.7,0.2,1.5,0.6,1.8c0.2,0.1,0.7,0.3,1.9,0
			c1.6-0.4,3,0.1,3.8,1.4c1.4,2.2,0.7,6.6-1.3,9.1c-1.4,1.6-3.1,2.1-4.9,1.4c0,0,0,0,0,0c-1.3-0.5-2.7,0-4.2,1.6
			C46.8,66.3,46.5,66.4,46.2,66.4C46.2,66.4,46.2,66.4,46.2,66.4z M56.1,19.4c-10.6,4-17.6,14.1-17.6,25.5c0,7.2,2.8,13.9,7.8,19
			c2.4-2.1,4.4-1.9,5.8-1.4l0,0c0.3,0.1,1.3,0.5,2.5-0.8c1.6-1.9,2-5.3,1.2-6.6c-0.2-0.3-0.6-0.7-1.5-0.4c-1.6,0.4-2.8,0.3-3.6-0.2
			c-1.1-0.7-1.3-2.1-1.5-3.2c-0.3-1.7-0.3-2.2-2.1-2c-3.4,0.5-4.9-1-5.2-2.5c-0.3-1.9,1.5-4.3,5.1-4.9c2.4-0.4,4.9-1.2,5.4-4.3
			c0.6-4.2-1.2-8.1-1.2-8.1c-0.2-0.4-0.1-0.8,0.2-1.1c0.3-0.3,0.7-0.4,1.1-0.3c3.3,0.9,9.2,1.7,10.9,0.3c0.2-0.2,0.4-0.5,0.4-1.1
			c-0.1-1-0.3-1.6-0.7-1.9c-0.3-0.3-1-0.2-1.6-0.1c-0.9,0.1-1.9,0.2-2.7-0.3c-1.6-1-1.6-2.4-1.7-3.5C56.7,20.4,56.7,19.9,56.1,19.4z
			"/>
	</g>
	<g>
		<path class="st4" d="M67,62.9c-0.9,0-2.2-0.4-3.4-2.2c-1.1-1.7-1.4-3.8-0.8-5.8c0.5-1.9,1.8-3.4,3.3-4.1c0.1-0.1,0.3-0.7,0-1.5
			c-0.2-0.7-0.7-1.5-1.6-1.6c-1.7-0.2-2.9-1.3-3.3-2.9c-0.4-2.1,0.8-4.5,2.9-5.6c3.2-1.8,5.1-0.7,7.5,0.8c0.4,0.2,0.8,0.5,1.2,0.7
			c0.9,0.5,1.7,0,1.9-0.1c0.4-0.3,0.7-0.8,0.6-1.2c-0.1-0.5-0.8-1-1.9-1.3c-1.3-0.3-2.1-0.9-2.5-1.8c-0.6-1.4,0.3-3,1.1-4.5
			c0.3-0.5,0.6-1,0.8-1.4c1.9-4.1,4.2-4.8,5.9-4.7c2.3,0.2,4.2,2.1,4.8,3.8c0.5,1.7,1.5,2.5,2,2.5c0.4,0,0.6-0.4,0.8-0.8
			c0.6-1.6,2.1-2.5,3.6-2.2c0.3,0.1,0.5,0.2,0.7,0.5c2.8,4.6,4.3,9.9,4.3,15.3c0,4.7-1.1,9.1-3.2,13.3c-0.2,0.3-0.5,0.5-0.8,0.6
			c-0.4,0-0.7-0.1-0.9-0.4L89.7,58c-0.6-0.8-1.1-1.4-2.6-1.4c0,0,0,0-0.1,0c-1.6,0-2.6-0.4-3.3-1.1c-0.9-1.1-0.6-2.6-0.3-4
			c0.2-1,0.4-2,0.2-2.8c-0.4-1.7-2.6-2.8-3.6-2.6c-0.7,0.2-0.7,1.2-0.5,2c0.5,2.4,0.3,4.3-0.6,5.6c-0.8,1.2-1.9,1.4-2,1.5
			c-1.1,0.1-3.3,0.4-3.9,1.2c-0.9,1.1-1.3,1.9-1.8,2.8c-0.3,0.5-0.5,1-0.9,1.6C69.6,62,68.3,62.9,67,62.9C67.1,62.9,67,62.9,67,62.9
			z M67.2,40.3c-0.6,0-1.2,0.2-2,0.6c-1.5,0.8-2,2.4-1.8,3.4c0.1,0.7,0.6,1.1,1.4,1.2c2,0.2,3.2,2.1,3.5,3.8
			c0.2,1.6-0.3,2.8-1.3,3.3c-0.9,0.4-1.8,1.5-2.1,2.8c-0.2,0.8-0.5,2.4,0.5,4c0.4,0.6,1,1.3,1.6,1.3c0,0,0,0,0,0
			c0.7,0,1.3-0.7,1.7-1.3c0.3-0.5,0.5-0.9,0.8-1.4c0.5-0.9,0.9-1.8,2-3.2c1.3-1.6,4.5-1.9,5.2-2c0.2-0.1,1.6-0.8,0.9-4.5
			c-0.6-2.8,0.7-4.1,2.1-4.5c2.2-0.5,5.4,1.3,6.1,4.1c0.3,1.3,0,2.6-0.2,3.7c-0.2,0.8-0.4,1.9-0.1,2.2c0.1,0.1,0.4,0.4,1.6,0.4
			c1.6,0,2.7,0.6,3.4,1.3c1.5-3.4,2.3-7.1,2.3-10.9c0-4.8-1.3-9.6-3.7-13.7c-0.3,0.1-0.6,0.4-0.8,0.8c-0.5,1.4-1.6,2.2-2.8,2.1
			c-1.7-0.1-3.3-1.7-4-4c-0.3-0.9-1.4-2.2-2.9-2.3c-1.8-0.1-3.1,1.8-3.8,3.4c-0.2,0.5-0.5,1.1-0.9,1.6c-0.5,0.9-1.2,2.1-1,2.6
			c0,0.1,0.2,0.3,1.1,0.6c2.7,0.7,3.3,2.1,3.5,3c0.2,1.2-0.3,2.5-1.5,3.3c-1.3,0.9-2.9,1-4.2,0.3c-0.5-0.3-0.9-0.5-1.3-0.7
			C69.2,40.8,68.2,40.3,67.2,40.3z"/>
	</g>
	<g>
		<path class="st2" d="M104.2,44.1L104.2,44.1c1.5,1,2.4,2.7,2.3,4.5l-1.1,20.2l-9.3-1.4l0.7-6.7c1.6-7.6,0.9-13,2-15.6
			C99.9,42.8,102.4,42.7,104.2,44.1z"/>
	</g>
	<g>
		<path class="st3" d="M106.5,48.6c0-0.8-0.1-1.5-0.4-2.2c-1.6-0.7-3.5-0.4-4.4,1.6c-1.1,2.6-0.4,7.9-2,15.6l-0.5,4.3l6.2,0.9
			L106.5,48.6z"/>
	</g>
	<g>
		<path class="st4" d="M105.4,69.9c-0.1,0-0.1,0-0.2,0l-9.3-1.4c-0.6-0.1-1-0.6-0.9-1.2l0.7-6.7c0.9-4,1-7.3,1.2-10
			c0.1-2.5,0.3-4.5,0.9-5.9c0.6-1.3,1.5-2.2,2.8-2.5c1.3-0.4,2.9,0,4.1,1c1.8,1.2,2.9,3.3,2.8,5.5l-1.1,20.2c0,0.3-0.2,0.6-0.4,0.8
			C105.9,69.8,105.6,69.9,105.4,69.9z M97.3,66.6l7.1,1.1l1-19c0.1-1.4-0.6-2.8-1.8-3.6c0,0,0,0-0.1,0c-0.7-0.6-1.6-0.8-2.4-0.6
			c-0.6,0.2-1.1,0.6-1.4,1.3c-0.5,1.1-0.6,2.9-0.7,5.2c-0.2,2.7-0.4,6.1-1.2,10.2L97.3,66.6z"/>
	</g>
	<g>
		<path class="st2" d="M105.3,41.3c-2.5,1.2,0.1,8.8-3.5,23.9c0.1-2.1-0.6-3.3-1.6-3.8c-4.5-2.4-6,1.7-6,1.7
			c-8.9,20.6-6.8,2.9-19.4,30.7l18,8c0,0,24.2-26.1,16.6-57.4C109.4,44.5,108.5,39.7,105.3,41.3z"/>
	</g>
	<g>
		<path class="st3" d="M110.1,48.2c-0.5-0.2-1.2-0.2-2,0.2c-2.5,1.2,0.1,8.8-3.5,23.9c0.1-2.1-0.6-3.3-1.6-3.8c-4.5-2.4-6,1.7-6,1.7
			c-8.3,19.3-7.1,5-17.2,25.9l12.9,5.8C92.8,101.9,115,77.8,110.1,48.2z"/>
	</g>
	<g>
		<path class="st4" d="M92.8,102.9c-0.1,0-0.3,0-0.4-0.1l-18-8c-0.3-0.1-0.5-0.3-0.6-0.6c-0.1-0.3-0.1-0.6,0-0.8
			c6.8-15.2,9.5-17.1,11.9-18.8c1.9-1.4,3.5-2.5,7.5-11.9c0,0,0.8-2.1,2.8-2.8c1.4-0.5,3-0.3,4.7,0.6c0.3,0.2,0.6,0.4,0.9,0.6
			c1.1-6,1.3-10.6,1.4-13.8c0.1-3.9,0.2-6.1,1.9-6.9c0,0,0,0,0,0c1.4-0.7,2.4-0.4,3.1-0.1c1.9,1,2.4,3.8,2.5,4.1
			c7.6,31.4-16.6,58-16.9,58.3C93.3,102.8,93,102.9,92.8,102.9z M76.2,93.3l16.3,7.3c3.4-3.9,22.6-28,15.9-55.8
			c-0.1-0.7-0.6-2.2-1.4-2.6c-0.1-0.1-0.5-0.2-1.2,0.1l0,0c-0.6,0.3-0.7,2.6-0.7,5.1c-0.1,4-0.3,9.9-2.2,18.1
			c-0.1,0.5-0.6,0.9-1.2,0.8c-0.5-0.1-0.9-0.6-0.9-1.1c0.1-2.2-0.8-2.6-1-2.8c-1.2-0.6-2.1-0.8-2.9-0.5c-1.1,0.4-1.6,1.6-1.6,1.6
			c-4.3,9.9-6.1,11.2-8.2,12.8C84.8,77.8,82.4,79.6,76.2,93.3z"/>
	</g>
	<g>
		<path class="st4" d="M95.1,81.7c-0.2,0-0.4,0-0.6-0.2c-0.5-0.3-0.7-1-0.4-1.5c5.2-8.5,6.4-12.9,6.5-15.1c0-0.6,0.6-1,1.1-1
			c0.6,0,1,0.5,1,1.1c-0.2,3.6-2.5,9-6.8,16.1C95.8,81.5,95.5,81.7,95.1,81.7z"/>
	</g>
	<g>
		<path class="st2" d="M27.1,43.9L27.1,43.9c-1.5,1-2.4,2.7-2.3,4.5l1.1,20.2l9.3-1.4l-0.7-6.7c-1.6-7.6-0.9-13-2-15.6
			C31.4,42.6,28.9,42.6,27.1,43.9z"/>
	</g>
	<g>
		<path class="st3" d="M34.4,60.6c-1.5-7.3-1-12.4-1.9-15.1c-1.4,1-2.2,2.7-2.1,4.4l1,18l3.8-0.6L34.4,60.6z"/>
	</g>
	<g>
		<path class="st4" d="M25.9,69.9c-0.2,0-0.5-0.1-0.7-0.2c-0.2-0.2-0.4-0.5-0.4-0.8l-1.1-20.2c-0.1-2.2,0.9-4.3,2.8-5.5
			c1.3-0.9,2.8-1.3,4.1-1c1.2,0.3,2.2,1.2,2.8,2.5c0.6,1.4,0.7,3.4,0.9,5.9c0.2,2.7,0.3,6,1.2,9.9l0.8,6.8c0.1,0.6-0.3,1.1-0.9,1.2
			L26,69.9C26,69.9,25.9,69.9,25.9,69.9z M29.6,44.3c-0.6,0-1.3,0.2-1.8,0.7c0,0,0,0-0.1,0c-1.2,0.8-1.9,2.2-1.8,3.6l1,19l7.1-1.1
			l-0.6-5.7c-0.9-4-1-7.4-1.2-10.1c-0.1-2.3-0.2-4.1-0.7-5.2c-0.3-0.7-0.8-1.1-1.4-1.3C29.9,44.3,29.7,44.3,29.6,44.3z M27.1,44.1
			L27.1,44.1L27.1,44.1z"/>
	</g>
	<g>
		<path class="st2" d="M25.9,41.3c2.5,1.2-0.1,8.8,3.5,23.9c-0.1-2.1,0.6-3.3,1.6-3.8c4.5-2.4,6,1.7,6,1.7
			C46,83.8,43.9,66,56.5,93.8l-18,8c0,0-24.2-26.1-16.6-57.4C21.9,44.5,22.7,39.7,25.9,41.3z"/>
	</g>
	<g>
		<path class="st3" d="M37.1,63.1c0,0-0.9-2.4-3.3-2.5c2.7,18.2,13.4,32.1,16.6,35.9l6.2-2.8C43.9,66,46,83.8,37.1,63.1z"/>
	</g>
	<g>
		<path class="st4" d="M38.5,102.9c-0.3,0-0.6-0.1-0.8-0.3c-0.2-0.3-24.5-26.9-16.9-58.3c0-0.2,0.6-3,2.5-4c0.6-0.3,1.7-0.6,3.1,0.1
			c0,0,0,0,0,0c1.7,0.9,1.8,3,1.9,6.9c0.1,3.2,0.2,7.8,1.4,13.8c0.3-0.3,0.6-0.5,0.9-0.6c1.7-0.9,3.3-1.1,4.7-0.6
			c2,0.8,2.8,2.8,2.9,2.9c4,9.3,5.6,10.5,7.5,11.8c2.4,1.7,5,3.7,11.9,18.8c0.1,0.3,0.1,0.5,0,0.8c-0.1,0.3-0.3,0.5-0.6,0.6l-18,8
			C38.8,102.9,38.6,102.9,38.5,102.9z M24.7,42.1c-0.2,0-0.3,0.1-0.4,0.1c-0.8,0.4-1.3,1.9-1.4,2.5c-6.7,27.9,12.5,51.9,15.9,55.9
			l16.3-7.3c-6.3-13.8-8.6-15.5-10.7-17c-2.1-1.6-4-2.9-8.2-12.8c0,0-0.5-1.3-1.6-1.7c-0.8-0.3-1.8-0.1-2.9,0.5
			c-0.3,0.2-1.2,0.6-1,2.8c0,0.5-0.4,1-0.9,1.1c-0.5,0.1-1.1-0.3-1.2-0.8c-1.9-8.1-2.1-14.1-2.2-18.1c-0.1-2.5-0.1-4.8-0.7-5.1
			C25.1,42.1,24.9,42.1,24.7,42.1z"/>
	</g>
	<g>
		<path class="st4" d="M36.1,81.7c-0.4,0-0.7-0.2-0.9-0.5c-4.4-7.1-6.7-12.6-6.8-16.1c0-0.6,0.4-1.1,1-1.1c0.6,0,1.1,0.4,1.1,1
			c0.1,2.2,1.3,6.6,6.5,15.1c0.3,0.5,0.1,1.2-0.4,1.5C36.5,81.6,36.3,81.7,36.1,81.7z"/>
	</g>
	<g>
		<path class="st2" d="M98.7,28.9h-2c-0.6,0-1.1-0.5-1.1-1.1c0-0.6,0.5-1.1,1.1-1.1h2c0.6,0,1.1,0.5,1.1,1.1
			C99.7,28.4,99.2,28.9,98.7,28.9z"/>
	</g>
	<g>
		<path class="st2" d="M105.2,28.9h-2c-0.6,0-1.1-0.5-1.1-1.1c0-0.6,0.5-1.1,1.1-1.1h2c0.6,0,1.1,0.5,1.1,1.1
			C106.2,28.4,105.8,28.9,105.2,28.9z"/>
	</g>
	<g>
		<path class="st2" d="M100.9,33.2c-0.6,0-1.1-0.5-1.1-1.1v-2c0-0.6,0.5-1.1,1.1-1.1c0.6,0,1.1,0.5,1.1,1.1v2
			C102,32.7,101.5,33.2,100.9,33.2z"/>
	</g>
	<g>
		<path class="st2" d="M100.9,26.6c-0.6,0-1.1-0.5-1.1-1.1v-2c0-0.6,0.5-1.1,1.1-1.1c0.6,0,1.1,0.5,1.1,1.1v2
			C102,26.2,101.5,26.6,100.9,26.6z"/>
	</g>
	<g>
		<path class="st2" d="M35.1,21.9h-2c-0.6,0-1.1-0.5-1.1-1.1c0-0.6,0.5-1.1,1.1-1.1h2c0.6,0,1.1,0.5,1.1,1.1
			C36.2,21.4,35.7,21.9,35.1,21.9z"/>
	</g>
	<g>
		<path class="st2" d="M41.6,21.9h-2c-0.6,0-1.1-0.5-1.1-1.1c0-0.6,0.5-1.1,1.1-1.1h2c0.6,0,1.1,0.5,1.1,1.1
			C42.7,21.4,42.2,21.9,41.6,21.9z"/>
	</g>
	<g>
		<path class="st2" d="M37.4,26.1c-0.6,0-1.1-0.5-1.1-1.1v-2c0-0.6,0.5-1.1,1.1-1.1c0.6,0,1.1,0.5,1.1,1.1v2
			C38.4,25.6,38,26.1,37.4,26.1z"/>
	</g>
	<g>
		<path class="st2" d="M37.4,19.6c-0.6,0-1.1-0.5-1.1-1.1v-2c0-0.6,0.5-1.1,1.1-1.1c0.6,0,1.1,0.5,1.1,1.1v2
			C38.4,19.1,38,19.6,37.4,19.6z"/>
	</g>
	<g>
		<path class="st2" d="M22.4,31.7h-2c-0.6,0-1.1-0.5-1.1-1.1c0-0.6,0.5-1.1,1.1-1.1h2c0.6,0,1.1,0.5,1.1,1.1
			C23.4,31.3,23,31.7,22.4,31.7z"/>
	</g>
	<g>
		<path class="st2" d="M28.9,31.7h-2c-0.6,0-1.1-0.5-1.1-1.1c0-0.6,0.5-1.1,1.1-1.1h2c0.6,0,1.1,0.5,1.1,1.1
			C30,31.3,29.5,31.7,28.9,31.7z"/>
	</g>
	<g>
		<path class="st2" d="M24.7,36c-0.6,0-1.1-0.5-1.1-1.1v-2c0-0.6,0.5-1.1,1.1-1.1c0.6,0,1.1,0.5,1.1,1.1v2
			C25.7,35.5,25.2,36,24.7,36z"/>
	</g>
	<g>
		<path class="st2" d="M24.7,29.5c-0.6,0-1.1-0.5-1.1-1.1v-2c0-0.6,0.5-1.1,1.1-1.1c0.6,0,1.1,0.5,1.1,1.1v2
			C25.7,29,25.2,29.5,24.7,29.5z"/>
	</g>
	<g>
		<polygon class="st2" points="74.3,89.5 71.9,107 97,107 99.3,96.8 		"/>
	</g>
	<g>
		<path class="st3" d="M98.5,100.6l-15.3-4.5c-1.7-0.5-3.4,0.6-3.6,2.3l-1.2,8.5H97L98.5,100.6z"/>
	</g>
	<g>
		<path class="st4" d="M97,108h-25c-0.3,0-0.6-0.1-0.8-0.4c-0.2-0.2-0.3-0.5-0.3-0.8l2.4-17.4c0-0.3,0.2-0.6,0.5-0.7
			c0.3-0.2,0.6-0.2,0.9-0.1l25,7.3c0.5,0.2,0.9,0.7,0.7,1.3L98,107.2C97.9,107.7,97.5,108,97,108z M73.2,105.9h23l1.9-8.4l-22.9-6.7
			L73.2,105.9z"/>
	</g>
	<g>
		<path class="st4" d="M91.6,100.4c0.7,0.2,1.1,1,0.9,1.8c-0.2,0.7-1,1.2-1.8,0.9c-0.7-0.2-1.2-1-0.9-1.8
			C90.1,100.5,90.8,100.1,91.6,100.4z"/>
	</g>
	<g>
		<polygon class="st2" points="56.9,89.5 59.3,107 34.3,107 31.9,96.8 		"/>
	</g>
	<g>
		<path class="st3" d="M57.7,95.2l-17.6,5.1c-1.4,0.4-2.3,1.9-2,3.3l0.8,3.3h20.4L57.7,95.2z"/>
	</g>
	<g>
		<path class="st4" d="M59.3,108h-25c-0.5,0-0.9-0.3-1-0.8L30.9,97c-0.1-0.5,0.2-1.1,0.7-1.3l25-7.3c0.3-0.1,0.6,0,0.9,0.1
			c0.3,0.2,0.4,0.4,0.5,0.7l2.4,17.4c0,0.3-0.1,0.6-0.3,0.8C59.9,107.9,59.6,108,59.3,108z M35.1,105.9h23l-2-15l-22.9,6.7
			L35.1,105.9z"/>
	</g>
	<g>
		<path class="st4" d="M52.4,100.4c-0.7,0.2-1.2,1-0.9,1.8c0.2,0.7,1,1.2,1.8,0.9c0.7-0.2,1.2-1,0.9-1.8
			C53.9,100.5,53.1,100.1,52.4,100.4z"/>
	</g>
</g>
</svg>
