<svg version="1.1" id="Warstwa_1" xmlns="http://www.w3.org/2000/svg" x="0" y="0" viewBox="0 0 128 128" xml:space="preserve"><style>.st0{fill-rule:evenodd;clip-rule:evenodd}</style><path d="M82.8 107.3v6.8H14.7V29.9h8.4v-2.4h-9.6c-.7 0-1.2.5-1.2 1.2v86.6c0 .7.5 1.2 1.2 1.2H84c.7 0 1.2-.5 1.2-1.2v-8h-2.4z"/><path d="M92.5 90.8V106H24.3V21.9h8.4v-2.4h-9.6c-.7 0-1.2.5-1.2 1.2v86.6c0 .7.5 1.2 1.2 1.2h70.5c.7 0 1.2-.5 1.2-1.2V88.4c-.7.8-1.5 1.6-2.3 2.4z"/><path d="M84 100.5H32.7c-.7 0-1.2-.5-1.2-1.2V12.7c0-.7.5-1.2 1.2-1.2h70.5c.7 0 1.2.5 1.2 1.2V80c0 .3-.1.6-.4.9l-19.2 19.2c-.1.2-.4.4-.8.4zm-50.1-2.4h49.6L102 79.6V13.9H33.9v84.2z"/><path d="M84 100.5c-.2 0-.3 0-.5-.1-.4-.2-.7-.6-.7-1.1V80.1c0-.3.1-.6.4-.9.2-.2.5-.4.9-.4h19.2c.5 0 .9.3 1.1.7.2.4.1 1-.3 1.3L84.9 100c-.2.3-.5.5-.9.5zm1.2-19.3v15.1l15.1-15.1H85.2zM84 25.1H53.6c-.7 0-1.2-.5-1.2-1.2s.5-1.2 1.2-1.2H84c.7 0 1.2.5 1.2 1.2s-.5 1.2-1.2 1.2zM47.2 34.7h-4.8c-.7 0-1.2-.5-1.2-1.2s.5-1.2 1.2-1.2h4.8c.7 0 1.2.5 1.2 1.2s-.6 1.2-1.2 1.2zM47.2 44.4h-4.8c-.7 0-1.2-.5-1.2-1.2s.5-1.2 1.2-1.2h4.8c.7 0 1.2.5 1.2 1.2 0 .6-.6 1.2-1.2 1.2zM47.2 54h-4.8c-.7 0-1.2-.5-1.2-1.2s.5-1.2 1.2-1.2h4.8c.7 0 1.2.5 1.2 1.2 0 .6-.6 1.2-1.2 1.2zM47.2 63.6h-4.8c-.7 0-1.2-.5-1.2-1.2s.5-1.2 1.2-1.2h4.8c.7 0 1.2.5 1.2 1.2s-.6 1.2-1.2 1.2zM47.2 73.2h-4.8c-.7 0-1.2-.5-1.2-1.2s.5-1.2 1.2-1.2h4.8c.7 0 1.2.5 1.2 1.2s-.6 1.2-1.2 1.2zM47.2 82.8h-4.8c-.7 0-1.2-.5-1.2-1.2s.5-1.2 1.2-1.2h4.8c.7 0 1.2.5 1.2 1.2s-.6 1.2-1.2 1.2zM114.5 89h-6.4c-.7 0-1.2-.5-1.2-1.2s.5-1.2 1.2-1.2h6.4c.7 0 1.2.5 1.2 1.2s-.5 1.2-1.2 1.2z"/><path d="M111.3 92.3c-.7 0-1.2-.5-1.2-1.2v-6.4c0-.7.5-1.2 1.2-1.2s1.2.5 1.2 1.2v6.4c0 .6-.5 1.2-1.2 1.2z"/><circle cx="111.3" cy="78.2" r="1.2"/><circle cx="111.3" cy="73.4" r="1.2"/><circle cx="111.3" cy="67" r="1.2"/><circle cx="111.3" cy="57.4" r="1.2"/><path d="M108.1 108.3h-6.4c-.7 0-1.2-.5-1.2-1.2s.5-1.2 1.2-1.2h6.4c.7 0 1.2.5 1.2 1.2 0 .6-.6 1.2-1.2 1.2z"/><path d="M104.9 111.5c-.7 0-1.2-.5-1.2-1.2v-6.4c0-.7.5-1.2 1.2-1.2s1.2.5 1.2 1.2v6.4c0 .7-.6 1.2-1.2 1.2z"/><path class="st0" d="M69.2 36.1h6.6l-12 16.3h-6.6zM87.6 52.4h-6.5l-7-9.2h6.5z"/><path class="st0" d="M67.3 52.4h6.6l6.7-9.2h-6.5zM87.6 52.4h-6.5l-12 16.3h6.6zM91.2 52.4l3.4 4.6-8.7 11.7h-6.6z"/><path class="st0" d="M85.9 68.7h-6.6l-12-16.3h6.6zM69.1 68.7h6.6L63.8 52.4h-6.6z"/></svg>