<svg xmlns="http://www.w3.org/2000/svg" viewBox="0 0 128 128"><path d="M77.7 112.9c-.5 0-.9-.3-1.1-.8L65.7 85.9c-3.9 1.3-8.1 1.3-12 0l-10.9 26.3c-.3.6-1 .9-1.6.7-.6-.3-.9-1-.7-1.6l11.3-27.4c.3-.6 1-.9 1.6-.7 4 1.7 8.4 1.7 12.4 0 .3-.1.6-.1.9 0 .3.1.5.4.7.7l11.3 27.4c.3.6 0 1.3-.7 1.6h-.3z"/><path d="M41.6 112.9c-.2 0-.3 0-.5-.1-11.8-4.9-21.1-14.2-26-26.1-.3-.6 0-1.3.7-1.6l27.4-11.3c.6-.2 1.3 0 1.6.7 1.7 4 4.8 7.1 8.8 8.8.3.1.5.4.7.7.1.3.1.6 0 .9L43 112.3c-.1.3-.4.5-.7.7-.3-.1-.5-.1-.7-.1zm-23.8-26c4.6 10.4 12.8 18.6 23.2 23.2L51.4 85c-3.7-1.8-6.7-4.8-8.5-8.5L17.8 86.9z"/><path d="M16.2 87.4c-.2 0-.3 0-.5-.1-.3-.1-.5-.4-.7-.7-4.9-11.9-4.9-25 0-36.9.3-.6 1-.9 1.6-.7L44 60.4c.3.1.5.4.7.7.1.3.1.6 0 .9-1.7 4-1.7 8.4 0 12.4.1.3.1.6 0 .9-.1.3-.4.5-.7.7L16.6 87.3c-.1.1-.3.1-.4.1zm.7-35.6c-4.1 10.6-4.1 22.2 0 32.8L42 74.2c-1.3-3.9-1.3-8.1 0-12L16.9 51.8zM103.1 87.4c-.2 0-.3 0-.5-.1L75.3 76c-.6-.3-.9-1-.7-1.6 1.7-4 1.7-8.4 0-12.4-.3-.6 0-1.3.7-1.6l27.4-11.3c.6-.3 1.3 0 1.6.7 4.9 11.9 4.9 25 0 36.9-.1.3-.4.5-.7.7h-.5zM77.3 74.2l25.1 10.4c4.1-10.6 4.1-22.2 0-32.8L77.3 62.2c1.3 3.9 1.3 8.1 0 12zM66.3 53.3c-.2 0-.3 0-.5-.1-4-1.7-8.4-1.7-12.4 0-.3.1-.6.1-.9 0-.3-.1-.5-.4-.7-.7L40.5 25.2c-.1-.3-.1-.6 0-.9.1-.3.4-.5.7-.7 11.9-4.9 25-4.9 36.9 0 .3.1.5.4.7.7.1.3.1.6 0 .9L67.4 52.6c-.1.3-.4.5-.7.7h-.4zM43.2 25.4l10.4 25.1c3.9-1.3 8.1-1.3 12 0L76 25.4c-10.6-4.1-22.1-4.1-32.8 0z"/><path d="M77.7 112.9c-.2 0-.3 0-.5-.1-.3-.1-.5-.4-.7-.7L65.2 84.8c-.1-.3-.1-.6 0-.9.1-.3.4-.5.7-.7 4-1.7 7.1-4.8 8.8-8.8.1-.3.4-.5.7-.7.3-.1.6-.1.9 0L103.7 85c.3.1.5.4.7.7.1.3.1.6 0 .9-4.9 11.9-14.2 21.2-26.1 26.1-.3.2-.5.2-.6.2zm-9.8-28L78.3 110c10.4-4.6 18.6-12.8 23.2-23.2L76.4 76.5c-1.8 3.7-4.8 6.6-8.5 8.4zM43.6 62.8c-.2 0-.3 0-.5-.1L15.7 51.3c-.3-.1-.5-.4-.7-.7-.1-.3-.1-.6 0-.9 5-11.9 14.3-21.1 26.2-26.1.6-.3 1.3 0 1.6.7l11.3 27.4c.3.6 0 1.3-.7 1.6-4 1.7-7.1 4.8-8.8 8.8-.1.4-.6.7-1 .7zM17.8 49.6L42.9 60c1.8-3.7 4.8-6.7 8.5-8.5L41 26.3C30.6 31 22.4 39.2 17.8 49.6zM74.4 116.5h-18c-.7 0-1.2-.5-1.2-1.2s.5-1.2 1.2-1.2h18c.7 0 1.2.5 1.2 1.2s-.5 1.2-1.2 1.2zM64.7 110H49.9c-.7 0-1.2-.5-1.2-1.2s.5-1.2 1.2-1.2h14.8c.7 0 1.2.5 1.2 1.2s-.6 1.2-1.2 1.2zM66.3 103.5h-9.9c-.7 0-1.2-.5-1.2-1.2s.5-1.2 1.2-1.2h9.9c.7 0 1.2.5 1.2 1.2s-.5 1.2-1.2 1.2zM85.6 116.5h-4.7c-.7 0-1.2-.5-1.2-1.2s.5-1.2 1.2-1.2h4.7c.7 0 1.2.5 1.2 1.2s-.5 1.2-1.2 1.2zM115.4 92.1h-6.5c-.7 0-1.2-.5-1.2-1.2s.5-1.2 1.2-1.2h6.5c.7 0 1.2.5 1.2 1.2 0 .6-.5 1.2-1.2 1.2z"/><path d="M112.2 95.3c-.7 0-1.2-.5-1.2-1.2v-6.5c0-.7.5-1.2 1.2-1.2s1.2.5 1.2 1.2v6.5c0 .7-.5 1.2-1.2 1.2z"/><circle cx="112.2" cy="81.1" r="1.2"/><circle cx="112.2" cy="76.3" r="1.2"/><circle cx="112.2" cy="69.8" r="1.2"/><circle cx="112.2" cy="60" r="1.2"/><path d="M105 106.7h-6.5c-.7 0-1.2-.5-1.2-1.2s.5-1.2 1.2-1.2h6.5c.7 0 1.2.5 1.2 1.2 0 .6-.6 1.2-1.2 1.2z"/><path d="M101.7 109.9c-.7 0-1.2-.5-1.2-1.2v-6.5c0-.7.5-1.2 1.2-1.2s1.2.5 1.2 1.2v6.5c0 .7-.5 1.2-1.2 1.2zM16.8 33.7c-2.5 0-4.5-2-4.5-4.5s2-4.5 4.5-4.5 4.5 2 4.5 4.5-2 4.5-4.5 4.5zm0-6.5c-1.1 0-2 .9-2 2s.9 2 2 2 2-.9 2-2c.1-1.1-.8-2-2-2zM34.7 20.4c-2.5 0-4.5-2-4.5-4.5s2-4.5 4.5-4.5 4.5 2 4.5 4.5-2 4.5-4.5 4.5zm0-6.5c-1.1 0-2 .9-2 2s.9 2 2 2 2-.9 2-2-.9-2-2-2zM113.7 34.6c0 .6-.3 1-.8 1.2l-29.2 10c-.4.2-.9 0-1.3-.3-.3-.3-.4-.8-.3-1.3l10-29.2c.2-.5.6-.8 1.1-.8.5 0 1 .3 1.2.7l5.7 12.9 12.9 5.7c.4.2.7.6.7 1.1zm-28.5 8l23.9-8.2-10.5-4.7c-.3-.1-.5-.3-.6-.6l-4.7-10.5-8.1 24z"/><path d="M99.1 40.4l-2.4.8c1.9 2.6 3.5 5.3 4.8 8.3L76.4 60c-1.8-3.7-4.8-6.7-8.5-8.5l10.4-25.1c3 1.3 5.7 2.9 8.3 4.8l.8-2.4c-2.9-2-6-3.7-9.3-5.1-.6-.3-1.3 0-1.6.7L65.2 51.6c-.1.3-.1.6 0 .9.1.3.4.5.7.7 4 1.7 7.1 4.8 8.8 8.8.1.3.4.5.7.7.1.1.3.1.5.1s.3 0 .5-.1l27.4-11.3c.3-.1.5-.4.7-.7.1-.3.1-.6 0-.9-1.6-3.4-3.3-6.5-5.4-9.4z"/></svg>