<svg xmlns="http://www.w3.org/2000/svg" viewBox="0 0 128 128"><path d="M64 116.5c-18.4 0-33.4-15-33.4-33.4V44.9c0-18.4 15-33.4 33.4-33.4s33.4 15 33.4 33.4v38.2c0 18.4-15 33.4-33.4 33.4zm0-102.7c-17.2 0-31.2 14-31.2 31.2v38.2c0 17.2 14 31.2 31.2 31.2s31.2-14 31.2-31.2V44.9c0-17.2-14-31.1-31.2-31.1z"/><path d="M64.5 47.5h-1c-2.1 0-3.8-1.7-3.8-3.8V28.2c0-2.1 1.7-3.8 3.8-3.8h1c2.1 0 3.8 1.7 3.8 3.8v15.6c0 2-1.7 3.7-3.8 3.7zM31.7 56.2h64.6v2.3H31.7zM64 100c-.3 0-.6-.1-.8-.3L51.9 88.3c-.4-.4-.4-1.2 0-1.6s1.2-.4 1.6 0L64 97.3l10.5-10.5c.4-.4 1.2-.4 1.6 0s.4 1.2 0 1.6L64.8 99.7c-.2.2-.5.3-.8.3z"/><path d="M64 100c-.6 0-1.1-.5-1.1-1.1V73.1c0-.6.5-1.1 1.1-1.1.6 0 1.1.5 1.1 1.1v25.8c0 .6-.5 1.1-1.1 1.1z"/></svg>