<svg xmlns="http://www.w3.org/2000/svg" viewBox="0 0 128 128"><path d="M97.2 28.5v-.2c0-.1 0-.1-.1-.2 0 0-.1-.1-.1-.2l-.1-.1-16-16-.1-.1s-.1-.1-.2-.1c0 0-.1-.1-.2-.1H12.7c-.7 0-1.2.5-1.2 1.2v102.6c0 .7.5 1.2 1.2 1.2h83.4c.7 0 1.2-.5 1.2-1.2v-14.1c-.4.2-.8.3-1.2.4-.4.1-.8.3-1.2.4v12.1h-81V13.9h65.6l15.3 15.3v22.4c.4.1.8.2 1.2.4.4.1.8.3 1.2.4V28.7c.1 0 .1-.1 0-.2zm-1.1 56.4c-.4.4-.8.7-1.2 1v2.9c.4-.2.8-.5 1.2-.8l1.2-.9v-3.6c-.4.5-.8 1-1.2 1.4zm0-20l-.4.5c-.3-.2-.5-.4-.8-.5v2.9c.4.3.8.6 1.2 1 .4.4.8.9 1.2 1.4v-6.8l-1.2 1.5z"/><path d="M96.1 29.9H80c-.3 0-.6-.1-.9-.4-.2-.2-.4-.5-.4-.9v-16c0-.5.3-.9.7-1.1.4-.2 1-.1 1.3.3l16 16c.3.3.4.9.3 1.3 0 .5-.5.8-.9.8zm-14.9-2.4h11.9L81.2 15.6v11.9zM105.8 54.6c-2.5-2-5.4-3.6-8.5-4.7-.4-.1-.8-.3-1.2-.4l-1.2-.3c-2.2-.5-4.5-.8-6.8-.8-15.7 0-28.5 12.8-28.5 28.5 0 8.1 3.4 15.4 8.8 20.6 3.2 3 7.1 5.3 11.3 6.6 2.6.8 5.3 1.2 8.2 1.2 2.4 0 4.6-.3 6.8-.8.8-.2 1.6-.4 2.4-.7 7.4-2.5 13.5-8.1 16.7-15.1v-.1-.1c1.6-3.5 2.5-7.5 2.5-11.6.2-9.1-4-17.1-10.5-22.3zm5.5 34c-2.9 5.7-7.9 10.3-14 12.6-.4.2-.8.3-1.2.4-.4.1-.8.3-1.2.4-2.2.6-4.5.9-6.8.9-6.5 0-12.4-2.4-17-6.4-.6-.5-1.2-1.1-1.7-1.7-4.5-4.7-7.3-11-7.3-18 0-14 11-25.4 24.8-26h2.4c1.9.1 3.8.4 5.6.9.4.1.8.2 1.2.4.4.1.8.3 1.2.4 2.2.8 4.2 1.9 6.1 3.3.7.5 1.3 1 1.9 1.5 5.5 4.8 8.9 11.8 8.9 19.6 0 3.4-.7 6.6-1.8 9.6-.4.7-.8 1.4-1.1 2.1z"/><path d="M89.2 49.6v15.9c-.4 0-.8-.1-1.2-.1s-.8 0-1.2.1V49.6c0-.7.5-1.2 1.2-1.2s1.2.5 1.2 1.2zM106 56.3l-.8 1-7.6 9.6-.3.4-.5.6-.7.9c-.4-.4-.8-.7-1.2-1-.2-.2-.5-.4-.7-.5l.7-.9.1-.1.8-.9.4-.5 1.2-1.5 6.1-7.6.8-.9c.4-.5 1.2-.6 1.7-.2.3.3.4 1.1 0 1.6zM81.2 85.9l-.8.9-.8.9-8.6 8.8-.8.9c-.2.2-.5.4-.9.4-.3 0-.6-.1-.8-.3-.4-.5-.4-1.2 0-1.7l.8-.9 8.4-8.9 1.7-1.8c.5.6 1.1 1.2 1.8 1.7zM114 88.4c0 .1 0 .1 0 0 0 .1 0 .1-.1.2-.3.6-1 .8-1.6.5l-1.1-.5-11.2-5-1-.5-1.1-.5c.4-.7.7-1.4 1-2.2l2.2 1 11.2 5 1.1.5c.6.3.8 1 .6 1.5z"/><path d="M97.6 66.8l-.3-.3c-.4-.3-.8-.7-1.2-.9-.1-.1-.3-.2-.4-.3-.3-.2-.5-.4-.8-.5-1.7-1-3.6-1.6-5.6-1.7h-2.4c-7 .6-12.6 6.5-12.6 13.7 0 3.5 1.3 6.7 3.5 9.1.5.6 1.1 1.1 1.7 1.7 2.3 1.9 5.3 3 8.6 3 2.5 0 4.8-.7 6.8-1.8.4-.2.8-.5 1.2-.8l1.2-.9c1.1-1 2.1-2.2 2.8-3.5.4-.7.7-1.4 1-2.2.5-1.4.8-2.9.8-4.6-.1-3.9-1.7-7.4-4.3-10zm1.2 13.6c-.3.8-.6 1.5-1 2.2l-.6.9c-.4.5-.8 1-1.2 1.4-.4.4-.8.7-1.2 1-1.9 1.4-4.3 2.3-6.8 2.3-2.6 0-5-.9-6.9-2.4-.6-.5-1.2-1-1.7-1.7-1.7-2-2.7-4.6-2.7-7.4 0-5.9 4.5-10.7 10.2-11.3.4 0 .8-.1 1.2-.1s.8 0 1.2.1c1.8.2 3.5.8 4.9 1.7.2.1.5.3.7.5.4.3.8.6 1.2 1 .4.4.8.9 1.2 1.4 1.4 1.9 2.2 4.2 2.2 6.7-.1 1.4-.3 2.6-.7 3.7zM28.7 105.3h-8c-.7 0-1.2-.5-1.2-1.2V84.8c0-.7.5-1.2 1.2-1.2h8c.7 0 1.2.5 1.2 1.2V104c0 .7-.5 1.3-1.2 1.3zm-6.8-2.4h5.6V86h-5.6v16.9z"/><path d="M36.7 105.3h-8c-.7 0-1.2-.5-1.2-1.2v-16c0-.7.5-1.2 1.2-1.2h8c.7 0 1.2.5 1.2 1.2v16c.1.6-.5 1.2-1.2 1.2zm-6.8-2.4h5.6V89.3h-5.6v13.6z"/><path d="M44.8 105.3h-8c-.7 0-1.2-.5-1.2-1.2V76.8c0-.7.5-1.2 1.2-1.2h8c.7 0 1.2.5 1.2 1.2v27.3c0 .6-.6 1.2-1.2 1.2zm-6.8-2.4h5.6V78H38v24.9z"/><path d="M52.8 105.3h-8c-.7 0-1.2-.5-1.2-1.2V68.8c0-.7.5-1.2 1.2-1.2h8c.7 0 1.2.5 1.2 1.2v35.3c0 .6-.6 1.2-1.2 1.2zm-6.8-2.4h5.6V70H46v32.9zM46.6 42.2l-5-1.3h-3.5l.9 1.2c.2.2.4.3.6.5-.2.2-.4.4-.8.7H41l.9.2 4.1 1.1c1.4.4 2.4 1.7 2.4 3.1v4H22v-4c0-1.5 1-2.8 2.4-3.1l4.1-1.1.9-.2h2.1c-.4-.3-.6-.5-.8-.7.2-.1.4-.3.6-.5.4-.4.7-.8.9-1.2h-3.5l-5 1.3c-1.3.3-2.3 1.1-3.1 2.1-.7.9-1.1 2.1-1.1 3.4v5.2c0 .6.5 1.2 1.1 1.2h29c.7 0 1.2-.5 1.2-1.2v-5.2c0-2.7-1.7-4.9-4.2-5.5z"/><path d="M41.7 40.9c-.9-.5-1.5-1.2-1.7-2.1 0-.1-.1-.2-.1-.3v-.9-.3-.5c0-.3-.2-.6-.5-.8-.3.4-.6.7-.9 1-.7.6-1.6 1.1-2.6 1.2h1.6c0 .4 0 .6.1.7.1.4.2.8.4 1.1l.3.6.9 1.2c.2.2.4.3.6.5-.2.2-.4.4-.8.7-2.2 1.5-5.1 1.5-7.3 0-.4-.3-.6-.5-.8-.7.2-.1.4-.3.6-.5.4-.4.7-.8.9-1.2l.3-.6c.1-.3.2-.7.3-1.1v-.1-.8h1.6c-.9-.1-1.8-.6-2.6-1.2l-.9-.9c-.3.2-.4.5-.5.8v1.7c0 .1 0 .2-.1.2-.2.9-.8 1.6-1.7 2h-.1c-.4.5-.7.9-.7 1.4v.3c0 .4.2.8.4 1.1.3.6.9 1.2 1.7 1.7 1.5 1.1 3.3 1.6 5.1 1.6 1.8 0 3.6-.5 5.1-1.6.8-.5 1.3-1.1 1.7-1.7.2-.4.4-.8.4-1.1V42c0-.5-.3-.9-.7-1.1z"/><path d="M35.2 22.7c-4.8 0-8.1 3.5-8.1 8.4 0 3.2 1.3 6 3.4 7.7.3.3.7.5 1 .8.4.2.7.4 1.1.5.8.3 1.7.5 2.7.5.9 0 1.8-.2 2.7-.5.4-.1.7-.3 1.1-.5.4-.2.7-.5 1-.8 2-1.7 3.4-4.5 3.4-7.7-.2-4.9-3.5-8.4-8.3-8.4zM39.3 36c-.3.4-.6.7-.9 1-.7.6-1.6 1.1-2.6 1.2h-1.4c-.9-.1-1.8-.6-2.6-1.2l-.9-.9c-1-1.3-1.6-3-1.6-4.9 0-3.7 2.3-6 5.7-6s5.7 2.4 5.7 6c.2 1.8-.4 3.6-1.4 4.8zM73.7 29.9h-16c-.7 0-1.2-.5-1.2-1.2s.5-1.2 1.2-1.2h16c.7 0 1.2.5 1.2 1.2s-.6 1.2-1.2 1.2zM88.1 38h-16c-.7 0-1.2-.5-1.2-1.2s.5-1.2 1.2-1.2h16c.7 0 1.2.5 1.2 1.2 0 .6-.5 1.2-1.2 1.2zM65.7 38h-8c-.7 0-1.2-.5-1.2-1.2s.5-1.2 1.2-1.2h8c.7 0 1.2.5 1.2 1.2 0 .6-.6 1.2-1.2 1.2zM80.1 46H57.6c-.7 0-1.2-.5-1.2-1.2s.5-1.2 1.2-1.2H80c.7 0 1.2.5 1.2 1.2.1.6-.4 1.2-1.1 1.2zM65.7 54h-8c-.7 0-1.2-.5-1.2-1.2s.5-1.2 1.2-1.2h8c.7 0 1.2.5 1.2 1.2s-.6 1.2-1.2 1.2zM59.3 62H43.2c-.7 0-1.2-.5-1.2-1.2s.5-1.2 1.2-1.2h16.1c.7 0 1.2.5 1.2 1.2s-.6 1.2-1.2 1.2zM36.7 62h-16c-.7 0-1.2-.5-1.2-1.2s.5-1.2 1.2-1.2h16c.7 0 1.2.5 1.2 1.2.1.7-.5 1.2-1.2 1.2zM101.3 18.7c-.3 0-.6-.1-.9-.4l-4.8-4.8c-.5-.5-.5-1.2 0-1.7s1.2-.5 1.7 0l4.8 4.8c.5.5.5 1.2 0 1.7-.1.3-.4.4-.8.4z"/><path d="M96.5 18.7c-.3 0-.6-.1-.9-.4-.5-.5-.5-1.2 0-1.7l4.8-4.8c.5-.5 1.2-.5 1.7 0s.5 1.2 0 1.7l-4.8 4.8c-.1.3-.5.4-.8.4zM115.3 29.9c-.3 0-.6-.1-.9-.4l-4.8-4.8c-.5-.5-.5-1.2 0-1.7s1.2-.5 1.7 0l4.8 4.8c.5.5.5 1.2 0 1.7-.2.3-.5.4-.8.4z"/><path d="M110.5 29.9c-.3 0-.6-.1-.9-.4-.5-.5-.5-1.2 0-1.7l4.8-4.8c.5-.5 1.2-.5 1.7 0s.5 1.2 0 1.7l-4.8 4.8c-.2.3-.5.4-.8.4zM112.1 111.7c-.3 0-.6-.1-.9-.4l-4.8-4.8c-.5-.5-.5-1.2 0-1.7s1.2-.5 1.7 0l4.8 4.8c.5.5.5 1.2 0 1.7-.2.3-.5.4-.8.4z"/><path d="M107.3 111.7c-.3 0-.6-.1-.9-.4-.5-.5-.5-1.2 0-1.7l4.8-4.8c.5-.5 1.2-.5 1.7 0s.5 1.2 0 1.7l-4.8 4.8c-.2.3-.5.4-.8.4zM110.5 47.6c-.3 0-.6-.1-.9-.4l-4.8-4.8c-.5-.5-.5-1.2 0-1.7s1.2-.5 1.7 0l4.8 4.8c.5.5.5 1.2 0 1.7-.2.3-.5.4-.8.4z"/><path d="M105.7 47.6c-.3 0-.6-.1-.9-.4-.5-.5-.5-1.2 0-1.7l4.8-4.8c.5-.5 1.2-.5 1.7 0s.5 1.2 0 1.7l-4.8 4.8c-.2.3-.5.4-.8.4z"/></svg>