<svg version="1.1" id="Warstwa_1" xmlns="http://www.w3.org/2000/svg" x="0" y="0" viewBox="0 0 128 128" xml:space="preserve"><style>.st0{fill:#090909}</style><path class="st0" d="M114.2 116.1c.3 1.3.4 2.3.2 2.9-.2.6-.9 1-2 1H93.2c-1.8 0-2.9-.4-3.6-1.2-.6-.8-1.2-2.1-1.7-3.8l-5-18.8H51.6l-5.2 19.3c-.5 1.7-1.2 2.9-2 3.5-.8.6-2 1-3.4 1H23.8c-1.1 0-1.9-.2-2.3-.7-.4-.5-.4-1.6.2-3.5l29.9-98.1c.5-1.5 1.1-2.7 1.9-3.5.7-.8 2.1-1.2 4.2-1.2h19.5c2.2 0 3.6.4 4.3 1.3.7.9 1.3 2 1.8 3.5l30.9 98.3zM78.2 79L67.8 40.3H67L56.4 79h21.8zM35 22.4V25c0 1.4-1.5 2.6-3.3 2.6H8.9c-1.8 0-3.3-1.2-3.3-2.6v-2.6c0-1.4 1.5-2.6 3.3-2.6h22.8c1.8 0 3.3 1.1 3.3 2.6zM124.6 22.4V25c0 1.4-1.5 2.6-3.3 2.6H98.5c-1.8 0-3.3-1.2-3.3-2.6v-2.6c0-1.4 1.5-2.6 3.3-2.6h22.8c1.9 0 3.3 1.1 3.3 2.6z"/><path class="st0" d="M111.2 38.4h-2.6c-1.4 0-2.6-1.5-2.6-3.3V12.3c0-1.8 1.2-3.3 2.6-3.3h2.6c1.4 0 2.6 1.5 2.6 3.3v22.8c.1 1.8-1.1 3.3-2.6 3.3z"/></svg>